<svg width="1189" height="638" viewBox="0 0 1189 638" fill="none" xmlns="http://www.w3.org/2000/svg">
<path fill-rule="evenodd" clip-rule="evenodd" d="M-20.625 95.375V206.75H-133V208.75H-20.625V320.125H-133V322.125H-20.625V433.5H-133V435.5H-20.625V546.875H-133V548.875H-20.625V660.25H-133V662.25H-20.625V773.625H-133V775.625H-20.625V888H-18.625V775.625H92.75V888H94.75V775.625H206.125V888H208.125V775.625H319.5V888H321.5V775.625H432.875V888H434.875V775.625H546.25V888H548.25V775.625H659.625V888H661.625V775.625H774V773.625H661.625V662.25H774V660.25H661.625V548.875H774V546.875H661.625V435.5H774V433.5H661.625V322.125H774V320.125H661.625V208.75H774V206.75H661.625V95.375H774V93.375H661.625V-19H659.625V93.375H548.25V-19H546.25V93.375H434.875V-19H432.875V93.375H321.5V-19H319.5V93.375H208.125V-19H206.125V93.375H94.75V-19H92.75V93.375H-18.625V-19H-20.625V93.375H-133V95.375H-20.625ZM659.625 773.625V662.25H548.25V773.625H659.625ZM546.25 773.625V662.25H434.875V773.625H546.25ZM432.875 773.625V662.25H321.5V773.625H432.875ZM319.5 773.625V662.25H208.125V773.625H319.5ZM206.125 773.625V662.25H94.75V773.625H206.125ZM92.75 773.625V662.25H-18.625V773.625H92.75ZM92.75 660.25H-18.625V548.875H92.75V660.25ZM206.125 660.25H94.75V548.875H206.125V660.25ZM319.5 660.25H208.125V548.875H319.5V660.25ZM432.875 660.25H321.5V548.875H432.875V660.25ZM546.25 660.25H434.875V548.875H546.25V660.25ZM659.625 660.25H548.25V548.875H659.625V660.25ZM659.625 546.875V435.5H548.25V546.875H659.625ZM546.25 546.875V435.5H434.875V546.875H546.25ZM432.875 546.875V435.5H321.5V546.875H432.875ZM319.5 546.875V435.5H208.125V546.875H319.5ZM206.125 546.875V435.5H94.75V546.875H206.125ZM92.75 546.875V435.5H-18.625V546.875H92.75ZM92.75 433.5H-18.625V322.125H92.75V433.5ZM206.125 433.5H94.75V322.125H206.125V433.5ZM319.5 433.5H208.125V322.125H319.5V433.5ZM432.875 433.5H321.5V322.125H432.875V433.5ZM546.25 433.5H434.875V322.125H546.25V433.5ZM659.625 433.5H548.25V322.125H659.625V433.5ZM659.625 320.125V208.75H548.25V320.125H659.625ZM546.25 320.125V208.75H434.875V320.125H546.25ZM432.875 320.125V208.75H321.5V320.125H432.875ZM319.5 320.125V208.75H208.125V320.125H319.5ZM206.125 320.125V208.75H94.75V320.125H206.125ZM92.75 320.125V208.75H-18.625V320.125H92.75ZM92.75 206.75H-18.625V95.375H92.75V206.75ZM206.125 206.75H94.75V95.375H206.125V206.75ZM319.5 206.75H208.125V95.375H319.5V206.75ZM432.875 206.75H321.5V95.375H432.875V206.75ZM546.25 206.75H434.875V95.375H546.25V206.75ZM659.625 206.75H548.25V95.375H659.625V206.75Z" fill="url(#paint0_radial_638_4643)"/>
<defs>
<radialGradient id="paint0_radial_638_4643" cx="0" cy="0" r="1" gradientUnits="userSpaceOnUse" gradientTransform="translate(320.5 252.5) rotate(90) scale(602)">
<stop stop-color="white" stop-opacity="0.16"/>
<stop offset="1" stop-color="white" stop-opacity="0"/>
</radialGradient>
</defs>
</svg>
