<svg width="1081" height="1079" viewBox="0 0 1081 1079" fill="none" xmlns="http://www.w3.org/2000/svg">
<path d="M1.26275 1C281.154 338.118 799.846 338.118 1079.74 1M1.26275 68.3154C281.154 363.294 799.846 363.294 1079.74 68.3154M1.26275 135.623C281.154 388.461 799.846 388.461 1079.74 135.623M1.26275 202.939C281.154 413.637 799.846 413.637 1079.74 202.939M1.26275 270.254C281.154 438.813 799.846 438.813 1079.74 270.254M1.26275 337.562C281.154 463.981 799.846 463.981 1079.74 337.562M1.26275 404.877C281.154 489.156 799.846 489.156 1079.74 404.877M1.26275 472.185C281.154 514.324 799.846 514.324 1079.74 472.185M1.26275 539.5C281.154 539.5 799.846 539.5 1079.74 539.5M1.26275 606.816C281.154 564.676 799.846 564.676 1079.74 606.816M1.26275 674.123C281.154 589.843 799.846 589.843 1079.74 674.123M1.26275 741.439C281.154 615.019 799.846 615.019 1079.74 741.439M1.26275 808.746C281.154 640.187 799.846 640.187 1079.74 808.746M1.26275 876.062C281.154 665.363 799.846 665.363 1079.74 876.062M1.26275 943.377C281.154 690.539 799.846 690.539 1079.74 943.377M1.26275 1010.68C281.154 715.706 799.846 715.706 1079.74 1010.68M1.26275 1078C281.154 740.882 799.846 740.882 1079.74 1078M1080 2.12079C1080 360.376 1080 718.624 1080 1076.88M1024.75 61.3836C1024.75 380.13 1024.75 698.877 1024.75 1017.62M964.632 112.737C964.632 397.245 964.632 681.754 964.632 966.255M900.329 156.196C900.329 411.729 900.329 667.27 900.329 922.804M832.539 191.753C832.539 423.59 832.539 655.418 832.539 887.254M761.971 219.402C761.971 432.795 761.971 646.197 761.971 859.59M689.309 239.156C689.309 439.385 689.309 639.615 689.309 839.836M615.255 251.008C615.255 443.336 615.255 635.664 615.255 827.991M540.5 254.959C540.5 444.656 540.5 634.344 540.5 824.041M465.745 251.008C465.745 443.336 465.745 635.664 465.745 827.991M391.691 239.156C391.691 439.385 391.691 639.615 391.691 839.836M319.029 219.402C319.029 432.795 319.029 646.197 319.029 859.59M248.461 191.753C248.461 423.59 248.461 655.418 248.461 887.254M180.671 156.196C180.671 411.729 180.671 667.27 180.671 922.804M116.368 112.737C116.368 397.245 116.368 681.754 116.368 966.255M56.2522 61.3836C56.2522 380.13 56.2522 698.877 56.2522 1017.62M1 2.12079C1 360.376 1 718.624 1 1076.88" stroke="url(#paint0_radial_3268_17361)" stroke-miterlimit="10"/>
<defs>
<radialGradient id="paint0_radial_3268_17361" cx="0" cy="0" r="1" gradientUnits="userSpaceOnUse" gradientTransform="translate(540.5 539.5) rotate(180) scale(539.5 540.502)">
<stop stop-color="#2A2D35" stop-opacity="0.16"/>
<stop offset="1" stop-color="#2A2D35" stop-opacity="0"/>
</radialGradient>
</defs>
</svg>
