<svg width="1105" height="579" viewBox="0 0 1105 579" fill="none" xmlns="http://www.w3.org/2000/svg">
<path fill-rule="evenodd" clip-rule="evenodd" d="M211.375 66.375V177.75H99V179.75H211.375V291.125H99V293.125H211.375V404.5H99V406.5H211.375V517.875H99V519.875H211.375V631.25H99V633.25H211.375V744.625H99V746.625H211.375V859H213.375V746.625H324.75V859H326.75V746.625H438.125V859H440.125V746.625H551.5V859H553.5V746.625H664.875V859H666.875V746.625H778.25V859H780.25V746.625H891.625V859H893.625V746.625H1006V744.625H893.625V633.25H1006V631.25H893.625V519.875H1006V517.875H893.625V406.5H1006V404.5H893.625V293.125H1006V291.125H893.625V179.75H1006V177.75H893.625V66.375H1006V64.375H893.625V-48H891.625V64.375H780.25V-48H778.25V64.375H666.875V-48H664.875V64.375H553.5V-48H551.5V64.375H440.125V-48H438.125V64.375H326.75V-48H324.75V64.375H213.375V-48H211.375V64.375H99V66.375H211.375ZM891.625 744.625V633.25H780.25V744.625H891.625ZM778.25 744.625V633.25H666.875V744.625H778.25ZM664.875 744.625V633.25H553.5V744.625H664.875ZM551.5 744.625V633.25H440.125V744.625H551.5ZM438.125 744.625V633.25H326.75V744.625H438.125ZM324.75 744.625V633.25H213.375V744.625H324.75ZM324.75 631.25H213.375V519.875H324.75V631.25ZM438.125 631.25H326.75V519.875H438.125V631.25ZM551.5 631.25H440.125V519.875H551.5V631.25ZM664.875 631.25H553.5V519.875H664.875V631.25ZM778.25 631.25H666.875V519.875H778.25V631.25ZM891.625 631.25H780.25V519.875H891.625V631.25ZM891.625 517.875V406.5H780.25V517.875H891.625ZM778.25 517.875V406.5H666.875V517.875H778.25ZM664.875 517.875V406.5H553.5V517.875H664.875ZM551.5 517.875V406.5H440.125V517.875H551.5ZM438.125 517.875V406.5H326.75V517.875H438.125ZM324.75 517.875V406.5H213.375V517.875H324.75ZM324.75 404.5H213.375V293.125H324.75V404.5ZM438.125 404.5H326.75V293.125H438.125V404.5ZM551.5 404.5H440.125V293.125H551.5V404.5ZM664.875 404.5H553.5V293.125H664.875V404.5ZM778.25 404.5H666.875V293.125H778.25V404.5ZM891.625 404.5H780.25V293.125H891.625V404.5ZM891.625 291.125V179.75H780.25V291.125H891.625ZM778.25 291.125V179.75H666.875V291.125H778.25ZM664.875 291.125V179.75H553.5V291.125H664.875ZM551.5 291.125V179.75H440.125V291.125H551.5ZM438.125 291.125V179.75H326.75V291.125H438.125ZM324.75 291.125V179.75H213.375V291.125H324.75ZM324.75 177.75H213.375V66.375H324.75V177.75ZM438.125 177.75H326.75V66.375H438.125V177.75ZM551.5 177.75H440.125V66.375H551.5V177.75ZM664.875 177.75H553.5V66.375H664.875V177.75ZM778.25 177.75H666.875V66.375H778.25V177.75ZM891.625 177.75H780.25V66.375H891.625V177.75Z" fill="url(#paint0_radial_296_495)"/>
<defs>
<radialGradient id="paint0_radial_296_495" cx="0" cy="0" r="1" gradientUnits="userSpaceOnUse" gradientTransform="translate(552.5 405.5) rotate(90) scale(453.5)">
<stop stop-color="white" stop-opacity="0.16"/>
<stop offset="1" stop-color="white" stop-opacity="0"/>
</radialGradient>
</defs>
</svg>
