<svg width="601" height="601" viewBox="0 0 601 601" fill="none" xmlns="http://www.w3.org/2000/svg">
<g opacity="0.2">
<path d="M494.125 377.694C509.664 388.525 560.63 404.336 582.202 407.847C584.085 402.776 585.842 397.626 587.466 392.4C566.335 390.018 514.499 374.796 498.556 365.145C497.207 369.402 495.727 373.588 494.125 377.694Z" fill="#FF2B44"/>
<path d="M481.779 403.775C559.653 475.616 488.726 418.447 567.891 440.287C570.316 435.58 572.621 430.788 574.807 425.913C556.095 421.721 502.726 404.465 487.783 392.273C485.894 396.19 483.892 400.024 481.779 403.775Z" fill="#FF2B44"/>
<path d="M507.107 452.34C501.758 447.237 492.202 436.826 473.623 417.033C471.248 420.576 468.772 424.034 466.196 427.403C472.784 435.289 489.685 444.365 507.107 452.34Z" fill="#FF2B44"/>
<path d="M514.95 455.845C529.044 462.007 542.527 467.227 550.137 470.245C553.058 465.927 555.871 461.514 558.571 457.015C521.721 444.46 517.921 453.045 514.95 455.845Z" fill="#FF2B44"/>
<path d="M529.246 497.551C532.617 493.641 535.891 489.636 539.067 485.537C532.595 482.512 460.594 461.239 529.246 497.551Z" fill="#FF2B44"/>
<path d="M456.418 439.23C453.611 442.375 450.713 445.428 447.726 448.382C488.745 512.251 421.912 465.145 505.53 522.019C509.305 518.552 512.995 514.977 516.593 511.308C426.492 456.449 503.24 503.871 456.418 439.23Z" fill="#FF2B44"/>
<path d="M436.524 458.67C433.335 461.387 430.068 464 426.728 466.512C431.351 476.094 440.204 491.667 450.053 506.69C454.428 513.361 458.995 519.887 463.482 525.771C469.062 533.085 474.515 539.387 479.293 543.493C483.424 540.491 487.483 537.378 491.46 534.158C479.05 524.55 469.636 517.888 462.581 513.428C459.395 503.245 451.668 486.128 436.524 458.67Z" fill="#FF2B44"/>
<path d="M403.544 481.598C410.492 501.796 425.621 534.435 450.836 561.799C455.28 559.284 459.66 556.658 463.968 553.919C432.695 523.386 422.357 495.102 414.283 475.16C410.77 477.416 407.19 479.56 403.544 481.598Z" fill="#FF2B44"/>
<path d="M378.525 493.454C382.779 512.934 410.135 562.456 420.464 576.768C425.176 574.768 429.831 572.652 434.426 570.419C423.195 556.519 395.114 506.977 390.052 488.5C386.264 490.268 382.42 491.92 378.525 493.454Z" fill="#FF2B44"/>
<path d="M352.014 501.879C353.745 519.126 354.789 532.596 355.338 543.019C361.182 545.145 371.404 557.102 388.488 588.227C393.417 586.772 398.303 585.19 403.137 583.485C393.928 568.743 373.422 558.918 364.172 498.504C360.163 499.75 356.108 500.876 352.014 501.879Z" fill="#FF2B44"/>
<path d="M354.193 573.964C353.389 573.477 352.654 573.148 352.02 573.031C348.601 572.414 348.062 577.814 355.205 596.007C360.308 595.118 365.377 594.099 370.407 592.951C368.083 587.915 359.589 577.238 354.193 573.964Z" fill="#FF2B44"/>
<path d="M336.998 504.969C332.816 505.668 328.606 506.24 324.367 506.68C323.449 569.489 307.239 544.324 320.923 599.94C326.155 599.645 331.362 599.212 336.541 598.646C320.065 545.773 339.335 567.762 336.998 504.969Z" fill="#FF2B44"/>
<path d="M295.929 507.666C292.173 536.491 281.794 569.358 275.527 578.658C280.343 583.565 285.399 594.779 285.951 599.853C290.054 600.103 294.147 600.267 298.235 600.35C299.439 600.375 300.641 600.391 301.846 600.4C291.422 538.259 303.763 573.587 308.873 507.704C304.577 507.827 300.259 507.815 295.929 507.666Z" fill="#FF2B44"/>
</g>
<g opacity="0.1">
<path d="M504.634 263.819C570.372 264.547 517.139 261.741 592.802 234.052C591.597 229.013 590.266 224.008 588.809 219.045C516.965 248.945 568.429 247.401 501.871 251.403C502.915 255.506 503.839 259.647 504.634 263.819Z" fill="#FF2B44"/>
<path d="M598.87 267.962C598.246 262.781 597.489 257.628 596.599 252.503C587.74 255.22 477.763 299.34 598.87 267.962Z" fill="#FF2B44"/>
<path d="M506.959 279.092C507.444 283.334 507.798 287.601 508.018 291.888C530.408 295.624 578.995 306.079 601 302.659C600.984 297.382 600.829 292.119 600.536 286.88C578.56 291.321 535.078 281.8 506.959 279.092Z" fill="#FF2B44"/>
<path d="M508.232 307.524C508.125 311.852 507.882 316.192 507.501 320.542C515.723 323.227 528.606 326.726 542.474 329.883C549.841 331.56 557.47 333.138 564.859 334.445C578.156 336.792 590.61 338.266 599.018 337.826C599.637 332.499 600.11 327.182 600.435 321.873C583.956 323.506 571.035 325.087 560.946 326.587C553.761 321.902 537.935 315.654 508.232 307.524Z" fill="#FF2B44"/>
<path d="M502.878 349.423C523.879 360.444 571.281 372.022 592.755 373.161C594.033 367.834 595.155 362.5 596.133 357.17C574.441 357.062 526.553 345.184 505.492 336.349C504.767 340.708 503.896 345.067 502.878 349.423Z" fill="#FF2B44"/>
</g>
<g opacity="0.2">
<path d="M376.141 107.751C380.267 109.405 384.316 111.18 388.29 113.072C396.824 92.0226 413.142 99.9595 402.365 120.439C406.14 122.603 409.834 124.874 413.442 127.25C425.514 108.238 440.218 118.367 426.167 136.323C429.564 138.942 432.872 141.659 436.089 144.468C451.023 128.256 465.108 139.163 447.345 155.053C450.332 158.074 453.224 161.184 456.015 164.369C470.753 153.149 488.887 161.876 465.707 176.276C468.252 179.648 470.696 183.093 473.033 186.604C489.625 178 510.848 187.531 481.044 199.641C483.122 203.31 485.087 207.04 486.942 210.826C504.72 205.12 528.85 216.796 493.167 224.802C494.741 228.712 496.201 232.676 497.542 236.681C564.381 226.757 511.756 235.339 582.969 201.229C581.213 196.376 579.333 191.568 577.33 186.816C462.607 247.964 529.215 194.067 569.55 169.801C567.263 165.179 564.86 160.617 562.343 156.119C459.674 224.018 507.855 173.182 552.715 140.074C549.927 135.734 547.025 131.461 544.02 127.263C452.745 200.83 466.732 171.309 532.637 112.354C529.373 108.339 526.002 104.404 522.532 100.554C443.39 177.655 442.804 158.966 509.485 86.9455C505.773 83.3044 501.963 79.7551 498.056 76.2975C416.696 172.053 430.706 133.185 483.447 64.1628C479.309 60.9425 475.083 57.8202 470.765 54.8056C411.306 139.964 398.275 134.861 454.684 44.3126C450.155 41.5542 445.535 38.9096 440.833 36.3789C389.892 126.681 376.488 122.249 423.382 27.6955C418.478 25.4495 413.489 23.3237 408.424 21.3213C393.768 54.5019 379.437 80.2107 372.347 87.3472C376.835 88.2329 379.932 95.6225 376.141 107.751Z" fill="#FF2B44"/>
<path d="M355.326 100.633C357.171 101.158 359.003 101.708 360.82 102.278C362.362 94.7965 365.166 90.295 368.058 88.3401C366.339 83.5634 371.943 61.5874 389.705 14.6208C386.429 13.5674 383.127 12.5647 379.793 11.6156C377.784 11.0399 375.772 10.4895 373.76 9.95801C364.024 39.7443 350.081 72.0076 343.379 79.1726C346.555 82.3992 348.879 89.3839 347.756 98.621C350.283 99.2443 352.806 99.9117 355.326 100.633Z" fill="#FF2B44"/>
</g>
<g opacity="0.4">
<path d="M220.626 107.612C210.083 92.456 187.479 37.1919 184.01 22.1152C179.273 24.0512 174.59 26.1106 169.963 28.2869C175.838 49.4562 198.041 98.7226 209.149 112.673C212.921 110.87 216.747 109.184 220.626 107.612Z" fill="#FF2B44"/>
<path d="M247.042 98.9403C239.208 83.1614 218.178 26.7173 216.147 11.0586C211.196 12.4505 206.288 13.9689 201.428 15.6139C205.266 37.5993 226.243 87.549 234.925 102.429C238.921 101.145 242.961 99.9811 247.042 98.9403Z" fill="#FF2B44"/>
<path d="M274.622 93.8763C267.106 70.2079 250.284 26.4585 249.555 3.70117C244.437 4.52367 239.35 5.479 234.3 6.56083C236.013 29.1347 254.261 76.1582 262.019 95.7078C266.189 94.9708 270.389 94.3572 274.622 93.8763Z" fill="#FF2B44"/>
<path d="M283.93 0.208984C278.688 0.436725 273.468 0.800519 268.277 1.30036C265.66 125.036 282.633 20.1066 283.93 0.208984Z" fill="#FF2B44"/>
<path d="M354.348 5.51382C348.999 4.4699 343.651 3.57467 338.311 2.82812C327.963 49.9023 321.422 70.964 317.493 78.7807C317.937 82.6242 318.376 87.4736 318.783 93.6105C323.138 94.0502 327.506 94.6323 331.877 95.3567C332.016 82.3995 335.719 77.1072 339.547 77.2053C339.052 69.493 342.982 48.0359 354.348 5.51382Z" fill="#FF2B44"/>
<path d="M303.016 92.6172C296.015 45.0907 302.016 104.094 318.962 0.75918C313.645 0.360568 308.337 0.110711 303.048 0C290.275 107.466 279.176 43.9487 290.089 92.7026C294.378 92.5412 298.689 92.5096 303.016 92.6172Z" fill="#FF2B44"/>
</g>
<path opacity="0.3" d="M280.15 506.519C275.789 506.032 271.421 505.405 267.046 504.636C249.546 574.411 211.088 626.195 251.173 501.211C249.328 500.736 247.48 500.236 245.635 499.711C243.112 498.99 240.614 498.227 238.138 497.424C209.479 572.592 172.176 602.866 222.902 491.812C218.802 490.12 214.775 488.31 210.826 486.384C162.241 579.529 142.082 569.539 196.842 478.89C193.092 476.691 189.424 474.388 185.845 471.981C124.291 562.998 110.632 544.068 173.22 462.791C169.848 460.144 166.568 457.398 163.383 454.56C92.3716 537.716 81.2386 517.413 152.231 443.878C149.273 440.828 146.412 437.696 143.653 434.482C100.606 474.803 80.6425 486.099 80.6803 479.795C79.4566 483.091 76.3344 486.994 70.771 490.958C74.0888 494.934 77.5076 498.829 81.0304 502.637C103.391 484.571 107.579 503.327 94.2512 516.085C98.0138 519.682 101.874 523.187 105.829 526.6C120.961 509.989 134.128 520.912 120.601 538.551C124.787 541.724 129.06 544.799 133.425 547.763C146.185 528.469 159.873 539.434 149.654 558.056C154.231 560.761 158.895 563.352 163.642 565.826C173.507 544.213 188.506 554.267 181.234 574.291C186.179 576.48 191.206 578.542 196.309 580.481C203.544 555.238 219.171 565.889 215.175 586.954C217.162 587.564 219.158 588.156 221.167 588.728C224.498 589.677 227.831 590.57 231.165 591.401C234.01 566.512 251.589 572.054 250.589 595.577C255.935 596.548 261.278 597.368 266.611 598.041C266.046 583.101 267.91 577.239 270.673 576.407C269.976 567.736 272.335 546.523 280.15 506.519Z" fill="#FF2B44"/>
<g opacity="0.6">
<path d="M61.3855 446.985C67.3084 438.02 88.3161 419.093 118.959 398.99C116.915 395.301 114.985 391.553 113.165 387.75C9.03836 448.785 42.1126 406.614 107.069 373.718C105.53 369.789 104.107 365.812 102.805 361.795C46.4396 386.811 67.9329 393.805 19.3198 402.713C21.1396 407.544 23.0792 412.327 25.1387 417.053C44.5221 411.994 64.2367 423.256 33.1336 433.967C35.4769 438.557 37.9369 443.09 40.5104 447.56C50.8486 443.242 58.3768 443.922 61.3855 446.985Z" fill="#FF2B44"/>
<path opacity="0.7" d="M81.2519 477.451C84.6833 469.071 102.925 448.303 134.078 422.49C131.562 419.096 129.152 415.629 126.847 412.099C89.6695 439.873 69.4566 451.312 62.4993 452.318C61.4396 455.706 57.6582 459.733 50.3413 463.484C53.1861 467.79 56.1381 472.026 59.2004 476.189C72.9984 468.106 81.8481 470.811 81.2519 477.451Z" fill="#FF2B44"/>
<path d="M9.08008 370.032C10.3479 375.056 11.7419 380.038 13.262 384.979C55.3593 379.975 21.6512 369.308 9.08008 370.032Z" fill="#FF2B44"/>
<path d="M98.6141 347.028C97.608 342.913 96.7249 338.762 95.968 334.577C30.3621 355.145 19.2827 337.478 2.58008 336.228C3.27077 341.391 4.09079 346.532 5.04325 351.634C33.5948 352.074 31.5385 371.937 98.6141 347.028Z" fill="#FF2B44"/>
<path d="M93.7885 319.273C93.3438 315.024 93.0284 310.751 92.8486 306.455C73.6544 310.099 16.8667 305.095 0 301.605C0.0851254 306.872 0.309077 312.121 0.66862 317.346C32.21 321.978 46.6167 326.621 51.543 330.642C61.6164 327.551 75.367 323.79 93.7885 319.273Z" fill="#FF2B44"/>
</g>
<g opacity="0.6">
<path d="M106.098 224.569C85.3645 221.083 35.7453 199.531 20.1844 188.74C18.2353 193.773 16.4155 198.888 14.7251 204.076C30.6424 213.876 82.3084 235.074 101.783 237.197C103.095 232.914 104.533 228.703 106.098 224.569Z" fill="#FF2B44"/>
<path d="M118.208 198.322C81.5766 187.225 49.5085 169.44 34.8969 156.568C32.4148 161.238 30.0463 165.989 27.8008 170.826C42.8698 182.774 92.1514 205.044 112.308 209.903C114.159 205.961 116.127 202.099 118.208 198.322Z" fill="#FF2B44"/>
<path d="M133.574 174.517C114.311 165.862 66.3283 141.552 53.016 126.902C50.042 131.179 47.172 135.548 44.4155 140.005C58.4122 153.949 110.312 178.896 126.242 184.969C128.585 181.398 131.029 177.912 133.574 174.517Z" fill="#FF2B44"/>
<path d="M143.244 162.585C146.022 159.409 148.892 156.328 151.85 153.345C133.366 141.953 89.783 121.221 74.2346 99.9121C70.8159 103.771 67.4917 107.732 64.2686 111.781C76.9817 127.55 125.516 153.057 143.244 162.585Z" fill="#FF2B44"/>
<path d="M98.2481 75.7656C94.4289 79.1852 90.6978 82.7092 87.0552 86.3281C137.753 164.894 102.03 82.279 98.2481 75.7656Z" fill="#FF2B44"/>
<path d="M162.962 142.943C166.122 140.197 169.364 137.553 172.682 135.009C97.5801 73.6494 158.843 130.052 124.75 54.6406C120.581 57.5889 116.49 60.6478 112.476 63.8112C150.198 138.018 83.965 86.0024 162.962 142.943Z" fill="#FF2B44"/>
<path d="M185.044 126.241C188.539 123.954 192.099 121.772 195.723 119.703C183.373 106.423 160.028 56.2866 153.437 36.7021C148.961 39.1569 144.552 41.7256 140.209 44.4081C151.86 74.476 157.268 92.8995 159.006 103.604C165.308 108.315 173.785 115.556 185.044 126.241Z" fill="#FF2B44"/>
<path d="M92.7892 290.803C92.9374 286.469 93.2244 282.126 93.6502 277.776C63.5721 279.82 18.2801 272.24 1.51115 266.477C0.965544 271.797 0.565012 277.109 0.30957 282.407C17.1573 287.14 73.1976 293.213 92.7892 290.803Z" fill="#FF2B44"/>
<path d="M98.5661 248.892C77.1201 247.677 41.012 247.687 7.28807 231.136C6.0865 236.466 5.03626 241.799 4.13428 247.13C20.736 254.143 74.124 261.975 95.8192 261.966C96.5886 257.607 97.5064 253.248 98.5661 248.892Z" fill="#FF2B44"/>
</g>
</svg>
