<svg width="1920" height="319" viewBox="0 0 1920 319" fill="none" xmlns="http://www.w3.org/2000/svg">
<g clip-path="url(#clip0_3268_17364)">
<path fill-rule="evenodd" clip-rule="evenodd" d="M-610.513 1.77142C-610.455 1.80355 -610.393 1.82972 -610.328 1.8491L-485.595 42.4099H-487.339C-487.859 42.4099 -488.281 42.8326 -488.281 43.354C-488.281 43.8754 -487.859 44.2981 -487.339 44.2981H-479.789L-361.251 82.8445H-370.564C-371.084 82.8445 -371.506 83.2672 -371.506 83.7886C-371.506 84.31 -371.084 84.7327 -370.564 84.7327H-355.444L-242.979 121.304H-259.21C-259.73 121.304 -260.152 121.727 -260.152 122.248C-260.152 122.77 -259.73 123.192 -259.21 123.192H-237.173L-130.142 157.997H-152.965C-153.485 157.997 -153.907 158.419 -153.907 158.941C-153.907 159.462 -153.485 159.885 -152.965 159.885H-124.336L-40.9594 186.997H-56.4166C-56.9368 186.997 -57.3584 187.42 -57.3584 187.941C-57.3584 188.463 -56.9368 188.886 -56.4166 188.886H-35.1527L33.6532 211.26C33.4674 211.433 33.3512 211.679 33.3512 211.953C33.3512 212.474 33.7728 212.897 34.293 212.897H38.6873L135.489 244.375H126.045C125.525 244.375 125.103 244.798 125.103 245.319C125.103 245.841 125.525 246.263 126.045 246.263H141.296L179.6 258.719H134.074C133.553 258.719 133.132 259.142 133.132 259.663C133.132 260.185 133.553 260.608 134.074 260.608H185.407L222.753 272.752H141.998C141.477 272.752 141.056 273.175 141.056 273.696C141.056 274.217 141.477 274.64 141.998 274.64H228.56L257.276 283.978H224.47C223.95 283.978 223.529 284.401 223.529 284.922C223.529 285.444 223.95 285.866 224.47 285.866H263.083L286.045 293.333H229.266C228.746 293.333 228.325 293.756 228.325 294.277C228.325 294.799 228.746 295.222 229.266 295.222H291.852L319.608 304.247H236.461C235.941 304.247 235.519 304.67 235.519 305.191C235.519 305.713 235.941 306.136 236.461 306.136H325.415L342.623 311.731H240.214C239.694 311.731 239.272 312.154 239.272 312.675C239.272 313.197 239.694 313.62 240.214 313.62H348.43L365.318 319.112H312.678C312.157 319.112 311.736 319.534 311.736 320.056C311.736 320.577 312.157 321 312.678 321H371.253C371.267 321 371.281 321 371.296 321H449.763C449.777 321 449.792 321 449.806 321H528.274L528.3 321L528.316 321H606.786C606.799 321 606.811 321 606.824 321H920.725C920.737 321 920.75 321 920.762 321H999.238C999.25 321 999.263 321 999.275 321H1313.18C1313.19 321 1313.2 321 1313.21 321H1391.68C1391.7 321 1391.71 321 1391.73 321H1470.19C1470.21 321 1470.22 321 1470.24 321H1548.7L1548.72 321L1548.75 321H1593.35C1593.87 321 1594.29 320.577 1594.29 320.056C1594.29 319.534 1593.87 319.112 1593.35 319.112H1554.68L1571.57 313.62H1670.4C1670.92 313.62 1671.34 313.197 1671.34 312.675C1671.34 312.154 1670.92 311.731 1670.4 311.731H1577.38L1594.59 306.136H1674.16C1674.68 306.136 1675.1 305.713 1675.1 305.191C1675.1 304.67 1674.68 304.247 1674.16 304.247H1600.39L1628.15 295.222H1678.12C1678.64 295.222 1679.06 294.799 1679.06 294.277C1679.06 293.756 1678.64 293.333 1678.12 293.333H1633.95L1656.92 285.866H1682.81C1683.33 285.866 1683.75 285.444 1683.75 284.922C1683.75 284.401 1683.33 283.978 1682.81 283.978H1662.72L1691.44 274.64H1758.4C1758.92 274.64 1759.34 274.217 1759.34 273.696C1759.34 273.175 1758.92 272.752 1758.4 272.752H1697.25L1734.59 260.608H1766.12C1766.64 260.608 1767.06 260.185 1767.06 259.663C1767.06 259.142 1766.64 258.719 1766.12 258.719H1740.4L1955.15 188.886H1966.3C1966.82 188.886 1967.24 188.463 1967.24 187.941C1967.24 187.42 1966.82 186.997 1966.3 186.997H1960.96L2044.34 159.885H2066.08C2066.6 159.885 2067.03 159.462 2067.03 158.941C2067.03 158.419 2066.6 157.997 2066.08 157.997H2050.14L2157.17 123.192H2173.89C2174.41 123.192 2174.83 122.77 2174.83 122.248C2174.83 121.727 2174.41 121.304 2173.89 121.304H2162.98L2275.44 84.7327H2286.91C2287.43 84.7327 2287.86 84.31 2287.86 83.7886C2287.86 83.2672 2287.43 82.8445 2286.91 82.8445H2281.25L2399.79 44.2981H2405.57C2406.09 44.2981 2406.51 43.8754 2406.51 43.354C2406.51 42.8415 2406.1 42.4245 2405.59 42.4103L2530.32 1.85002C2530.42 1.82306 2530.5 1.78265 2530.58 1.73109C2530.79 1.58859 2530.94 1.36468 2530.98 1.11629C2530.99 1.06003 2531 1.00252 2531 0.944408V0.933214C2531 0.882529 2530.99 0.831426 2530.99 0.780341C2530.97 0.665463 2530.92 0.557719 2530.87 0.461146C2530.73 0.232219 2530.5 0.0659962 2530.23 0.0159368C2530.17 0.0041126 2530.1 -0.00127528 2530.04 0.000255961H2320.72C2320.7 -8.44946e-05 2320.69 -8.61449e-05 2320.67 0.000255961H2111.46C2111.44 -5.8785e-05 2111.43 -6.00842e-05 2111.42 0.000255961H1902.09C1902.08 1.3998e-05 1902.07 1.32897e-05 1902.06 0.000255961H1692.73C1692.72 0.000144306 1692.71 0.000144166 1692.7 0.000255961H1274.01C1274 7.98904e-05 1273.99 8.02488e-05 1273.98 0.000255961H1064.65C1064.63 5.73275e-06 1064.62 7.03171e-06 1064.61 0.000255961H855.391C855.378 7.03171e-06 855.366 5.73275e-06 855.353 0.000255961H646.024C646.014 8.02453e-05 646.003 7.98868e-05 645.993 0.000255961H227.299C227.29 0.000144062 227.282 0.000144203 227.274 0.000255961H17.9427C17.9304 1.3292e-05 17.9182 1.40003e-05 17.9058 0.000255961H-191.313C-191.327 -6.00499e-05 -191.341 -5.87511e-05 -191.355 0.000255961H-400.674C-400.689 -8.61449e-05 -400.703 -8.44946e-05 -400.718 0.000255961H-610.036C-610.104 -0.00132506 -610.171 0.00446941 -610.236 0.0171081C-610.374 0.0436553 -610.502 0.100562 -610.612 0.180648C-610.722 0.260554 -610.815 0.364697 -610.883 0.488463C-610.935 0.582607 -610.971 0.686578 -610.988 0.796886C-611.006 0.907078 -611.003 1.01714 -610.983 1.12267C-610.957 1.26148 -610.9 1.3895 -610.82 1.49954C-610.74 1.60971 -610.636 1.70335 -610.513 1.77142ZM-400.867 1.88849H-604.102L-479.491 42.4099H-292.871L-400.867 1.88849ZM-395.493 1.88849L-287.497 42.4099H-100.153L-191.533 1.88849H-395.493ZM-186.877 1.88849L-95.4969 42.4099H92.4626L17.6852 1.88849H-186.877ZM21.6462 1.88849L96.4237 42.4099H285.152L226.99 1.88849H21.6462ZM230.291 1.88849L288.453 42.4099H477.797L436.265 1.88849H230.291ZM438.965 1.88849L480.498 42.4099H670.4L645.483 1.88849H438.965ZM647.696 1.88849L672.613 42.4099H862.904L854.603 1.88849H647.696ZM856.526 1.88849L864.827 42.4099H1055.17L1063.47 1.88849H856.526ZM1065.4 1.88849L1057.1 42.4099H1247.39L1272.3 1.88849H1065.4ZM1274.52 1.88849L1249.6 42.4099H1439.5L1481.03 1.88849H1274.52ZM1483.74 1.88849L1442.2 42.4099H1631.56L1689.71 1.88849H1483.74ZM1693.01 1.88849L1634.86 42.4099H1823.58L1898.35 1.88849H1693.01ZM1902.31 1.88849L1827.54 42.4099H2015.59L2106.98 1.88849H1902.31ZM2111.64 1.88849L2020.24 42.4099H2207.5L2315.49 1.88849H2111.64ZM2320.87 1.88849L2212.87 42.4099H2399.49L2524.1 1.88849H2320.87ZM-473.684 44.2981H-287.838L-185.106 82.8445H-355.146L-473.684 44.2981ZM2207.84 44.2981H2393.68L2275.15 82.8445H2105.11L2207.84 44.2981ZM2015.99 44.2981H2202.47L2099.73 82.8445H1929.05L2015.99 44.2981ZM1824.05 44.2981H2011.33L1924.39 82.8445H1752.92L1824.05 44.2981ZM1632.15 44.2981H1820.09L1748.96 82.8445H1576.84L1632.15 44.2981ZM1440.27 44.2981H1628.85L1573.54 82.8445H1400.76L1440.27 44.2981ZM1248.44 44.2981H1437.57L1398.06 82.8445H1224.74L1248.44 44.2981ZM1056.71 44.2981H1246.23L1222.52 82.8445H1048.81L1056.71 44.2981ZM865.214 44.2981H1054.79L1046.89 82.8445H873.111L865.214 44.2981ZM673.774 44.2981H863.291L871.188 82.8445H697.477L673.774 44.2981ZM482.433 44.2981H671.562L695.264 82.8445H521.942L482.433 44.2981ZM291.163 44.2981H479.733L519.241 82.8445H346.49L291.163 44.2981ZM99.9083 44.2981H287.862L343.189 82.8445H171.041L99.9083 44.2981ZM-91.2388 44.2981H95.9472L167.08 82.8445H-4.31268L-91.2388 44.2981ZM-282.465 44.2981H-95.895L-8.96887 82.8445H-179.733L-282.465 44.2981ZM-180.074 84.7327H-349.34L-236.875 121.304H-82.6054L-180.074 84.7327ZM-174.701 84.7327H-4.71069L77.7618 121.304H-77.2321L-174.701 84.7327ZM-0.0545654 84.7327L82.418 121.304H238.053L170.564 84.7327H-0.0545654ZM174.526 84.7327L242.014 121.304H398.392L345.899 84.7327H174.526ZM349.2 84.7327L401.692 121.304H558.661L521.177 84.7327H349.2ZM523.877 84.7327L561.361 121.304H718.913L696.425 84.7327H523.877ZM698.638 84.7327L721.126 121.304H879.067L871.575 84.7327H698.638ZM873.497 84.7327L880.99 121.304H1039.01L1046.5 84.7327H873.497ZM1048.43 84.7327L1040.93 121.304H1198.87L1221.36 84.7327H1048.43ZM1223.57 84.7327L1201.09 121.304H1358.64L1396.12 84.7327H1223.57ZM1398.82 84.7327L1361.34 121.304H1518.35L1570.83 84.7327H1398.82ZM1574.13 84.7327L1521.65 121.304H1677.99L1745.47 84.7327H1574.13ZM1749.44 84.7327L1681.95 121.304H1837.65L1920.13 84.7327H1749.44ZM1924.79 84.7327L1842.3 121.304H1997.23L2094.7 84.7327H1924.79ZM2100.07 84.7327L2002.61 121.304H2156.88L2269.34 84.7327H2100.07ZM-231.068 123.192H-77.573L15.186 157.997H-124.038L-231.068 123.192ZM1997.57 123.192H2151.07L2044.04 157.997H1904.81L1997.57 123.192ZM1838.04 123.192H1992.2L1899.44 157.997H1759.55L1838.04 123.192ZM1678.46 123.192H1833.39L1754.89 157.997H1614.24L1678.46 123.192ZM1518.94 123.192H1674.5L1610.27 157.997H1468.99L1518.94 123.192ZM1359.4 123.192H1515.64L1465.69 157.997H1323.73L1359.4 123.192ZM1199.93 123.192H1356.7L1321.03 157.997H1178.52L1199.93 123.192ZM1040.55 123.192H1197.71L1176.31 157.997H1033.42L1040.55 123.192ZM881.376 123.192H1038.62L1031.49 157.997H888.506L881.376 123.192ZM722.287 123.192H879.453L886.583 157.997H743.688L722.287 123.192ZM563.297 123.192H720.074L741.476 157.997H598.97L563.297 123.192ZM404.402 123.192H560.596L596.269 157.997H454.358L404.402 123.192ZM245.498 123.192H401.102L451.058 157.997H309.726L245.498 123.192ZM86.6761 123.192H241.537L305.765 157.997H165.164L86.6761 123.192ZM-72.1996 123.192H82.02L160.507 157.997H20.5594L-72.1996 123.192ZM20.2184 159.885H-118.231L-34.8549 186.997H92.4772L20.2184 159.885ZM25.5918 159.885H164.766L225.907 186.997H97.8506L25.5918 159.885ZM169.422 159.885L230.563 186.997H359.282L309.249 159.885H169.422ZM313.21 159.885L363.243 186.997H492.683L453.768 159.885H313.21ZM457.069 159.885L495.984 186.997H625.994L598.205 159.885H457.069ZM600.905 159.885L628.694 186.997H759.309L742.637 159.885H600.905ZM744.85 159.885L761.521 186.997H892.525L886.97 159.885H744.85ZM888.893 159.885L894.448 186.997H1025.55L1031.11 159.885H888.893ZM1033.03 159.885L1027.48 186.997H1158.48L1175.15 159.885H1033.03ZM1177.36 159.885L1160.69 186.997H1291.31L1319.09 159.885H1177.36ZM1321.8 159.885L1294.01 186.997H1424.08L1462.98 159.885H1321.8ZM1466.28 159.885L1427.38 186.997H1556.76L1606.79 159.885H1466.28ZM1610.75 159.885L1560.72 186.997H1689.48L1750.63 159.885H1610.75ZM1755.29 159.885L1694.14 186.997H1822.15L1894.41 159.885H1755.29ZM1899.78 159.885L1827.52 186.997H1954.85L2038.23 159.885H1899.78ZM-29.0481 188.886H97.5096L156.471 211.009H38.9852L-29.0481 188.886ZM1822.49 188.886H1949.05L1774.97 245.494C1774.98 245.437 1774.98 245.379 1774.98 245.319C1774.98 244.798 1774.56 244.375 1774.04 244.375H1674.6L1708.63 231.607H1784.68C1785.2 231.607 1785.62 231.184 1785.62 230.663C1785.62 230.142 1785.2 229.719 1784.68 229.719H1713.66L1758.5 212.897H1872.36C1872.88 212.897 1873.3 212.474 1873.3 211.953C1873.3 211.431 1872.88 211.009 1872.36 211.009H1763.53L1822.49 188.886ZM1689.88 188.886H1817.12L1758.16 211.009H1639.98L1689.88 188.886ZM1557.23 188.886H1685.22L1635.32 211.009H1516.41L1557.23 188.886ZM1424.67 188.886H1553.27L1512.45 211.009H1392.92L1424.67 188.886ZM1292.07 188.886H1421.37L1389.62 211.009H1269.4L1292.07 188.886ZM1159.53 188.886H1289.37L1266.69 211.009H1145.93L1159.53 188.886ZM1027.09 188.886H1157.32L1143.71 211.009H1022.56L1027.09 188.886ZM894.834 188.886H1025.17L1020.63 211.009H899.366L894.834 188.886ZM762.682 188.886H892.911L897.444 211.009H776.286L762.682 188.886ZM630.63 188.886H760.47L774.073 211.009H653.305L630.63 188.886ZM498.694 188.886H627.929L650.604 211.009H530.448L498.694 188.886ZM366.728 188.886H495.394L527.148 211.009H407.553L366.728 188.886ZM234.821 188.886H362.766L403.592 211.009H284.711L234.821 188.886ZM102.883 188.886H230.165L280.055 211.009H161.845L102.883 188.886ZM161.504 212.897H44.7919L141.593 244.375H245.398L211.369 231.607H120.415C119.895 231.607 119.473 231.184 119.473 230.663C119.473 230.142 119.895 229.719 120.415 229.719H206.337L161.504 212.897ZM166.877 212.897H284.313L322.249 229.719H211.71L166.877 212.897ZM288.97 212.897L326.905 229.719H438.12L407.077 212.897H288.97ZM411.038 212.897L442.081 229.719H554.003L529.858 212.897H411.038ZM533.159 212.897L557.304 229.719H669.781L652.54 212.897H533.159ZM655.24 212.897L672.482 229.719H785.579L775.235 212.897H655.24ZM777.447 212.897L787.791 229.719H901.277L897.83 212.897H777.447ZM899.753 212.897L903.199 229.719H1016.8L1020.25 212.897H899.753ZM1022.17 212.897L1018.72 229.719H1132.21L1142.55 212.897H1022.17ZM1144.77 212.897L1134.42 229.719H1247.52L1264.76 212.897H1144.77ZM1267.46 212.897L1250.22 229.719H1362.77L1386.91 212.897H1267.46ZM1390.21 212.897L1366.07 229.719H1477.92L1508.96 212.897H1390.21ZM1512.92 212.897L1481.88 229.719H1593.12L1631.07 212.897H1512.92ZM1635.72 212.897L1597.78 229.719H1708.29L1753.12 212.897H1635.72ZM263.38 283.978L234.665 274.64H326.059L350.946 283.978H263.38ZM228.858 272.752H321.026L288.66 260.608H191.511L228.858 272.752ZM356.319 283.978L331.432 274.64H423.551L444.609 283.978H356.319ZM326.4 272.752H419.293L391.906 260.608H294.033L326.4 272.752ZM449.265 283.978L428.207 274.64H521.016L538.249 283.978H449.265ZM423.949 272.752H517.532L495.121 260.608H396.562L423.949 272.752ZM542.21 283.978L524.978 274.64H618.48L631.883 283.978H542.21ZM521.493 272.752H615.77L598.339 260.608H499.082L521.493 272.752ZM635.184 283.978L621.781 274.64H715.824L725.395 283.978H635.184ZM619.071 272.752H713.889L701.441 260.608H601.639L619.071 272.752ZM728.096 283.978L718.525 274.64H813.201L818.943 283.978H728.096ZM716.589 272.752H812.04L804.572 260.608H704.142L716.589 272.752ZM821.156 283.978L815.414 274.64H910.479L912.392 283.978H821.156ZM814.253 272.752H910.092L907.604 260.608H806.785L814.253 272.752ZM914.315 283.978L912.402 274.64H1007.6L1005.68 283.978H914.315ZM912.015 272.752H1007.98L1010.47 260.608H909.527L912.015 272.752ZM1007.61 283.978L1009.52 274.64H1104.59L1098.84 283.978H1007.61ZM1009.91 272.752H1105.75L1113.21 260.608H1012.4L1009.91 272.752ZM1101.06 283.978L1106.8 274.64H1201.48L1191.9 283.978H1101.06ZM1107.96 272.752H1203.41L1215.86 260.608H1115.43L1107.96 272.752ZM1194.61 283.978L1204.18 274.64H1298.31L1284.91 283.978H1194.61ZM1206.11 272.752H1301.02L1318.45 260.608H1218.56L1206.11 272.752ZM1288.21 283.978L1301.61 274.64H1395.02L1377.79 283.978H1288.21ZM1304.32 272.752H1398.51L1420.92 260.608H1321.75L1304.32 272.752ZM1381.75 283.978L1398.98 274.64H1491.81L1470.75 283.978H1381.75ZM1402.47 272.752H1496.07L1523.46 260.608H1424.88L1402.47 272.752ZM1475.4 283.978L1496.46 274.64H1588.57L1563.68 283.978H1475.4ZM1500.72 272.752H1593.6L1625.97 260.608H1528.11L1500.72 272.752ZM1569.05 283.978L1593.94 274.64H1685.34L1656.62 283.978H1569.05ZM1598.97 272.752H1691.14L1728.49 260.608H1631.34L1598.97 272.752ZM1734.3 258.719L1772.6 246.263H1669.57L1636.37 258.719H1734.3ZM1631 258.719L1664.2 246.263H1560.47L1532.37 258.719H1631ZM1527.72 258.719L1555.81 246.263H1451.35L1428.36 258.719H1527.72ZM1424.4 258.719L1447.39 246.263H1342.33L1324.46 258.719H1424.4ZM1321.16 258.719L1339.03 246.263H1233.26L1220.49 258.719H1321.16ZM1217.79 258.719L1230.56 246.263H1124.25L1116.59 258.719H1217.79ZM1114.38 258.719L1122.04 246.263H1015.33L1012.78 258.719H1114.38ZM1010.86 258.719L1013.41 246.263H906.589L909.141 258.719H1010.86ZM907.218 258.719L904.666 246.263H797.965L805.624 258.719H907.218ZM803.411 258.719L795.752 246.263H689.439L702.206 258.719H803.411ZM699.506 258.719L686.739 246.263H581.05L598.929 258.719H699.506ZM595.628 258.719L577.75 246.263H472.612L495.597 258.719H595.628ZM491.636 258.719L468.65 246.263H364.214L392.304 258.719H491.636ZM387.647 258.719L359.558 246.263H255.804L289.001 258.719H387.647ZM283.627 258.719L250.43 246.263H147.4L185.705 258.719H283.627ZM250.771 244.375H355.3L326.507 231.607H216.743L250.771 244.375ZM359.956 244.375H465.166L441.604 231.607H331.163L359.956 244.375ZM469.127 244.375H575.04L556.714 231.607H445.565L469.127 244.375ZM578.34 244.375H684.804L671.717 231.607H560.014L578.34 244.375ZM687.504 244.375H794.591L786.74 231.607H674.418L687.504 244.375ZM796.803 244.375H904.279L901.663 231.607H788.952L796.803 244.375ZM906.202 244.375H1013.8L1016.41 231.607H903.586L906.202 244.375ZM1015.72 244.375H1123.2L1131.05 231.607H1018.34L1015.72 244.375ZM1125.41 244.375H1232.5L1245.58 231.607H1133.26L1125.41 244.375ZM1235.2 244.375H1341.74L1360.06 231.607H1248.28L1235.2 244.375ZM1345.04 244.375H1450.87L1474.43 231.607H1363.36L1345.04 244.375ZM1454.83 244.375H1560.07L1588.87 231.607H1478.4L1454.83 244.375ZM1564.73 244.375H1669.23L1703.26 231.607H1593.52L1564.73 244.375ZM371.423 319.112L354.534 313.62H429.945L444.582 319.112H371.423ZM348.727 311.731H424.912L409.999 306.136H331.519L348.727 311.731ZM449.955 319.112L435.318 313.62H511.453L523.838 319.112H449.955ZM430.286 311.731H507.195L494.576 306.136H415.372L430.286 311.731ZM528.494 319.112L516.109 313.62H592.948L603.083 319.112H528.494ZM511.851 311.731H589.464L579.138 306.136H499.232L511.851 311.731ZM607.044 319.112L596.909 313.62H674.429L682.311 319.112H607.044ZM593.425 311.731H671.718L663.687 306.136H583.099L593.425 311.731ZM685.612 319.112L677.729 313.62H755.776L761.405 319.112H685.612ZM675.019 311.731H753.841L748.105 306.136H666.987L675.019 311.731ZM764.106 319.112L758.477 313.62H837.17L840.547 319.112H764.106ZM756.541 311.731H836.009L832.568 306.136H750.806L756.541 311.731ZM842.76 319.112L839.383 313.62H918.464L919.59 319.112H842.76ZM838.222 311.731H918.078L916.931 306.136H834.781L838.222 311.731ZM921.513 319.112L920.387 313.62H999.612L998.487 319.112H921.513ZM920.001 311.731H999.999L1001.15 306.136H918.854L920.001 311.731ZM1000.41 319.112L1001.54 313.62H1080.62L1077.24 319.112H1000.41ZM1001.92 311.731H1081.78L1085.22 306.136H1003.07L1001.92 311.731ZM1079.45 319.112L1082.83 313.62H1161.52L1155.89 319.112H1079.45ZM1083.99 311.731H1163.46L1169.19 306.136H1087.43L1083.99 311.731ZM1158.59 319.112L1164.22 313.62H1242.37L1234.49 319.112H1158.59ZM1166.16 311.731H1245.08L1253.11 306.136H1171.89L1166.16 311.731ZM1237.79 319.112L1245.67 313.62H1323.09L1312.96 319.112H1237.79ZM1248.38 311.731H1326.57L1336.9 306.136H1256.41L1248.38 311.731ZM1316.92 319.112L1327.05 313.62H1403.89L1391.51 319.112H1316.92ZM1330.54 311.731H1408.15L1420.77 306.136H1340.86L1330.54 311.731ZM1396.16 319.112L1408.55 313.62H1484.68L1470.04 319.112H1396.16ZM1412.81 311.731H1489.71L1504.63 306.136H1425.43L1412.81 311.731ZM1475.42 319.112L1490.06 313.62H1565.47L1548.58 319.112H1475.42ZM1495.09 311.731H1571.27L1588.48 306.136H1510L1495.09 311.731ZM1594.29 304.247L1622.04 295.222H1539.09L1515.03 304.247H1594.29ZM1509.66 304.247L1533.72 295.222H1450.04L1429.69 304.247H1509.66ZM1425.03 304.247L1445.39 295.222H1361L1344.35 304.247H1425.03ZM1340.39 304.247L1357.04 295.222H1272.07L1259.12 304.247H1340.39ZM1255.82 304.247L1268.77 295.222H1183.08L1173.83 304.247H1255.82ZM1171.13 304.247L1180.38 295.222H1094.14L1088.59 304.247H1171.13ZM1086.38 304.247L1091.93 295.222H1005.3L1003.46 304.247H1086.38ZM1001.53 304.247L1003.38 295.222H916.618L918.468 304.247H1001.53ZM916.545 304.247L914.696 295.222H828.07L833.62 304.247H916.545ZM831.407 304.247L825.857 295.222H739.62L748.871 304.247H831.407ZM746.17 304.247L736.919 295.222H651.322L664.277 304.247H746.17ZM660.976 304.247L648.021 295.222H562.958L579.614 304.247H660.976ZM575.653 304.247L558.997 295.222H474.62L494.974 304.247H575.653ZM490.318 304.247L469.964 295.222H386.285L410.34 304.247H490.318ZM404.966 304.247L380.911 295.222H297.956L325.713 304.247H404.966ZM292.15 293.333H375.879L355.978 285.866H269.187L292.15 293.333ZM381.252 293.333H465.706L448.867 285.866H361.352L381.252 293.333ZM470.362 293.333H555.512L541.733 285.866H453.523L470.362 293.333ZM559.474 293.333H645.311L634.594 285.866H545.694L559.474 293.333ZM648.612 293.333H734.984L727.33 285.866H637.894L648.612 293.333ZM737.684 293.333H824.696L820.104 285.866H730.031L737.684 293.333ZM826.908 293.333H914.309L912.779 285.866H822.317L826.908 293.333ZM916.232 293.333H1003.77L1005.3 285.866H914.702L916.232 293.333ZM1005.69 293.333H1093.09L1097.68 285.866H1007.22L1005.69 293.333ZM1095.3 293.333H1182.32L1189.97 285.866H1099.9L1095.3 293.333ZM1185.02 293.333H1271.48L1282.2 285.866H1192.67L1185.02 293.333ZM1274.78 293.333H1360.53L1374.31 285.866H1285.5L1274.78 293.333ZM1364.49 293.333H1449.65L1466.49 285.866H1378.27L1364.49 293.333ZM1454.3 293.333H1538.75L1558.65 285.866H1471.14L1454.3 293.333ZM1544.12 293.333H1627.85L1650.81 285.866H1564.02L1544.12 293.333Z" fill="url(#paint0_radial_3268_17364)"/>
</g>
<defs>
<radialGradient id="paint0_radial_3268_17364" cx="0" cy="0" r="1" gradientUnits="userSpaceOnUse" gradientTransform="translate(960.09 160.028) rotate(-90) scale(160.028 1007.73)">
<stop stop-color="#D1D7DF"/>
<stop offset="1" stop-color="#D1D7DF" stop-opacity="0"/>
</radialGradient>
<clipPath id="clip0_3268_17364">
<rect width="1920" height="319" fill="white"/>
</clipPath>
</defs>
</svg>
