<svg width="326" height="326" viewBox="0 0 326 326" fill="none" xmlns="http://www.w3.org/2000/svg">
<g filter="url(#filter0_b_627_4457)">
<path d="M1.42499e-05 163C2.21199e-05 72.9776 72.9776 -2.21199e-05 163 -1.42499e-05C253.022 -6.3799e-06 326 72.9776 326 163C326 253.022 253.022 326 163 326C72.9776 326 6.3799e-06 253.022 1.42499e-05 163Z" fill="white" fill-opacity="0.12"/>
</g>
<path fill-rule="evenodd" clip-rule="evenodd" d="M163 62.4833C107.486 62.4833 62.4834 107.486 62.4834 163C62.4833 218.514 107.486 263.517 163 263.517C218.514 263.517 263.517 218.514 263.517 163C263.517 107.486 218.514 62.4833 163 62.4833ZM163 -1.42499e-05C72.9776 -2.21199e-05 2.21199e-05 72.9776 1.42499e-05 163C6.3799e-06 253.022 72.9776 326 163 326C253.022 326 326 253.022 326 163C326 72.9776 253.022 -6.3799e-06 163 -1.42499e-05Z" fill="#FF2B44"/>
<path d="M77.0828 43.056L83.5051 39.7133L96.1547 55.1023L96.3494 55.004L92.2626 35.1906L98.6849 31.8479L112.113 46.8437L112.308 46.7453L107.394 27.3743L113.864 24.0805L120.359 53.8731L113.937 57.2158L99.4896 41.4882L103.622 62.5251L97.1028 65.868L77.0828 43.056Z" fill="white"/>
<path d="M125.727 21.9003L134.625 19.8736L151.186 46.3643L143.942 47.9958L141.23 43.499L129.61 46.1192L129.015 51.4066L121.77 53.0381L125.727 21.9003ZM138.422 38.8066L131.934 27.8576L131.545 27.9564L130.205 40.6361L138.422 38.8066Z" fill="white"/>
<path d="M153.131 23.7964L144.82 24.1577L144.591 17.8444L168.26 16.8611L168.489 23.1744L160.178 23.5358L161.05 46.7825L154.003 47.0431L153.131 23.7964Z" fill="white"/>
<path d="M169.783 31.5407C171.262 22.2379 177.396 17.3296 185.946 18.6808C192.407 19.6941 197.161 23.7947 196.463 31.5296L189.662 30.4681C189.427 26.7978 187.39 25.1383 184.718 24.7038C179.86 23.9316 177.567 27.9013 176.827 32.6506C176.088 37.3999 177.001 41.8518 181.957 42.6238C184.628 43.0582 187.06 42.0739 188.38 38.5958L195.182 39.6573C193.464 47.2476 187.675 49.7568 181.117 48.7437C172.712 47.4412 168.304 40.9414 169.783 31.5407Z" fill="white"/>
<path d="M214.315 45.6833L204.604 41.8875L200.254 53.0078L193.748 50.4773L204.549 22.8971L211.056 25.4276L206.755 36.4009L216.466 40.1967L220.767 29.2234L227.322 31.8027L216.569 59.3338L210.014 56.7545L214.315 45.6833Z" fill="white"/>
<path d="M256.679 51.5591L263.469 57.7109L251.644 86.8107L246.115 81.8308L248.215 76.9805L239.388 69.0714L234.814 71.7247L229.334 66.7936L256.679 51.5591ZM250.365 71.8854L255.445 60.1272L255.154 59.8342L244.157 66.2218L250.365 71.8854Z" fill="white"/>
<path d="M274.96 69.481L282.034 79.4498C285.909 84.9228 285.317 89.1334 281.666 91.7357C278.989 93.6506 276.803 93.4108 274.474 91.7519C276.116 96.1532 274.895 99.1416 272.023 101.253C268.177 104.051 263.075 103.72 258.473 97.2208L251.061 86.8123L274.96 69.481ZM263.147 93.4905C264.987 96.1294 266.98 95.8801 268.441 94.8001C269.95 93.6709 270.877 91.8579 269.036 89.219L265.839 84.7233L259.949 88.9948L263.147 93.4905ZM272.299 86.1282C273.123 87.252 274.579 88.0319 276.429 86.7551C278.181 85.4786 277.844 83.8642 277.069 82.6913L274.26 78.6842L269.489 82.121L272.299 86.1282Z" fill="white"/>
<path d="M278.295 99.7211C286.419 96.2277 294.286 98.853 297.67 106.872C301.054 114.892 297.489 122.486 289.317 126.029C281.193 129.522 273.278 126.848 269.894 118.828C266.51 110.809 270.172 103.214 278.295 99.7211ZM275.488 116.418C277.277 120.672 281.649 121.347 286.465 119.232C291.378 117.116 293.816 113.489 292.076 109.283C290.335 105.078 286.061 104.304 281.148 106.42C276.235 108.536 273.699 112.163 275.488 116.418Z" fill="white"/>
<path d="M286.683 130.342L304.623 127.12L305.822 134.116L288.418 137.19C284.528 137.884 282.822 140.188 283.398 143.417C283.974 146.646 286.255 148.158 290.193 147.513L307.597 144.439L308.797 151.534L290.857 154.756C283.078 156.143 278.569 151.7 277.37 144.605C276.122 137.364 278.905 131.729 286.683 130.342Z" fill="white"/>
<path d="M302.642 165.644L302.903 157.274L309.123 157.455L308.341 181.293L302.121 181.111L302.383 172.741L279.301 172.059L279.559 164.961L302.642 165.644Z" fill="white"/>
<path d="M286.579 199.305L303.574 205.727L301.032 212.389L284.522 206.162C280.784 204.751 278.205 205.882 277.081 208.968C275.956 212.054 277.166 214.548 280.807 215.959L297.317 222.187L294.774 228.947L277.78 222.524C270.399 219.702 268.809 213.588 271.351 206.828C273.942 199.921 279.198 196.483 286.579 199.305Z" fill="white"/>
<path d="M275.443 224.39L271.444 230.566C269.308 229.298 266.878 229.401 264.83 232.538C263.221 235.038 263.216 237.192 265.012 238.313C266.419 239.24 267.733 238.699 269.535 236.884L272.506 233.794C275.624 230.458 279.662 228.051 284.224 231.075C289.174 234.294 288.918 239.924 285.212 245.707C281.457 251.54 276.349 253.852 271.06 250.389L275.058 244.213C277.145 245.726 279.091 244.449 280.457 242.39C282.115 239.841 281.39 238.13 280.225 237.349C279.303 236.715 277.943 236.62 276.287 238.288L273.607 241.084C268.347 246.48 264.652 247.075 260.964 244.636C255.481 241.076 256.369 234.907 259.978 229.221C264.172 222.849 269.765 220.634 275.443 224.39Z" fill="white"/>
<path d="M248.918 282.945L242.495 286.287L229.846 270.898L229.651 270.996L233.738 290.81L227.316 294.153L213.887 279.157L213.693 279.255L218.607 298.626L212.136 301.92L205.642 272.127L212.064 268.785L226.511 284.512L222.378 263.475L228.898 260.132L248.918 282.945Z" fill="white"/>
<path d="M200.273 304.1L191.376 306.127L174.814 279.636L182.059 278.005L184.77 282.502L196.391 279.881L196.986 274.594L204.23 272.962L200.273 304.1ZM187.579 287.194L194.066 298.143L194.455 298.044L195.796 285.364L187.579 287.194Z" fill="white"/>
<path d="M172.869 302.204L181.18 301.843L181.409 308.156L157.74 309.139L157.511 302.826L165.822 302.465L164.95 279.218L171.997 278.957L172.869 302.204Z" fill="white"/>
<path d="M156.217 294.459C154.739 303.762 148.605 308.67 140.054 307.319C133.593 306.306 128.84 302.205 129.537 294.47L136.339 295.532C136.573 299.202 138.611 300.862 141.283 301.296C146.141 302.068 148.434 298.099 149.173 293.349C149.913 288.6 148.999 284.148 144.044 283.376C141.372 282.942 138.94 283.926 137.62 287.404L130.819 286.343C132.537 278.752 138.325 276.243 144.884 277.256C153.288 278.559 157.696 285.059 156.217 294.459Z" fill="white"/>
<path d="M111.685 280.317L121.396 284.112L125.746 272.992L132.253 275.523L121.451 303.103L114.945 300.572L119.246 289.599L109.535 285.803L105.234 296.777L98.679 294.197L109.432 266.666L115.986 269.245L111.685 280.317Z" fill="white"/>
<path d="M69.3212 274.441L62.5313 268.289L74.3564 239.189L79.8855 244.169L77.785 249.019L86.6121 256.929L91.1862 254.275L96.6667 259.206L69.3212 274.441ZM75.6354 254.115L70.5552 265.873L70.8461 266.166L81.8433 259.778L75.6354 254.115Z" fill="white"/>
<path d="M51.04 256.52L43.967 246.551C40.0913 241.078 40.6839 236.867 44.3344 234.265C47.0115 232.35 49.1979 232.59 51.5269 234.249C49.8843 229.847 51.1059 226.859 53.9778 224.748C57.8232 221.949 62.9252 222.28 67.5275 228.78L74.9398 239.188L51.04 256.52ZM62.8539 232.51C61.0131 229.871 59.02 230.12 57.5597 231.2C56.0507 232.33 55.1233 234.143 56.9641 236.781L60.1616 241.277L66.0513 237.006L62.8539 232.51ZM53.7013 239.872C52.8776 238.748 51.4214 237.969 49.5719 239.245C47.8195 240.522 48.1561 242.136 48.9311 243.309L51.7408 247.316L56.511 243.879L53.7013 239.872Z" fill="white"/>
<path d="M47.7053 226.279C39.5818 229.773 31.7148 227.147 28.3308 219.128C24.9468 211.109 28.5113 203.514 36.6835 199.972C44.807 196.479 52.7224 199.153 56.1064 207.172C59.4904 215.191 55.8288 222.786 47.7053 226.279ZM50.5124 209.583C48.7237 205.329 44.3515 204.653 39.5357 206.769C34.6226 208.885 32.1847 212.512 33.9249 216.717C35.665 220.923 39.9399 221.696 44.8529 219.58C49.7659 217.465 52.301 213.837 50.5124 209.583Z" fill="white"/>
<path d="M39.3172 195.659L21.3776 198.881L20.1783 191.884L37.5829 188.811C41.4722 188.117 43.1783 185.812 42.6023 182.583C42.0263 179.354 39.7456 177.842 35.8077 178.487L18.4031 181.561L17.2039 174.467L35.1435 171.245C42.9221 169.857 47.4318 174.301 48.631 181.395C49.8784 188.636 47.0959 194.271 39.3172 195.659Z" fill="white"/>
<path d="M23.3583 160.357L23.0967 168.727L16.8767 168.545L17.6586 144.707L23.8787 144.889L23.6171 153.259L46.6993 153.941L46.4405 161.039L23.3583 160.357Z" fill="white"/>
<path d="M39.4217 126.696L22.4269 120.273L24.9688 113.611L41.478 119.839C45.2169 121.25 47.795 120.118 48.9196 117.032C50.0442 113.946 48.8348 111.453 45.1932 110.042L28.6839 103.814L31.226 97.0537L48.2208 103.476C55.6013 106.298 57.1914 112.413 54.6494 119.173C52.0584 126.08 46.8022 129.518 39.4217 126.696Z" fill="white"/>
<path d="M50.5578 101.611L54.5565 95.4349C56.692 96.7026 59.1221 96.5993 61.1701 93.4622C62.7794 90.9624 62.7842 88.8088 60.9886 87.6871C59.5813 86.7603 58.268 87.3017 56.4659 89.1167L53.4946 92.2069C50.3769 95.5422 46.338 97.9496 41.7766 94.9253C36.8268 91.7061 37.0823 86.0769 40.7885 80.293C44.5435 74.4602 49.6513 72.1483 54.9408 75.6114L50.942 81.7875C48.8557 80.2749 46.909 81.5518 45.5437 83.6106C43.8857 86.1594 44.6109 87.8709 45.7755 88.6514C46.6974 89.2856 48.0579 89.3804 49.714 87.7125L52.393 84.9166C57.6535 79.5209 61.3482 78.9252 65.0362 81.3641C70.5198 84.9247 69.6313 91.0938 66.0225 96.7795C61.829 103.152 56.2354 105.367 50.5578 101.611Z" fill="white"/>
<defs>
<filter id="filter0_b_627_4457" x="-16" y="-16" width="358" height="358" filterUnits="userSpaceOnUse" color-interpolation-filters="sRGB">
<feFlood flood-opacity="0" result="BackgroundImageFix"/>
<feGaussianBlur in="BackgroundImageFix" stdDeviation="8"/>
<feComposite in2="SourceAlpha" operator="in" result="effect1_backgroundBlur_627_4457"/>
<feBlend mode="normal" in="SourceGraphic" in2="effect1_backgroundBlur_627_4457" result="shape"/>
</filter>
</defs>
</svg>
