<svg width="172" height="172" viewBox="0 0 172 172" fill="none" xmlns="http://www.w3.org/2000/svg">
<g filter="url(#filter0_b_4451_1663)">
<path d="M172 86C172 133.496 133.496 172 86 172C38.5035 172 0 133.496 0 86C0 38.5035 38.5035 0 86 0C133.496 0 172 38.5035 172 86Z" fill="white" fill-opacity="0.12"/>
</g>
<path fill-rule="evenodd" clip-rule="evenodd" d="M86 139.033C115.289 139.033 139.033 115.289 139.033 86C139.033 56.7105 115.289 32.9667 86 32.9667C56.7105 32.9667 32.9667 56.7105 32.9667 86C32.9667 115.289 56.7105 139.033 86 139.033ZM86 172C133.496 172 172 133.496 172 86C172 38.5035 133.496 0 86 0C38.5035 0 0 38.5035 0 86C0 133.496 38.5035 172 86 172Z" fill="#FF2B44"/>
<path d="M131.331 149.283L127.942 151.047L121.268 142.928L121.165 142.98L123.322 153.433L119.933 155.197L112.848 147.285L112.746 147.337L115.338 157.557L111.924 159.295L108.498 143.576L111.886 141.813L119.509 150.111L117.328 139.011L120.768 137.248L131.331 149.283Z" fill="white"/>
<path d="M105.665 160.446L100.971 161.515L92.2328 147.538L96.0551 146.677L97.4857 149.05L103.617 147.667L103.931 144.878L107.753 144.017L105.665 160.446ZM98.9673 151.526L102.39 157.302L102.596 157.25L103.303 150.56L98.9673 151.526Z" fill="white"/>
<path d="M91.2068 159.445L95.5917 159.254L95.7125 162.585L83.2245 163.104L83.1037 159.773L87.4886 159.582L87.0287 147.317L90.7468 147.18L91.2068 159.445Z" fill="white"/>
<path d="M82.4209 155.359C81.6407 160.267 78.4043 162.857 73.8932 162.144C70.4842 161.609 67.9763 159.446 68.3443 155.365L71.9327 155.925C72.0566 157.861 73.1316 158.737 74.5413 158.966C77.1044 159.373 78.3141 157.279 78.7043 154.773C79.0945 152.267 78.6125 149.919 75.9981 149.511C74.5884 149.282 73.3053 149.801 72.6089 151.637L69.0205 151.076C69.9268 147.072 72.9809 145.748 76.4412 146.282C80.8754 146.97 83.2011 150.399 82.4209 155.359Z" fill="white"/>
<path d="M58.9255 147.897L64.0491 149.9L66.3441 144.033L69.7769 145.368L64.0781 159.919L60.6453 158.584L62.9145 152.795L57.7909 150.792L55.5217 156.582L52.0633 155.221L57.7364 140.695L61.1948 142.056L58.9255 147.897Z" fill="white"/>
<path d="M36.5736 144.797L32.9912 141.551L39.2302 126.198L42.1474 128.826L41.0392 131.385L45.6964 135.558L48.1097 134.158L51.0013 136.759L36.5736 144.797ZM39.905 134.073L37.2247 140.277L37.3782 140.431L43.1803 137.061L39.905 134.073Z" fill="white"/>
<path d="M26.9281 135.342L23.1963 130.082C21.1515 127.194 21.4641 124.973 23.3902 123.6C24.8027 122.589 25.9562 122.716 27.185 123.591C26.3184 121.269 26.9629 119.692 28.4781 118.579C30.507 117.102 33.1988 117.277 35.6271 120.706L39.5378 126.197L26.9281 135.342ZM33.1612 122.674C32.19 121.282 31.1384 121.413 30.368 121.983C29.5718 122.579 29.0825 123.535 30.0537 124.928L31.7407 127.3L34.8482 125.046L33.1612 122.674ZM28.3322 126.558C27.8976 125.965 27.1293 125.554 26.1535 126.228C25.229 126.901 25.4066 127.753 25.8154 128.372L27.2979 130.486L29.8147 128.673L28.3322 126.558Z" fill="white"/>
<path d="M25.1695 119.387C20.8835 121.23 16.7329 119.845 14.9474 115.614C13.162 111.383 15.0427 107.376 19.3544 105.507C23.6404 103.664 27.8166 105.074 29.6021 109.305C31.3875 113.537 29.4556 117.544 25.1695 119.387ZM26.6506 110.578C25.7069 108.333 23.4001 107.977 20.8592 109.093C18.267 110.209 16.9808 112.123 17.8989 114.342C18.817 116.56 21.0725 116.969 23.6646 115.852C26.2568 114.736 27.5943 112.822 26.6506 110.578Z" fill="white"/>
<path d="M20.7431 103.231L11.2781 104.931L10.6453 101.24L19.8281 99.6178C21.8801 99.2517 22.7802 98.0359 22.4763 96.3322C22.1724 94.6286 20.9691 93.8308 18.8915 94.1711L9.70866 95.7929L9.07597 92.0499L18.541 90.35C22.6451 89.6177 25.0244 91.9623 25.6571 95.7053C26.3153 99.5257 24.8472 102.499 20.7431 103.231Z" fill="white"/>
<path d="M12.3231 84.6054L12.1851 89.0216L8.9034 88.9257L9.31594 76.3486L12.5977 76.4446L12.4597 80.8607L24.638 81.2206L24.5015 84.9653L12.3231 84.6054Z" fill="white"/>
<path d="M20.799 66.8455L11.8325 63.457L13.1736 59.9419L21.884 63.2277C23.8566 63.9722 25.2169 63.3752 25.8102 61.7469C26.4036 60.1187 25.7655 58.8031 23.8441 58.0586L15.1337 54.7728L16.4749 51.2061L25.4415 54.5946C29.3355 56.0836 30.1745 59.3097 28.8333 62.8764C27.4662 66.5206 24.6931 68.3345 20.799 66.8455Z" fill="white"/>
<path d="M26.6739 53.6106L28.7836 50.3521C29.9103 51.021 31.1925 50.9664 32.273 49.3113C33.1221 47.9924 33.1246 46.8561 32.1772 46.2643C31.4347 45.7753 30.7418 46.061 29.791 47.0186L28.2233 48.649C26.5784 50.4087 24.4475 51.6789 22.0408 50.0832C19.4293 48.3847 19.5641 45.4147 21.5195 42.3631C23.5007 39.2857 26.1956 38.0659 28.9864 39.8931L26.8766 43.1516C25.7758 42.3536 24.7487 43.0273 24.0284 44.1135C23.1536 45.4583 23.5362 46.3613 24.1507 46.773C24.6371 47.1077 25.3549 47.1577 26.2287 46.2777L27.6421 44.8026C30.4176 41.9557 32.367 41.6415 34.3128 42.9283C37.206 44.8069 36.7372 48.0617 34.8332 51.0615C32.6206 54.4236 29.6694 55.5923 26.6739 53.6106Z" fill="white"/>
<path d="M40.6684 22.7166L44.0568 20.9529L50.7309 29.0723L50.8336 29.0204L48.6774 18.5667L52.0658 16.8031L59.1506 24.715L59.2533 24.6631L56.6606 14.4428L60.0747 12.7049L63.5012 28.4238L60.1127 30.1874L52.4904 21.8894L54.6708 32.9886L51.2311 34.7524L40.6684 22.7166Z" fill="white"/>
<path d="M66.3338 11.5547L71.0283 10.4854L79.7662 24.4621L75.9439 25.3229L74.5133 22.9503L68.3822 24.3328L68.0684 27.1224L64.246 27.9832L66.3338 11.5547ZM73.0317 20.4746L69.6087 14.6978L69.4035 14.7499L68.6964 21.4398L73.0317 20.4746Z" fill="white"/>
<path d="M80.7923 12.555L76.4074 12.7457L76.2865 9.41472L88.7745 8.89593L88.8953 12.2269L84.5104 12.4175L84.9703 24.6827L81.2522 24.8202L80.7923 12.555Z" fill="white"/>
<path d="M89.5782 16.6412C90.3583 11.7329 93.5947 9.14329 98.1058 9.85618C101.515 10.3908 104.023 12.5543 103.655 16.6353L100.066 16.0752C99.9424 14.1388 98.8675 13.2632 97.4577 13.0339C94.8946 12.6265 93.6849 14.721 93.2947 17.2267C92.9045 19.7325 93.3865 22.0814 96.0009 22.4887C97.4106 22.7179 98.6938 22.1985 99.3901 20.3635L102.979 20.9235C102.072 24.9282 99.0181 26.2521 95.5578 25.7176C91.1236 25.0304 88.7979 21.6011 89.5782 16.6412Z" fill="white"/>
<path d="M113.074 24.1029L107.95 22.1002L105.655 27.9673L102.222 26.6322L107.921 12.0807L111.354 13.4158L109.085 19.2054L114.208 21.2081L116.477 15.4185L119.936 16.7793L114.263 31.305L110.804 29.9441L113.074 24.1029Z" fill="white"/>
<path d="M135.425 27.2031L139.008 30.4488L132.769 45.802L129.852 43.1746L130.96 40.6156L126.303 36.4426L123.889 37.8426L120.998 35.2409L135.425 27.2031ZM132.094 37.9274L134.774 31.7237L134.621 31.5691L128.819 34.9392L132.094 37.9274Z" fill="white"/>
<path d="M145.071 36.6585L148.803 41.9181C150.848 44.8057 150.535 47.0272 148.609 48.4002C147.196 49.4105 146.043 49.284 144.814 48.4088C145.681 50.7309 145.036 52.3076 143.521 53.4215C141.492 54.898 138.8 54.7233 136.372 51.2942L132.461 45.8026L145.071 36.6585ZM138.838 49.3261C139.809 50.7183 140.861 50.5869 141.631 50.017C142.427 49.4213 142.917 48.4647 141.945 47.0724L140.258 44.7004L137.151 46.9541L138.838 49.3261ZM143.667 45.4416C144.101 46.0346 144.87 46.4461 145.845 45.7724C146.77 45.0989 146.592 44.2472 146.184 43.6283L144.701 41.5141L142.184 43.3275L143.667 45.4416Z" fill="white"/>
<path d="M146.83 52.6136C151.116 50.7704 155.267 52.1555 157.053 56.3866C158.838 60.6176 156.957 64.6245 152.646 66.4935C148.36 68.3367 144.183 66.9258 142.398 62.6947C140.613 58.4637 142.544 54.4567 146.83 52.6136ZM145.349 61.4227C146.293 63.6673 148.6 64.0236 151.141 62.9075C153.733 61.7912 155.019 59.8774 154.101 57.6586C153.183 55.4398 150.928 55.0317 148.335 56.148C145.743 57.2643 144.406 59.1782 145.349 61.4227Z" fill="white"/>
<path d="M151.256 68.7692L160.721 67.0693L161.354 70.7607L152.171 72.3824C150.119 72.7486 149.219 73.9643 149.523 75.668C149.827 77.3717 151.03 78.1695 153.108 77.8291L162.29 76.2073L162.923 79.9503L153.458 81.6502C149.354 82.3825 146.975 80.0379 146.342 76.2949C145.684 72.4745 147.152 69.5015 151.256 68.7692Z" fill="white"/>
<path d="M159.676 87.3948L159.814 82.9787L163.096 83.0746L162.683 95.6516L159.401 95.5557L159.539 91.1396L147.361 90.7796L147.498 87.0349L159.676 87.3948Z" fill="white"/>
<path d="M151.2 105.155L160.167 108.543L158.825 112.058L150.115 108.772C148.142 108.028 146.782 108.625 146.189 110.253C145.595 111.881 146.234 113.197 148.155 113.941L156.865 117.227L155.524 120.794L146.558 117.405C142.664 115.916 141.825 112.69 143.166 109.124C144.533 105.479 147.306 103.666 151.2 105.155Z" fill="white"/>
<path d="M145.325 118.39L143.215 121.648C142.089 120.979 140.807 121.034 139.726 122.689C138.877 124.008 138.874 125.144 139.822 125.736C140.564 126.225 141.257 125.939 142.208 124.982L143.776 123.351C145.421 121.592 147.552 120.321 149.958 121.917C152.57 123.615 152.435 126.586 150.479 129.637C148.498 132.715 145.803 133.934 143.013 132.107L145.122 128.849C146.223 129.647 147.25 128.973 147.971 127.887C148.845 126.542 148.463 125.639 147.848 125.227C147.362 124.893 146.644 124.843 145.77 125.723L144.357 127.198C141.581 130.045 139.632 130.359 137.686 129.072C134.793 127.193 135.262 123.939 137.166 120.939C139.378 117.577 142.33 116.408 145.325 118.39Z" fill="white"/>
<defs>
<filter id="filter0_b_4451_1663" x="-16" y="-16" width="204" height="204" filterUnits="userSpaceOnUse" color-interpolation-filters="sRGB">
<feFlood flood-opacity="0" result="BackgroundImageFix"/>
<feGaussianBlur in="BackgroundImageFix" stdDeviation="8"/>
<feComposite in2="SourceAlpha" operator="in" result="effect1_backgroundBlur_4451_1663"/>
<feBlend mode="normal" in="SourceGraphic" in2="effect1_backgroundBlur_4451_1663" result="shape"/>
</filter>
</defs>
</svg>
