<svg width="336" height="336" viewBox="0 0 336 336" fill="none" xmlns="http://www.w3.org/2000/svg">
<circle cx="167.5" cy="167.5" r="138.891" stroke="#282829" stroke-width="8"/>
<g filter="url(#filter0_i_4502_17122)">
<rect x="156.796" width="4.16276" height="15.2006" rx="2.08138" fill="#FF2B44"/>
<rect width="4.09034" height="14.2651" rx="2.04517" transform="matrix(0.966192 0.257825 -0.259816 0.965658 201.271 3.33032)" fill="#FF2B44"/>
<rect width="4.08726" height="14.2759" rx="2.04363" transform="matrix(0.866916 0.498454 -0.501547 0.86513 242.844 17.5884)" fill="#FF2B44"/>
<rect width="4.08305" height="14.2907" rx="2.04153" transform="matrix(0.708563 0.705647 -0.708563 0.705647 279.292 42.0767)" fill="#FF2B44"/>
<rect width="4.07884" height="14.3054" rx="2.03942" transform="matrix(0.501547 0.86513 -0.866916 0.498454 308.134 75.1248)" fill="#FF2B44"/>
<rect width="4.07576" height="14.3162" rx="2.03788" transform="matrix(0.259816 0.965658 -0.966192 0.257825 327.407 114.477)" fill="#FF2B44"/>
<rect x="335.795" y="157.535" width="4.14563" height="13.8759" rx="2.07281" transform="rotate(90 335.795 157.535)" fill="#FF2B44"/>
<rect width="4.07576" height="14.3162" rx="2.03788" transform="matrix(-0.259816 0.965658 -0.966192 -0.257825 332.727 201.139)" fill="#696B74"/>
<rect width="4.07884" height="14.3054" rx="2.03942" transform="matrix(-0.501547 0.86513 -0.866916 -0.498454 318.411 242.541)" fill="#696B74"/>
<rect width="4.08305" height="14.2907" rx="2.04153" transform="matrix(-0.708563 0.705647 -0.708563 -0.705647 293.822 278.839)" fill="#696B74"/>
<rect width="4.08726" height="14.2759" rx="2.04363" transform="matrix(-0.866916 0.498454 -0.501547 -0.86513 260.64 307.564)" fill="#696B74"/>
<rect width="4.09034" height="14.2651" rx="2.04517" transform="matrix(-0.966192 0.257825 -0.259816 -0.965658 221.121 326.759)" fill="#696B74"/>
<rect x="177.612" y="335.795" width="4.16276" height="15.2006" rx="2.08138" transform="rotate(-180 177.612 335.795)" fill="#696B74"/>
<rect width="4.09034" height="14.2651" rx="2.04517" transform="matrix(-0.966192 -0.257825 0.259816 -0.965658 134.102 332.057)" fill="#696B74"/>
<rect width="4.08726" height="14.2759" rx="2.04363" transform="matrix(-0.866916 -0.498454 0.501547 -0.86513 92.5283 317.799)" fill="#696B74"/>
<rect width="4.08305" height="14.2907" rx="2.04153" transform="matrix(-0.708563 -0.705647 0.708563 -0.705647 56.0791 293.312)" fill="#696B74"/>
<rect width="4.07884" height="14.3054" rx="2.03942" transform="matrix(-0.501547 -0.86513 0.866916 -0.498454 27.2354 260.269)" fill="#696B74"/>
<rect width="4.07576" height="14.3162" rx="2.03788" transform="matrix(-0.259816 -0.965658 0.966191 -0.257825 7.96289 220.912)" fill="#696B74"/>
<rect y="178.26" width="4.14563" height="13.8759" rx="2.07281" transform="rotate(-90 0 178.26)" fill="#696B74"/>
<rect width="4.07576" height="14.3162" rx="2.03788" transform="matrix(0.259816 -0.965658 0.966191 0.257825 2.64355 134.25)" fill="#696B74"/>
<rect width="4.07884" height="14.3054" rx="2.03942" transform="matrix(0.501547 -0.86513 0.866916 0.498454 16.959 92.8481)" fill="#696B74"/>
<rect width="4.08305" height="14.2907" rx="2.04153" transform="matrix(0.708563 -0.705647 0.708563 0.705647 41.5479 56.5486)" fill="#696B74"/>
<rect width="4.08726" height="14.2759" rx="2.04363" transform="matrix(0.866916 -0.498454 0.501547 0.86513 74.7305 27.8232)" fill="#696B74"/>
<rect width="4.09034" height="14.2651" rx="2.04517" transform="matrix(0.966191 -0.257825 0.259816 0.965658 114.248 8.62842)" fill="#696B74"/>
</g>
<defs>
<filter id="filter0_i_4502_17122" x="0" y="0" width="335.795" height="337.795" filterUnits="userSpaceOnUse" color-interpolation-filters="sRGB">
<feFlood flood-opacity="0" result="BackgroundImageFix"/>
<feBlend mode="normal" in="SourceGraphic" in2="BackgroundImageFix" result="shape"/>
<feColorMatrix in="SourceAlpha" type="matrix" values="0 0 0 0 0 0 0 0 0 0 0 0 0 0 0 0 0 0 127 0" result="hardAlpha"/>
<feOffset dy="2"/>
<feGaussianBlur stdDeviation="1"/>
<feComposite in2="hardAlpha" operator="arithmetic" k2="-1" k3="1"/>
<feColorMatrix type="matrix" values="0 0 0 0 0 0 0 0 0 0 0 0 0 0 0 0 0 0 0.25 0"/>
<feBlend mode="normal" in2="shape" result="effect1_innerShadow_4502_17122"/>
</filter>
</defs>
</svg>
