<svg width="335" height="335" viewBox="0 0 335 335" fill="none" xmlns="http://www.w3.org/2000/svg">
<g filter="url(#filter0_i_4502_17120)">
<rect x="156.425" width="4.15289" height="15.1646" rx="2.07645" fill="#FF2B44"/>
<rect width="4.08065" height="14.2313" rx="2.04032" transform="matrix(0.966192 0.257825 -0.259816 0.965658 200.793 3.32275)" fill="#FF2B44"/>
<rect width="4.07758" height="14.2421" rx="2.03879" transform="matrix(0.866916 0.498454 -0.501547 0.86513 242.267 17.5471)" fill="#FF2B44"/>
<rect width="4.07338" height="14.2568" rx="2.03669" transform="matrix(0.708563 0.705647 -0.708563 0.705647 278.628 41.9775)" fill="#FF2B44"/>
<rect width="4.06918" height="14.2715" rx="2.03459" transform="matrix(0.501547 0.86513 -0.866916 0.498454 307.404 74.9458)" fill="#FF2B44"/>
<rect width="4.0661" height="14.2823" rx="2.03305" transform="matrix(0.259816 0.965658 -0.966192 0.257825 326.633 114.205)" fill="#FF2B44"/>
<rect x="335" y="157.162" width="4.1358" height="13.843" rx="2.0679" transform="rotate(90 335 157.162)" fill="#FF2B44"/>
<rect width="4.0661" height="14.2823" rx="2.03305" transform="matrix(-0.259816 0.965658 -0.966192 -0.257825 331.938 200.662)" fill="#FF2B44"/>
<rect width="4.06918" height="14.2715" rx="2.03459" transform="matrix(-0.501547 0.86513 -0.866916 -0.498454 317.657 241.967)" fill="#FF2B44"/>
<rect width="4.07338" height="14.2568" rx="2.03669" transform="matrix(-0.708563 0.705647 -0.708563 -0.705647 293.127 278.179)" fill="#FF2B44"/>
<rect width="4.07758" height="14.2421" rx="2.03879" transform="matrix(-0.866916 0.498454 -0.501547 -0.86513 260.021 306.836)" fill="#FF2B44"/>
<rect width="4.08065" height="14.2313" rx="2.04032" transform="matrix(-0.966192 0.257825 -0.259816 -0.965658 220.598 325.986)" fill="#FF2B44"/>
<rect x="177.19" y="335" width="4.15289" height="15.1646" rx="2.07645" transform="rotate(-180 177.19 335)" fill="#FF2B44"/>
<rect width="4.08065" height="14.2313" rx="2.04032" transform="matrix(-0.966192 -0.257825 0.259816 -0.965658 133.784 331.271)" fill="#FF2B44"/>
<rect width="4.07758" height="14.2421" rx="2.03879" transform="matrix(-0.866916 -0.498454 0.501547 -0.86513 92.3105 317.045)" fill="#FF2B44"/>
<rect width="4.07338" height="14.2568" rx="2.03669" transform="matrix(-0.708563 -0.705647 0.708563 -0.705647 55.9463 292.618)" fill="#FF2B44"/>
<rect width="4.06918" height="14.2715" rx="2.03459" transform="matrix(-0.501547 -0.86513 0.866916 -0.498454 27.1709 259.652)" fill="#FF2B44"/>
<rect width="4.0661" height="14.2823" rx="2.03305" transform="matrix(-0.259816 -0.965658 0.966191 -0.257825 7.94434 220.388)" fill="#FF2B44"/>
<rect y="177.838" width="4.1358" height="13.843" rx="2.0679" transform="rotate(-90 0 177.838)" fill="#FF2B44"/>
<rect width="4.0661" height="14.2823" rx="2.03305" transform="matrix(0.259816 -0.965658 0.966191 0.257825 2.6377 133.932)" fill="#FF2B44"/>
<rect width="4.06918" height="14.2715" rx="2.03459" transform="matrix(0.501547 -0.86513 0.866916 0.498454 16.9189 92.6272)" fill="#FF2B44"/>
<rect width="4.07338" height="14.2568" rx="2.03669" transform="matrix(0.708563 -0.705647 0.708563 0.705647 41.4492 56.4155)" fill="#FF2B44"/>
<rect width="4.07758" height="14.2421" rx="2.03879" transform="matrix(0.866916 -0.498454 0.501547 0.86513 74.5537 27.7578)" fill="#FF2B44"/>
<rect width="4.08065" height="14.2313" rx="2.04032" transform="matrix(0.966191 -0.257825 0.259816 0.965658 113.977 8.6084)" fill="#FF2B44"/>
</g>
<circle cx="167.897" cy="167.898" r="139.23" stroke="#282829" stroke-width="8"/>
<defs>
<filter id="filter0_i_4502_17120" x="0" y="0" width="335" height="337" filterUnits="userSpaceOnUse" color-interpolation-filters="sRGB">
<feFlood flood-opacity="0" result="BackgroundImageFix"/>
<feBlend mode="normal" in="SourceGraphic" in2="BackgroundImageFix" result="shape"/>
<feColorMatrix in="SourceAlpha" type="matrix" values="0 0 0 0 0 0 0 0 0 0 0 0 0 0 0 0 0 0 127 0" result="hardAlpha"/>
<feOffset dy="2"/>
<feGaussianBlur stdDeviation="1"/>
<feComposite in2="hardAlpha" operator="arithmetic" k2="-1" k3="1"/>
<feColorMatrix type="matrix" values="0 0 0 0 0 0 0 0 0 0 0 0 0 0 0 0 0 0 0.25 0"/>
<feBlend mode="normal" in2="shape" result="effect1_innerShadow_4502_17120"/>
</filter>
</defs>
</svg>
