<svg width="423" height="423" viewBox="0 0 423 423" fill="none" xmlns="http://www.w3.org/2000/svg">
<circle cx="211" cy="211" r="176" stroke="#282829" stroke-width="8"/>
<g filter="url(#filter0_i_2775_14172)">
<rect x="197.516" width="5.24383" height="19.1483" rx="2.62192" fill="#FF2B44"/>
<rect width="5.15261" height="17.9698" rx="2.5763" transform="matrix(0.966192 0.257825 -0.259816 0.965658 253.541 4.19531)" fill="#FF2B44"/>
<rect width="5.14873" height="17.9834" rx="2.57436" transform="matrix(0.866916 0.498454 -0.501547 0.86513 305.91 22.1562)" fill="#FF2B44"/>
<rect width="5.14343" height="18.002" rx="2.57171" transform="matrix(0.708563 0.705647 -0.708563 0.705647 351.824 53.0039)" fill="#FF2B44"/>
<rect width="5.13812" height="18.0206" rx="2.56906" transform="matrix(0.501547 0.86513 -0.866916 0.498454 388.156 94.6348)" fill="#FF2B44"/>
<rect width="5.13424" height="18.0341" rx="2.56712" transform="matrix(0.259816 0.965658 -0.966192 0.257825 412.436 144.207)" fill="#FF2B44"/>
<rect x="423.002" y="198.447" width="5.22225" height="17.4794" rx="2.61113" transform="rotate(90 423.002 198.447)" fill="#FF2B44"/>
<rect width="5.13424" height="18.0341" rx="2.56712" transform="matrix(-0.259816 0.965658 -0.966192 -0.257825 419.137 253.375)" fill="#696B74"/>
<rect width="5.13812" height="18.0206" rx="2.56906" transform="matrix(-0.501547 0.86513 -0.866916 -0.498454 401.104 305.529)" fill="#696B74"/>
<rect width="5.14343" height="18.002" rx="2.57171" transform="matrix(-0.708563 0.705647 -0.708563 -0.705647 370.129 351.254)" fill="#696B74"/>
<rect width="5.14873" height="17.9834" rx="2.57436" transform="matrix(-0.866916 0.498454 -0.501547 -0.86513 328.328 387.439)" fill="#696B74"/>
<rect width="5.15261" height="17.9698" rx="2.5763" transform="matrix(-0.966192 0.257825 -0.259816 -0.965658 278.547 411.619)" fill="#696B74"/>
<rect x="223.738" y="423.002" width="5.24383" height="19.1483" rx="2.62192" transform="rotate(-180 223.738 423.002)" fill="#696B74"/>
<rect width="5.15261" height="17.9698" rx="2.5763" transform="matrix(-0.966192 -0.257825 0.259816 -0.965658 168.928 418.293)" fill="#696B74"/>
<rect width="5.14873" height="17.9834" rx="2.57436" transform="matrix(-0.866916 -0.498454 0.501547 -0.86513 116.559 400.332)" fill="#696B74"/>
<rect width="5.14343" height="18.002" rx="2.57171" transform="matrix(-0.708563 -0.705647 0.708563 -0.705647 70.6426 369.486)" fill="#696B74"/>
<rect width="5.13812" height="18.0206" rx="2.56906" transform="matrix(-0.501547 -0.86513 0.866916 -0.498454 34.3086 327.861)" fill="#696B74"/>
<rect width="5.13424" height="18.0341" rx="2.56712" transform="matrix(-0.259816 -0.965658 0.966191 -0.257825 10.0312 278.283)" fill="#696B74"/>
<rect y="224.555" width="5.22225" height="17.4794" rx="2.61113" transform="rotate(-90 0 224.555)" fill="#696B74"/>
<rect width="5.13424" height="18.0341" rx="2.56712" transform="matrix(0.259816 -0.965658 0.966191 0.257825 3.33008 169.115)" fill="#696B74"/>
<rect width="5.13812" height="18.0206" rx="2.56906" transform="matrix(0.501547 -0.86513 0.866916 0.498454 21.3633 116.961)" fill="#696B74"/>
<rect width="5.14343" height="18.002" rx="2.57171" transform="matrix(0.708563 -0.705647 0.708563 0.705647 52.3379 71.2344)" fill="#696B74"/>
<rect width="5.14873" height="17.9834" rx="2.57436" transform="matrix(0.866916 -0.498454 0.501547 0.86513 94.1387 35.0488)" fill="#696B74"/>
<rect width="5.15261" height="17.9698" rx="2.5763" transform="matrix(0.966191 -0.257825 0.259816 0.965658 143.918 10.8691)" fill="#696B74"/>
</g>
<defs>
<filter id="filter0_i_2775_14172" x="0" y="0" width="423.002" height="425.002" filterUnits="userSpaceOnUse" color-interpolation-filters="sRGB">
<feFlood flood-opacity="0" result="BackgroundImageFix"/>
<feBlend mode="normal" in="SourceGraphic" in2="BackgroundImageFix" result="shape"/>
<feColorMatrix in="SourceAlpha" type="matrix" values="0 0 0 0 0 0 0 0 0 0 0 0 0 0 0 0 0 0 127 0" result="hardAlpha"/>
<feOffset dy="2"/>
<feGaussianBlur stdDeviation="1"/>
<feComposite in2="hardAlpha" operator="arithmetic" k2="-1" k3="1"/>
<feColorMatrix type="matrix" values="0 0 0 0 0 0 0 0 0 0 0 0 0 0 0 0 0 0 0.25 0"/>
<feBlend mode="normal" in2="shape" result="effect1_innerShadow_2775_14172"/>
</filter>
</defs>
</svg>
