<svg width="421" height="421" viewBox="0 0 421 421" fill="none" xmlns="http://www.w3.org/2000/svg">
<circle cx="211" cy="211" r="176" stroke="#282829" stroke-width="8"/>
<g filter="url(#filter0_i_2775_14173)">
<rect x="196.582" width="5.21901" height="19.0576" rx="2.6095" fill="#FF2B44"/>
<rect width="5.12821" height="17.8848" rx="2.56411" transform="matrix(0.966192 0.257825 -0.259816 0.965658 252.34 4.17578)" fill="#FF2B44"/>
<rect width="5.12436" height="17.8983" rx="2.56218" transform="matrix(0.866916 0.498454 -0.501547 0.86513 304.461 22.0527)" fill="#FF2B44"/>
<rect width="5.11908" height="17.9168" rx="2.55954" transform="matrix(0.708563 0.705647 -0.708563 0.705647 350.156 52.7539)" fill="#FF2B44"/>
<rect width="5.1138" height="17.9352" rx="2.5569" transform="matrix(0.501547 0.86513 -0.866916 0.498454 386.32 94.1855)" fill="#FF2B44"/>
<rect width="5.10993" height="17.9487" rx="2.55497" transform="matrix(0.259816 0.965658 -0.966192 0.257825 410.484 143.523)" fill="#FF2B44"/>
<rect x="421" y="197.508" width="5.19753" height="17.3967" rx="2.59877" transform="rotate(90 421 197.508)" fill="#FF2B44"/>
<rect width="5.10993" height="17.9487" rx="2.55497" transform="matrix(-0.259816 0.965658 -0.966192 -0.257825 417.152 252.176)" fill="#FF2B44"/>
<rect width="5.1138" height="17.9352" rx="2.5569" transform="matrix(-0.501547 0.86513 -0.866916 -0.498454 399.205 304.082)" fill="#FF2B44"/>
<rect width="5.11908" height="17.9168" rx="2.55954" transform="matrix(-0.708563 0.705647 -0.708563 -0.705647 368.377 349.592)" fill="#FF2B44"/>
<rect width="5.12436" height="17.8983" rx="2.56218" transform="matrix(-0.866916 0.498454 -0.501547 -0.86513 326.774 385.605)" fill="#FF2B44"/>
<rect width="5.12821" height="17.8848" rx="2.56411" transform="matrix(-0.966192 0.257825 -0.259816 -0.965658 277.23 409.672)" fill="#FF2B44"/>
<rect x="222.678" y="421" width="5.21901" height="19.0576" rx="2.6095" transform="rotate(-180 222.678 421)" fill="#FF2B44"/>
<rect width="5.12821" height="17.8848" rx="2.56411" transform="matrix(-0.966192 -0.257825 0.259816 -0.965658 168.129 416.314)" fill="#696B74"/>
<rect width="5.12436" height="17.8983" rx="2.56218" transform="matrix(-0.866916 -0.498454 0.501547 -0.86513 116.008 398.436)" fill="#696B74"/>
<rect width="5.11908" height="17.9168" rx="2.55954" transform="matrix(-0.708563 -0.705647 0.708563 -0.705647 70.3086 367.738)" fill="#696B74"/>
<rect width="5.1138" height="17.9352" rx="2.5569" transform="matrix(-0.501547 -0.86513 0.866916 -0.498454 34.1465 326.309)" fill="#696B74"/>
<rect width="5.10993" height="17.9487" rx="2.55497" transform="matrix(-0.259816 -0.965658 0.966191 -0.257825 9.98438 276.965)" fill="#696B74"/>
<rect y="223.492" width="5.19753" height="17.3967" rx="2.59877" transform="rotate(-90 0 223.492)" fill="#696B74"/>
<rect width="5.10993" height="17.9487" rx="2.55497" transform="matrix(0.259816 -0.965658 0.966191 0.257825 3.31445 168.314)" fill="#696B74"/>
<rect width="5.1138" height="17.9352" rx="2.5569" transform="matrix(0.501547 -0.86513 0.866916 0.498454 21.2617 116.406)" fill="#696B74"/>
<rect width="5.11908" height="17.9168" rx="2.55954" transform="matrix(0.708563 -0.705647 0.708563 0.705647 52.0898 70.8984)" fill="#696B74"/>
<rect width="5.12436" height="17.8983" rx="2.56218" transform="matrix(0.866916 -0.498454 0.501547 0.86513 93.6914 34.8848)" fill="#696B74"/>
<rect width="5.12821" height="17.8848" rx="2.56411" transform="matrix(0.966191 -0.257825 0.259816 0.965658 143.238 10.8184)" fill="#696B74"/>
</g>
<defs>
<filter id="filter0_i_2775_14173" x="0" y="0" width="421" height="423" filterUnits="userSpaceOnUse" color-interpolation-filters="sRGB">
<feFlood flood-opacity="0" result="BackgroundImageFix"/>
<feBlend mode="normal" in="SourceGraphic" in2="BackgroundImageFix" result="shape"/>
<feColorMatrix in="SourceAlpha" type="matrix" values="0 0 0 0 0 0 0 0 0 0 0 0 0 0 0 0 0 0 127 0" result="hardAlpha"/>
<feOffset dy="2"/>
<feGaussianBlur stdDeviation="1"/>
<feComposite in2="hardAlpha" operator="arithmetic" k2="-1" k3="1"/>
<feColorMatrix type="matrix" values="0 0 0 0 0 0 0 0 0 0 0 0 0 0 0 0 0 0 0.25 0"/>
<feBlend mode="normal" in2="shape" result="effect1_innerShadow_2775_14173"/>
</filter>
</defs>
</svg>
