<svg width="274" height="216" viewBox="0 0 274 216" fill="none" xmlns="http://www.w3.org/2000/svg">
<g style="mix-blend-mode:luminosity">
<path d="M37.9266 101.844C37.1069 101.174 36.1255 100.655 35.0172 100.297C32.3964 99.4774 29.8565 99.639 27.6514 100.609C26.3814 101.163 25.2731 101.925 24.3264 102.872C23.3797 103.818 22.6292 104.927 22.0866 106.197C21.5325 107.467 21.2554 108.829 21.2554 110.237C21.2554 111.681 21.5325 113.054 22.0982 114.324C22.6523 115.594 23.4143 116.703 24.361 117.649C25.3077 118.596 26.4161 119.335 27.686 119.878C28.956 120.409 30.3183 120.686 31.7268 120.686C32.9044 120.686 34.0128 120.524 35.0056 120.201C35.9985 119.878 36.9683 119.347 37.8919 118.619L37.9266 118.596V120.212H42.1983V94.9517H37.9266V101.844ZM31.7268 104.003C32.6851 104.003 33.551 104.199 34.3014 104.569C35.0634 104.95 35.7099 105.446 36.2525 106.047C36.7836 106.647 37.2108 107.328 37.4994 108.067C37.788 108.806 37.9381 109.533 37.9381 110.237C37.9381 111.103 37.7649 111.935 37.4417 112.685C37.1069 113.447 36.6566 114.105 36.0793 114.659C35.5136 115.213 34.844 115.652 34.1051 115.964C32.5812 116.599 30.7686 116.576 29.3023 115.929C28.5173 115.606 27.8592 115.156 27.2935 114.602C26.7393 114.047 26.2891 113.378 25.9658 112.627C25.6425 111.865 25.4809 111.069 25.4809 110.249C25.4809 109.337 25.6541 108.494 26.0004 107.732C26.3468 106.97 26.8086 106.312 27.3743 105.769C27.94 105.227 28.6096 104.788 29.3716 104.476C30.1336 104.165 30.9302 104.003 31.7268 104.003Z" fill="#16387B"/>
<path d="M62.4269 102.531C61.5033 101.607 60.395 100.856 59.1597 100.314C57.9128 99.7712 56.5505 99.4941 55.1073 99.4941C53.6411 99.4941 52.2672 99.7828 51.0088 100.337C49.7504 100.891 48.6536 101.665 47.73 102.634C46.8179 103.593 46.079 104.724 45.5595 105.994C45.04 107.264 44.7744 108.626 44.7744 110.035C44.7744 111.386 45.0515 112.69 45.5941 113.914C46.1367 115.138 46.8872 116.223 47.8108 117.147C48.7344 118.07 49.8312 118.821 51.0434 119.363C52.2672 119.906 53.5718 120.183 54.9226 120.183C55.7423 120.183 56.5736 120.091 57.4163 119.906C58.2707 119.721 59.1135 119.398 59.9447 118.959C60.776 118.521 61.5726 117.932 62.323 117.227C63.0735 116.523 63.7546 115.611 64.3319 114.549L64.4243 114.387L60.6144 112.633L60.5335 112.76C59.887 113.764 59.1019 114.572 58.2245 115.138C57.3471 115.704 56.2965 115.992 55.0958 115.992C54.5647 115.992 53.9874 115.9 53.3755 115.704C52.7637 115.519 52.1749 115.23 51.6322 114.849C51.0896 114.468 50.5932 114.006 50.1545 113.452C49.7273 112.91 49.4156 112.263 49.2424 111.536L49.2308 111.478H65.3479L65.371 111.339C65.394 111.189 65.4171 110.947 65.4287 110.577C65.4402 110.22 65.4518 109.966 65.4518 109.827C65.4518 108.407 65.1862 107.056 64.6436 105.821C64.101 104.562 63.3621 103.466 62.4269 102.531ZM53.4333 103.893C53.9874 103.743 54.5532 103.662 55.1073 103.662C55.8693 103.662 56.5505 103.766 57.1508 103.985C57.7512 104.193 58.2822 104.482 58.744 104.816C59.1943 105.163 59.5868 105.555 59.8986 105.971C60.2103 106.398 60.4758 106.837 60.6721 107.287H49.5426C49.8081 106.71 50.1314 106.202 50.5124 105.763C50.9164 105.301 51.3667 104.92 51.8516 104.609C52.348 104.285 52.8791 104.043 53.4333 103.893Z" fill="#16387B"/>
<path d="M82.87 102.057C82.0849 101.261 81.1613 100.637 80.1107 100.175C79.0601 99.725 77.9171 99.4941 76.7049 99.4941C76.0006 99.4941 75.2387 99.6096 74.4421 99.8289C73.6339 100.048 72.9181 100.372 72.3062 100.764L72.2254 100.822V99.4941H68.0229V120.195H72.2254V108.303C72.2254 107.668 72.3408 107.056 72.5717 106.49C72.8026 105.925 73.1259 105.428 73.53 105.013C73.9341 104.597 74.419 104.262 74.9731 104.031C76.0699 103.57 77.3861 103.57 78.4713 104.043C79.0139 104.285 79.4988 104.62 79.9029 105.024C80.307 105.428 80.6303 105.925 80.8612 106.49C81.0921 107.056 81.2075 107.657 81.2075 108.303V120.183H85.3753V108.303C85.3753 107.091 85.1559 105.936 84.7057 104.863C84.267 103.789 83.6551 102.854 82.87 102.057Z" fill="#16387B"/>
<path d="M96.0665 115.729C95.7433 115.579 95.4662 115.371 95.2237 115.117C94.9813 114.863 94.7966 114.563 94.6696 114.24C94.5426 113.916 94.4733 113.582 94.4733 113.235V103.491H98.3987V99.2195H94.4733V94.4282H90.2362V99.2195H87.373V103.491H90.2362V113.178C90.2362 114.113 90.421 115.013 90.7789 115.868C91.1368 116.71 91.6448 117.461 92.2797 118.107C92.9147 118.754 93.6536 119.273 94.4849 119.643C95.3161 120.024 96.2166 120.209 97.1518 120.209H99.9803V115.96H97.1287C96.7477 115.96 96.3898 115.879 96.0665 115.729Z" fill="#16387B"/>
<path d="M118.385 102.035L118.351 102C117.519 101.377 116.607 100.88 115.649 100.534C114.691 100.188 113.548 99.9914 112.255 99.9683C110.835 99.9683 109.484 100.234 108.226 100.776C106.967 101.307 105.859 102.058 104.935 103.005C104.012 103.951 103.261 105.06 102.73 106.318C102.199 107.577 101.922 108.916 101.922 110.313C101.922 111.71 102.187 113.049 102.73 114.284C103.261 115.531 104 116.639 104.912 117.575C105.836 118.521 106.932 119.272 108.191 119.814C109.449 120.357 110.812 120.634 112.255 120.634C113.352 120.634 114.425 120.461 115.441 120.103C116.457 119.757 117.415 119.26 118.27 118.637L118.374 118.556V120.184H122.576V101.527H118.374V102.035H118.385ZM116.526 105.879C117.092 106.41 117.554 107.057 117.877 107.807C118.212 108.558 118.374 109.389 118.374 110.301C118.374 111.098 118.224 111.883 117.923 112.61C117.623 113.349 117.196 114.007 116.665 114.573C116.134 115.139 115.476 115.6 114.725 115.947C113.975 116.293 113.121 116.466 112.209 116.466C111.435 116.466 110.662 116.316 109.934 116.016C109.195 115.716 108.537 115.289 107.972 114.746C107.406 114.203 106.944 113.545 106.598 112.783C106.251 112.033 106.078 111.19 106.078 110.301C106.078 109.458 106.24 108.65 106.563 107.9C106.886 107.161 107.337 106.503 107.902 105.96C108.468 105.418 109.138 104.979 109.888 104.644C110.627 104.321 111.424 104.159 112.243 104.159C113.04 104.159 113.825 104.309 114.552 104.609C115.303 104.921 115.961 105.348 116.526 105.879Z" fill="#16387B"/>
<path d="M129.778 94.4282H125.506V120.185H129.778V94.4282Z" fill="#16387B"/>
<path d="M150.087 99.358H144.245L136.914 107.116V94.4282H132.677V120.185H136.914V113.305L138.115 112.035L145.78 120.139L145.827 120.185H151.669L141.035 108.929L150.087 99.358Z" fill="#16387B"/>
<path d="M168.939 102.141C168.004 101.206 166.884 100.444 165.614 99.9012C164.344 99.3586 162.971 99.0815 161.539 99.0815C160.096 99.0815 158.722 99.3586 157.464 99.9012C156.194 100.444 155.074 101.206 154.139 102.141C153.203 103.088 152.441 104.208 151.899 105.466C151.356 106.736 151.079 108.11 151.079 109.541C151.079 110.985 151.356 112.358 151.899 113.64C152.441 114.921 153.192 116.053 154.139 117.011C155.085 117.969 156.194 118.754 157.464 119.32C158.734 119.886 160.107 120.175 161.551 120.175C162.994 120.175 164.368 119.886 165.638 119.32C166.907 118.754 168.027 117.969 168.963 117.011C169.898 116.053 170.66 114.91 171.202 113.64C171.745 112.358 172.022 110.985 172.022 109.541C172.022 108.098 171.745 106.724 171.202 105.466C170.637 104.208 169.886 103.088 168.939 102.141ZM161.539 115.787C160.488 115.787 159.565 115.591 158.78 115.187C157.983 114.783 157.325 114.263 156.806 113.64C156.286 113.017 155.893 112.335 155.651 111.608C155.409 110.881 155.293 110.188 155.316 109.541C155.293 108.906 155.42 108.214 155.686 107.486C155.951 106.759 156.355 106.089 156.875 105.478C157.394 104.866 158.064 104.358 158.849 103.954C159.634 103.55 160.558 103.353 161.574 103.353C162.393 103.353 163.19 103.515 163.929 103.838C164.679 104.161 165.337 104.612 165.903 105.177C166.469 105.743 166.931 106.413 167.265 107.175C167.6 107.925 167.762 108.745 167.762 109.588C167.762 110.407 167.6 111.204 167.288 111.954C166.977 112.693 166.538 113.363 165.984 113.929C165.43 114.494 164.76 114.956 164.01 115.291C163.259 115.614 162.428 115.787 161.539 115.787Z" fill="#16387B"/>
<path d="M185.889 99.8875C185.474 99.7836 185.035 99.6912 184.608 99.6219C183.349 99.4372 182.068 99.5065 180.936 99.8528C180.232 100.072 179.551 100.372 178.916 100.753L178.801 100.823V99.518H174.598V120.184H178.801V108.304C178.801 107.669 178.916 107.057 179.147 106.514C179.378 105.96 179.701 105.475 180.094 105.048C180.486 104.633 180.971 104.298 181.514 104.055C182.068 103.813 182.668 103.686 183.303 103.686C183.396 103.686 183.557 103.697 183.8 103.709C184.031 103.72 184.215 103.744 184.365 103.79L184.504 103.824L185.889 100.58V103.686H196.88L185.924 116.455L185.889 116.501V120.172H202.722V115.97H191.87L202.687 103.374L202.734 103.328V99.4834H185.889V99.8875Z" fill="#16387B"/>
<path d="M207.077 94.4282C206.361 94.4282 205.76 94.6707 205.287 95.144C204.814 95.6289 204.571 96.2293 204.571 96.9335C204.571 97.6262 204.814 98.215 205.287 98.6884C205.76 99.1617 206.372 99.4042 207.077 99.4042C207.758 99.4042 208.358 99.1617 208.831 98.6884C209.305 98.2035 209.547 97.6147 209.547 96.9335C209.547 96.2293 209.305 95.6174 208.831 95.144C208.347 94.6707 207.758 94.4282 207.077 94.4282Z" fill="#16387B"/>
<path d="M204.942 120.183H209.179V100.453H204.907L204.942 120.183Z" fill="#16387B"/>
<path d="M227.259 102.057C226.474 101.261 225.55 100.637 224.5 100.175C223.449 99.725 222.306 99.4941 221.094 99.4941C220.39 99.4941 219.628 99.6096 218.831 99.8289C218.023 100.048 217.307 100.372 216.695 100.764L216.615 100.822V99.4941H212.412V120.195H216.615V108.303C216.615 107.668 216.73 107.056 216.961 106.49C217.192 105.925 217.515 105.428 217.919 105.013C218.323 104.597 218.808 104.262 219.362 104.031C220.459 103.57 221.775 103.57 222.86 104.043C223.403 104.285 223.888 104.62 224.292 105.024C224.696 105.428 225.019 105.925 225.25 106.49C225.481 107.056 225.597 107.657 225.597 108.303V120.183H229.764V108.303C229.764 107.091 229.545 105.936 229.095 104.863C228.656 103.789 228.044 102.854 227.259 102.057Z" fill="#16387B"/>
<path d="M248.787 101.526V102.046L248.753 102.011C247.921 101.388 247.009 100.891 246.063 100.545C245.104 100.198 243.961 100.002 242.668 99.979C241.248 99.979 239.898 100.245 238.639 100.787C237.381 101.318 236.272 102.069 235.349 103.015C234.425 103.962 233.675 105.07 233.144 106.317C232.613 107.576 232.335 108.915 232.335 110.312C232.335 111.709 232.601 113.048 233.144 114.283C233.675 115.53 234.414 116.639 235.326 117.574C236.249 118.521 237.346 119.271 238.604 119.814C239.863 120.356 241.225 120.633 242.668 120.633C243.765 120.633 244.839 120.46 245.855 120.102C246.871 119.744 247.829 119.259 248.695 118.636L248.799 118.555V120.183H253.001V101.526H248.787ZM248.787 110.3C248.787 111.097 248.637 111.882 248.337 112.609C248.037 113.348 247.61 114.006 247.079 114.572C246.548 115.138 245.889 115.6 245.139 115.946C244.389 116.292 243.534 116.465 242.622 116.465C241.849 116.465 241.075 116.315 240.348 116.015C239.62 115.715 238.951 115.288 238.385 114.745C237.819 114.203 237.358 113.533 237.011 112.783C236.665 112.032 236.492 111.201 236.492 110.3C236.492 109.458 236.653 108.649 236.977 107.911C237.3 107.172 237.75 106.514 238.316 105.971C238.882 105.428 239.551 104.99 240.302 104.666C241.052 104.343 241.837 104.181 242.668 104.181C243.465 104.181 244.25 104.332 244.977 104.632C245.716 104.932 246.374 105.359 246.94 105.89C247.506 106.421 247.956 107.068 248.291 107.818C248.614 108.546 248.787 109.388 248.787 110.3Z" fill="#16387B"/>
</g>
</svg>
