<svg width="274" height="216" viewBox="0 0 274 216" fill="none" xmlns="http://www.w3.org/2000/svg">
<g style="mix-blend-mode:luminosity">
<path d="M146.551 104.521H146.896L147.643 104.808L148.391 105.038L148.735 105.21L149.31 105.44L151.035 106.187L152.875 107.107L154.369 108.027L155.346 108.717L155.921 109.177L156.669 109.809L157.588 110.729L157.991 111.188L158.508 111.821L158.968 112.453L159.255 112.97L159.715 113.775L160.118 114.752L160.463 115.729L160.808 116.994L160.923 117.569L161.267 119.523L161.44 122.34V128.261L161.153 128.203L160.405 127.628L159.658 126.996L159.026 126.421L158.738 126.191L158.451 125.904L157.761 125.157L157.243 124.582L156.841 124.122L156.094 123.202L155.404 122.282L154.772 121.42L154.312 120.73L153.449 119.408L152.587 118.029L152.012 117.052L151.725 116.592V116.477H151.61L151.437 116.074L150.633 114.695L150.23 113.89V113.775H150.115L150.288 114.407L150.46 114.752L150.633 115.327L150.805 115.729L151.15 116.649L151.61 117.684L151.782 118.144L152.185 118.891L152.357 119.293L152.817 120.213L153.162 120.845L153.507 121.363L153.852 121.995L154.887 123.547L155.634 124.524L156.209 125.271L156.899 126.076L157.531 126.824L157.991 127.283L158.393 127.743L160.003 129.353L160.463 129.755L160.52 129.985L160.118 130.157L159.543 130.33L158.681 130.56L157.416 130.79L157.071 130.847H155.921L154.427 130.617L153.507 130.33L152.817 130.1L151.61 129.468L150.977 129.008L150.173 128.376L149.08 127.283L148.563 126.651L147.988 125.846L147.471 125.042L147.011 124.122L146.723 123.605L146.379 122.685L146.091 121.995L145.804 121.018L145.574 120.213L145.286 118.834L144.999 117.109L144.941 116.017V112.97L145.229 109.924L145.344 109.521L145.459 108.717L145.746 107.28L146.034 106.187L146.149 105.67L146.494 104.635L146.551 104.521Z" fill="#51940A"/>
<path d="M173.914 122.685H175.984L177.421 122.915L178.341 123.202L179.318 123.49L180.008 123.777L180.525 123.95V124.065L180.812 124.122L182.192 124.812L183.572 125.674L184.549 126.364L185.124 126.824L185.641 127.226L186.274 127.801L186.734 128.203L187.998 129.468L188.401 129.928L189.148 130.847L189.32 131.077L189.263 131.365L187.883 132.112L187.596 132.285L187.021 132.514L186.676 132.687H186.504V132.802H186.274V132.917L185.354 133.262L184.262 133.722L183.399 134.066L182.02 134.526L181.56 134.641L181.042 134.814L179.548 135.159L178.743 135.389L177.881 135.504L177.708 135.676H176.903V135.791H171.787V135.676L170.637 135.446L169.315 135.044L168.28 134.584L167.418 134.066L166.728 133.434L166.441 133.147L165.981 132.629L165.866 132.342H165.751L165.636 131.882H165.521L165.119 130.847L164.946 130.215V129.64L165.119 129.468L166.039 129.181L167.303 128.836L169.028 128.548L170.407 128.433H173.282L176.616 128.721L177.938 128.893L178.858 129.008L179.433 129.123V129.008L178.341 128.778L176.041 128.203L175.179 128.088L174.661 127.973L173.397 127.801L173.224 127.743H170.235L168.97 127.858L167.878 128.031L166.556 128.376L166.039 128.606L165.636 128.663L165.694 128.376L166.153 127.571L166.843 126.594L167.533 125.789L168.28 125.042L168.913 124.524L169.488 124.122L170.063 123.777L170.695 123.49L171.615 123.145L172.707 122.858L173.914 122.685Z" fill="#50910B"/>
<path fill-rule="evenodd" clip-rule="evenodd" d="M123.677 110.214H123.332L122.297 110.502H120.457L119.595 110.617L118.675 110.847L117.813 111.192L116.721 111.881L116.663 112.054H115.743L115.686 112.111L114.824 112.341L114.249 112.629L113.329 113.261L112.812 113.721L112.409 114.181L111.777 114.928L111.087 115.848L110.225 117.227L109.535 118.607L108.96 119.986L108.788 120.561L108.5 121.308L108.385 121.883L108.27 122.171L108.098 123.78L107.868 124.182L107.638 124.815L107.523 125.677V126.194L107.58 126.309L107.638 126.712L107.523 126.884V127.574L107.58 127.689V128.034L107.293 128.379V128.839L107.638 129.241L107.868 129.988V130.448L107.753 130.735L107.638 131.138V131.828L107.753 133.437L107.925 133.897L108.155 134.184L108.73 134.759L109.018 135.334L109.19 136.024L109.535 136.771L110.11 137.691L110.685 138.438L111.317 139.07L112.064 139.645L112.754 140.105L113.846 140.622L114.766 140.91L116.261 141.082H117.468L118.273 140.967L118.848 140.852L119.135 140.737L119.595 140.68V140.795L119.767 140.852H120.342L120.917 140.737L121.435 140.565L122.412 140.22V140.105H122.527L123.504 139.645L124.941 138.783L125.861 138.151L126.378 137.806L127.356 137.116L127.758 136.656L128.505 135.679L128.908 135.104L129.368 134.414L130 133.207L130.172 132.805L130.862 131.31L131.092 130.678L131.265 130.218L131.552 129.298L131.782 128.666L131.897 128.149L132.127 127.286V126.769L131.955 126.309V125.16L132.012 124.872L132.184 124.47L132.414 123.32V121.768L132.357 121.423L132.012 119.756L131.61 118.204L131.552 116.595L131.265 116.25L130.747 115.618L130.345 115.215V114.468L130.23 114.181L130 113.893L129.425 113.376L128.965 112.973L128.62 112.571L128.39 111.996L128.103 111.651L127.528 111.364L127.068 111.249L126.033 111.019L124.596 110.789L124.136 110.559L123.677 110.214ZM121.55 116.997H120.63L120.4 117.055L119.48 117.515L118.503 118.089L117.181 118.779L116.778 119.124L116.376 119.756L115.973 120.849L115.801 121.768L115.743 121.826L115.686 122.343L115.456 123.78L115.284 125.907V127.861L115.399 128.839L115.628 129.988L115.801 130.505L116.088 131.713H116.203V131.943L116.663 133.265L117.008 133.61L117.583 134.127H118.445L118.733 134.299H119.193L119.882 134.069L120.227 134.127H120.572L121.09 133.724L121.665 133.207L122.469 132.575L122.872 132.057L123.044 131.655L123.389 130.793L124.079 129.356L124.309 128.781L124.366 124.47L124.539 122.975V120.963L124.424 120.504L124.136 119.699L123.619 118.779L123.102 118.089L122.642 117.687L122.067 117.227L121.55 116.997Z" fill="black"/>
<path d="M98.6128 116.421H99.9349L100.682 116.651L101.2 116.939L101.717 117.341L102.062 117.743L102.407 118.146L102.982 118.548L103.614 119.066L104.131 119.698L104.649 120.56L104.994 121.537L105.109 121.94L105.281 122.917V124.584L104.936 125.101L104.419 125.446L103.097 125.963L102.062 126.308L100.855 126.653L99.7625 126.826L98.8427 126.998H98.3828L97.9804 126.538L97.808 125.044L97.578 124.411L97.2906 124.066L96.1409 123.722L95.9109 123.664V123.549L95.566 123.492L95.1636 123.434L93.7264 123.779L93.2665 123.837L92.6917 124.354L92.0018 124.814L91.5994 125.044L91.2545 125.963L90.9096 126.826L90.5647 127.86L90.1623 128.608L89.7599 129.067L89.5874 129.585L89.5299 129.872V132.114L89.6449 132.459V135.275L89.5299 136.195V137.057L90.2773 138.207L90.5647 138.782L90.6797 139.299L91.197 139.414L91.7719 139.817L92.4617 140.276L92.7492 140.391H93.4965L94.7612 139.931L96.2558 139.242L96.6582 139.069L97.578 137.517L98.0379 136.713L98.1529 136.54V135.448L97.1756 135.62H96.5433V135.735L96.1983 135.85L95.1636 136.023H94.8187L94.4738 135.793L94.3588 135.505L94.1288 135.16L94.0139 134.643L93.9564 133.436L93.7839 133.034V132.516L94.1863 130.964L94.3013 130.217L94.5312 129.815L95.2211 129.7L95.7385 129.527L96.4283 129.412L97.6355 129.125L98.4978 128.952L100.797 128.435L101.717 128.263L102.407 128.09H102.867V127.975L104.534 127.63H105.051L105.511 127.918L105.684 128.837L105.856 129.642V130.619L105.626 131.597L105.454 132.114V132.746L105.569 134.126L105.626 134.183L105.741 134.873L105.799 135.505V137.69L105.626 138.092L105.569 139.759L105.396 140.104V141.369L105.569 141.943V143.208L105.224 143.668L104.936 143.783L102.752 144.07L102.119 144.185L100.625 144.358L100.337 144.415H99.59L99.3026 144.128L99.1876 143.955V143.783L98.9577 143.898L98.7277 144.243L98.0379 145.047L97.7505 145.392L97.1756 145.852L96.5433 146.197L96.0834 146.312H94.9911L93.7839 146.714L93.439 146.944L93.2091 147.117L92.4043 147.232L91.8294 147.347L90.3347 147.577H89.8174L88.9551 147.347L88.1503 147.059L87.403 146.829L86.1957 146.484L85.3909 145.967L84.8161 145.45L84.1837 144.702L83.4939 143.668L82.9765 142.748L82.4017 141.713L82.2292 141.081V140.219L82.2867 139.874V138.035L82.1142 137.747V137.575L81.8843 137.46V131.367L81.9418 129.7L82.3442 129.067L82.5741 127.458L82.6891 126.998H82.8041L82.919 126.251L83.149 125.733L83.3789 125.159L83.8388 124.296L84.2987 123.607L84.8161 122.974L85.5059 122.227L86.0808 121.422L86.5407 120.79L87.1155 120.158H87.2305V120.043L87.8054 119.64L88.2652 119.353H88.4952V119.238L88.8401 119.181V119.066L90.3347 118.376L90.9671 118.031L91.427 117.629L91.6569 117.341L92.2893 117.111L93.0941 116.939L93.6689 116.824H95.9684L97.808 116.536L98.6128 116.421Z" fill="black"/>
<path d="M161.504 68.3086H163.228L163.918 68.4236L165.068 68.7684L165.585 68.9984L165.987 69.1708L167.425 69.7456L167.712 69.8606L168.344 70.4354L168.574 70.7803L169.034 71.6425L169.322 72.5623L169.437 73.5969L169.724 74.4017L169.897 74.8041V75.5513L169.552 76.1261L169.092 76.4135L168.689 76.586L167.252 76.9309L166.102 77.1608L164.953 77.3907L164.493 77.5057L163.688 77.6781H163.056L162.768 77.3907L162.538 76.9884L162.251 76.1836L162.136 75.6088V75.3789L161.963 75.3214H161.274L160.009 75.4938L159.434 75.8387L158.802 76.2411L158.169 76.6435L157.595 77.1608L157.365 77.6207V78.1955L157.767 78.7703L158.169 79.1727L158.744 79.5176L159.089 79.69L160.124 79.805L161.159 79.8625L163.113 79.9199L163.286 79.9774L164.838 80.0924L165.413 80.2074L166.217 80.3798L166.907 80.5522L167.54 80.8397L168.057 81.1271L168.747 81.7594L169.264 82.4491L169.724 83.3114L169.954 84.0012L170.069 84.6909L170.184 85.3807L170.241 86.8178L170.586 87.9099L170.644 88.1399V89.232L170.471 89.8643L169.954 90.6116L169.552 91.2439V91.7612L169.667 92.0486V92.566L169.264 93.0258L168.804 93.4282L168.057 94.3479L167.597 94.9802L167.137 95.67L166.505 96.3598L165.643 96.9921L164.723 97.4519L164.205 97.6819L163.746 97.9118L162.883 98.1992L161.216 98.7165L159.894 99.0614L159.377 99.1189L158.227 99.1764L157.537 99.3488L157.02 99.4063H155.468L154.548 99.1764L153.743 98.889L153.283 98.7165L152.306 98.4866L151.788 98.1992L151.329 97.6819L151.041 97.2795L150.581 96.9346L150.179 96.4173L149.834 95.555L149.546 94.6928L149.202 94.1755L149.144 94.003V91.014L149.259 90.6691L149.489 90.3242L149.949 89.9793L150.639 89.7494L151.846 89.4619H152.306V89.347L153.226 89.1745L154.145 88.9446L155.008 88.7722H155.64L156.1 89.0596L156.502 89.6344L156.962 90.5541L157.192 91.0714L157.595 91.7612L157.882 92.0486L158.284 92.2211H159.434L160.756 91.9337L161.159 91.7612H161.389V91.6463L161.963 91.3588L162.423 90.8415L162.653 90.2092L162.768 89.5769L162.826 88.8296L162.538 88.7147L162.193 88.3123L162.078 87.795L161.848 87.68L159.836 87.3926L158.687 87.1627L157.48 86.9902H155.87L154.49 86.7028L153.915 86.4729L153.57 86.3579L152.651 85.8981L152.076 85.4382L151.616 85.0358L151.156 84.461L150.696 83.6563L150.466 83.1389L150.294 82.5066L150.236 82.4491L150.121 81.5294V77.1608L150.409 76.586L150.581 75.8962L150.754 75.3214L151.041 74.6316H151.156L151.214 74.2867L151.673 73.5394L152.248 72.7922L152.881 72.1024H152.996V71.9874L153.628 71.4701L154.375 70.9528L155.18 70.4929L155.525 70.4354V70.3205L156.502 69.9181L157.997 69.4582L159.204 69.1133L160.411 68.8259L161.216 68.481L161.504 68.3086Z" fill="black"/>
<path d="M120.113 79.2881H120.746L121.091 79.518L121.206 79.6905V81.3L121.378 82.2197L121.435 82.2771L121.608 83.0819V84.5764L121.435 85.0938L121.033 85.5536L120.401 85.7261L119.251 85.956L115.227 86.7607L114.307 86.9332L113.33 87.1056L112.123 87.393L110.686 87.623L109.306 87.9104L108.904 88.0828L108.789 88.6002V89.175L109.018 89.7498V92.1066L110.916 91.7042L112.755 91.3018L114.135 91.0144L114.825 90.842L115.974 90.612L117.469 90.2671L118.791 89.9797H119.309L119.768 90.3246L119.826 90.4396L119.883 94.6358L119.998 94.8657V95.7854L119.711 96.2453L119.366 96.4752H118.734L118.159 96.2453L117.986 96.1303H117.641L116.492 96.7051L115.802 97.05L115.514 97.165L115.112 97.2225L112.985 97.2799L112.065 97.5099L110.686 97.9122L109.823 98.2571L109.133 98.4296V102.453L108.846 102.971L108.904 103.316L109.191 103.545L109.766 103.775L109.996 103.833H110.571L111.778 103.545H111.893L112.008 102.856L112.18 102.683L115.055 102.051L116.204 101.821L116.837 101.649L118.504 101.304L118.964 101.189H119.423L119.653 101.361V101.476L120.171 101.361L120.343 101.304H120.803V101.419L121.091 101.534L121.263 101.764L121.378 102.683L121.78 103.833L121.838 104.005V105.327L121.608 106.075L121.435 106.535L121.321 107.052L121.091 107.397L120.343 107.627L118.734 107.972L117.124 108.316L115.342 108.719L113.675 109.064L111.835 109.466L111.145 109.639L110.226 109.811L108.904 110.098L106.547 110.616L104.477 111.076L103.787 111.248L102.982 111.363H102.408L102.12 110.961L101.89 109.811L101.545 108.776L101.488 108.546V107.569L101.545 106.822L101.603 106.592V105.557L101.545 105.385V104.235L101.718 103.89L101.833 103.833L101.775 103.316L101.603 102.741L101.545 102.396V100.556L101.718 100.212L101.833 100.154V99.5792L101.603 99.0044V97.2799L101.718 96.935V96.2453L101.603 95.7854V94.0035L101.775 93.1987V91.8766L101.66 91.3593V89.2325L101.775 88.8301L101.948 88.4277L102.063 88.0828V86.8182L101.89 86.4733V83.5992L102.005 83.1969L102.35 82.9094L102.638 82.852H103.442L104.305 83.0244L104.879 83.1394L104.937 82.6795L105.052 82.4496L105.339 82.2771L108.731 81.5299L109.651 81.3574L109.881 81.3H110.341L110.398 81.4724H110.801L111.605 81.3L112.755 81.1275L112.928 81.0125L115.17 80.5527L116.147 80.0928L116.837 79.8054L118.101 79.518L120.113 79.2881Z" fill="black"/>
<path d="M141.782 74.2275H142.184L142.587 74.4L142.932 74.8024L143.219 75.5496L143.276 75.837V76.9867L143.104 77.5615L142.874 78.0788V78.9985L143.219 79.9757L143.276 80.0907V80.4931L142.932 80.9529L142.414 81.1254L141.954 81.2403L140.46 81.5277L138.908 81.8726L138.275 82.0451L137.355 82.2175L136.608 82.3325V83.1947L136.378 83.6546L136.263 83.7121L136.206 88.1382H136.091L135.976 88.3681V89.3453L136.321 90.6674V92.5643L136.148 92.9666V94.2313L135.746 94.8061L135.573 94.9785L135.631 95.2084L136.033 95.8407L136.091 96.2431H136.206L136.321 96.703V98.0251L136.148 98.8298V99.692L136.206 100.152V101.072L136.091 102.394L135.976 103.716L135.803 104.118L135.573 104.291L134.136 104.635L132.642 104.923L132.297 105.038L131.377 105.21L129.882 105.555H129.537L129.192 105.268L129.077 105.095L128.905 103.083L128.675 101.244V99.2322L128.905 97.8526L129.02 97.2778L129.077 97.2203V95.4384L128.847 93.9438L128.732 93.484V92.5068L128.962 89.8051L129.077 87.6208L129.192 86.5287V83.942L128.503 83.9995L126.433 84.3444L125.858 84.4593L124.996 84.5743L123.846 84.8042L123.329 84.8617H122.639L122.352 84.5743L122.294 84.4593L122.237 83.0223L122.122 82.6774V81.9301L122.352 81.4128L122.466 81.2978L122.409 80.838L122.294 80.608V79.4009L122.524 78.8836L122.926 78.4812L123.386 78.3088H123.961L124.421 78.5387L124.593 78.6536H125.168V78.5387L125.513 78.3662L126.031 77.7914L126.433 77.6765L127.525 77.5615V77.4465L129.767 76.9867L130.457 76.8142L130.917 76.6993L131.607 76.5843L132.584 76.3544L134.136 76.0095L135.056 75.837L135.803 75.6646L136.321 75.5496L137.528 75.4921L138.62 75.3197L139.08 75.1472L139.425 74.7449L140.345 74.5149L141.264 74.285L141.782 74.2275Z" fill="black"/>
<path d="M87.8051 85.4971L88.3225 85.5546V85.6695L88.5524 85.7845L88.7249 86.1294L88.8974 87.279V89.1184L88.7824 89.8082L88.38 91.1303L88.3225 91.5327V92.2225L88.6099 92.7973V94.0044L88.495 94.9241L88.2075 95.6714L88.0351 95.9588L87.9776 96.1887L87.8626 97.3958V98.3155L88.4375 99.0628L88.6674 99.4077L88.7824 100.097L88.8399 100.442V104.754L88.7824 106.363L88.7249 106.708L89.8171 106.42L90.1621 106.478L90.4495 106.708H90.8519L91.3693 106.535L92.1741 106.306L93.1513 106.076L94.1861 105.788L95.9682 105.328L96.7155 105.041L97.8652 104.754H98.4975L98.9574 105.098L99.1299 105.386V108.202L99.0149 109.812L98.9 110.617L98.7275 110.962L98.4975 111.134L97.8652 111.364L96.428 111.766L95.2208 112.054L94.5885 112.226L93.8987 112.399L92.7489 112.629L91.6567 112.916L90.7369 113.088L89.2998 113.376L87.0003 113.893L86.0805 114.066L85.5057 114.181L83.7236 114.583L82.1715 114.87H81.6541L81.3092 114.41L81.1367 113.778V112.514L81.3667 111.881L81.4816 111.536V110.962L81.3092 109.984L81.2517 109.065L81.1367 108.375V107.34L81.3092 106.938V106.191L81.1942 105.903V97.1084L81.2517 95.384H81.3667L81.5391 94.6367L81.5966 94.5217V93.5445L81.4816 93.3721L81.3667 92.7398L81.3092 92.6248V91.0728L81.4241 90.3256V88.0263L81.3092 87.5664V87.0491L81.5966 86.5892L81.8266 86.4168L82.5739 86.2443L83.3212 86.1294L84.7583 85.842L86.5979 85.612L87.8051 85.4971Z" fill="black"/>
<path d="M140.235 106.936H140.982L141.385 107.166L141.672 107.511L141.787 108.028V109.58L141.615 111.017L141.442 111.937V113.489L141.615 113.891V114.811L141.5 115.501L141.442 115.558L141.155 116.995L141.04 117.398L140.81 119.065L140.695 120.559L140.522 124.526L140.465 126.422L140.235 126.882L139.947 127.055H139.43L139.315 126.94L138.74 126.997L136.958 127.4L136.096 127.572H135.578L135.291 127.342L135.176 127.112V126.652L135.349 126.02L135.406 124.928H135.291L135.119 123.778L135.004 123.433L134.889 122.859L134.601 121.881L134.371 121.019V119.984L134.544 119.18V118.375L134.429 117.8L134.256 117.168L134.199 117.11L134.141 116.248L134.026 116.076V114.179L134.314 112.512L134.371 112.339V111.65L134.256 111.075V109.983L134.314 109.408L134.084 109.12V108.603L134.486 108.201L135.751 107.913L137.361 107.568H137.763V107.683L138.05 107.568L138.28 107.396L139.2 107.166L140.12 106.994L140.235 106.936Z" fill="black"/>
<path d="M140.002 127.688H140.576L141.036 128.09L141.209 128.435L141.381 128.952L141.496 130.102V134.7L141.209 135.045L140.519 135.275L138.794 135.62L137.3 135.965L136.437 136.137L135.863 136.252L135.805 136.31L134.943 136.425H134.425L134.023 136.08L133.851 135.563V134.355L133.966 134.011V132.746L133.851 131.539V130.159L134.081 129.584L134.483 129.125L135.115 128.895L135.863 128.665L137.587 128.205L140.002 127.688Z" fill="black"/>
<path d="M148.052 72.9062H148.741L149.201 73.1362L149.431 73.4236V76.9875L149.029 78.2521L148.569 79.1143L148.109 79.7466L147.477 80.4364L146.844 80.8388L146.097 81.1262H145.58L145.292 80.8388L145.12 80.4364L144.947 79.2293L144.89 79.1143V78.7119L145.12 78.3096L145.407 78.1371L145.867 78.0796L146.155 77.9647L146.212 77.6773L144.717 77.9647H144.028L143.74 77.6198L143.683 77.4473V77.0449L143.913 76.7001L144.372 76.2402L144.717 75.7803L144.947 75.3205V73.9409L145.292 73.4811L146.097 73.2511L147.017 73.0787L147.534 72.9637L148.052 72.9062Z" fill="black"/>
<path d="M192.196 97.3936H193.001L192.943 97.9109L192.598 98.9456L192.138 100.44L191.506 102.28L191.334 102.682L191.219 103.142H191.104L191.046 103.544L190.874 103.946L190.529 104.924L190.299 105.441L190.069 106.073L189.782 106.648L189.667 107.051H189.552L189.437 107.568L188.977 108.488L188.689 109.177L188.344 109.867L188.229 110.097H188.114L187.942 110.672L187.77 110.959H187.655L187.54 111.247L187.022 112.166L186.62 112.799L186.102 113.603L185.355 114.638L184.665 115.443L184.263 115.903L183.975 116.248L183.516 116.65L182.941 117.225L182.136 117.857L181.331 118.432L180.354 119.007L179.549 119.467L178.227 119.984L177.709 120.214L176.905 120.444L176.445 120.616L175.18 120.961L174.145 121.249L172.881 121.593L171.903 121.881L171.156 122.111L170.639 122.283L169.144 122.801L167.707 123.433L167.477 123.49V123.145L167.707 122.628L167.937 122.226L168.052 121.938L168.224 121.536H168.339L168.397 121.249L169.086 119.926L169.661 118.949L170.179 118.145L170.811 117.167L171.501 116.19L172.306 115.098L172.938 114.293L173.57 113.488L174.26 112.684L174.778 112.109L175.295 111.477L176.215 110.499L176.56 110.097L176.847 109.81L177.422 109.235L177.882 108.832L179.319 107.395L179.779 106.993L180.469 106.361L181.101 105.843L181.848 105.211L182.366 104.809L182.078 104.866L181.331 105.326L180.699 105.728L180.009 106.188L179.204 106.763L178.284 107.453L177.25 108.258L176.675 108.775L176.1 109.235L175.525 109.752L174.605 110.614L172.996 112.224L172.593 112.684L172.018 113.316L171.501 113.948L171.041 114.466L170.409 115.27L169.834 116.018L169.201 116.88L168.742 117.512L168.167 118.374L167.419 119.524L166.557 120.961L166.442 121.249L165.867 122.226L165.177 123.605L165.005 124.065L164.833 124.41H164.143L163.683 124.295L163.51 123.893L163.05 122.513L162.821 121.134L162.648 120.156L162.476 118.202V116.478L162.648 114.753L162.878 113.776L163.453 112.051L163.625 111.649H163.74L163.798 111.362L164.085 110.672L164.603 109.752L165.292 108.66L165.925 107.798L166.615 106.993L167.304 106.246L168.224 105.326L168.857 104.809L169.431 104.291L170.524 103.544L171.386 102.912L172.018 102.567L172.766 102.107H172.996L173.053 101.935L174.375 101.302L174.95 101.072L175.41 100.842L176.157 100.555L177.307 100.095L178.169 99.8078L179.779 99.2905L181.101 98.9456L182.021 98.7156L183.343 98.4857L184.665 98.1983L186.045 97.9684L187.425 97.7959L188.977 97.6235L189.264 97.566L192.196 97.3936Z" fill="#4F910B"/>
</g>
</svg>
