<svg width="274" height="216" viewBox="0 0 274 216" fill="none" xmlns="http://www.w3.org/2000/svg">
<g style="mix-blend-mode:luminosity">
<path d="M170.092 80.5083L171.994 80.5083L171.994 135.336L170.092 135.336L170.092 80.5083Z" fill="#C2CADB"/>
<path d="M166.56 80.5083L168.462 80.5083L168.462 135.336L166.56 135.336L166.56 80.5083Z" fill="#C2CADB"/>
<path d="M163.028 80.5083L164.93 80.5083L164.93 135.336L163.028 135.336L163.028 80.5083Z" fill="#C2CADB"/>
<path d="M159.496 80.5083L161.398 80.5083L161.398 135.336L159.496 135.336L159.496 80.5083Z" fill="#C2CADB"/>
<path d="M155.964 80.5083L157.866 80.5083L157.866 135.336L155.964 135.336L155.964 80.5083Z" fill="#C2CADB"/>
<path d="M152.431 80.5083L154.333 80.5083L154.333 135.336L152.431 135.336L152.431 80.5083Z" fill="#C2CADB"/>
<path d="M148.899 80.5083L150.801 80.5083L150.801 135.336L148.899 135.336L148.899 80.5083Z" fill="#C2CADB"/>
<path d="M145.367 80.5083L146.858 80.5083L146.858 135.336L145.367 135.336L145.367 80.5083Z" fill="#C2CADB"/>
<path d="M141.835 80.5083L143.325 80.5083L143.325 135.336L141.835 135.336L141.835 80.5083Z" fill="#C2CADB"/>
<path d="M138.302 80.5083L139.663 80.5083L139.663 135.336L138.302 135.336L138.302 80.5083Z" fill="#C2CADB"/>
<path d="M134.77 80.5083L136.154 80.5083L136.154 135.336L134.77 135.336L134.77 80.5083Z" fill="#C2CADB"/>
<path d="M131.238 80.5083L132.516 80.5083L132.516 135.336L131.238 135.336L131.238 80.5083Z" fill="#C2CADB"/>
<path d="M127.705 80.5083L128.899 80.5083L128.899 135.336L127.705 135.336L127.705 80.5083Z" fill="#C2CADB"/>
<path d="M124.153 80.5083L125.347 80.5083L125.347 135.336L124.153 135.336L124.153 80.5083Z" fill="#C2CADB"/>
<path d="M120.601 80.5083L121.795 80.5083L121.795 135.336L120.601 135.336L120.601 80.5083Z" fill="#C2CADB"/>
<path d="M117.05 80.5083L118.136 80.5083L118.136 135.336L117.05 135.336L117.05 80.5083Z" fill="#C2CADB"/>
<path d="M113.498 80.5083L114.562 80.5083L114.562 135.336L113.498 135.336L113.498 80.5083Z" fill="#C2CADB"/>
<path d="M109.967 80.5083L110.977 80.5083L110.977 135.336L109.967 135.336L109.967 80.5083Z" fill="#C2CADB"/>
<path d="M106.437 80.5083L107.378 80.5083L107.378 135.336L106.437 135.336L106.437 80.5083Z" fill="#C2CADB"/>
<path d="M102.907 80.5083L103.78 80.5083L103.78 135.336L102.907 135.336L102.907 80.5083Z" fill="#C2CADB"/>
<path d="M99.3068 80.5083L100.182 80.5083L100.182 135.336L99.3068 135.336L99.3068 80.5083Z" fill="#C2CADB"/>
<path d="M95.7932 80.5083L96.5976 80.5083L96.5976 135.336L95.7932 135.336L95.7932 80.5083Z" fill="#C2CADB"/>
<path d="M92.2798 80.5083L93.0843 80.5083L93.0843 135.336L92.2798 135.336L92.2798 80.5083Z" fill="#C2CADB"/>
<path d="M88.6955 80.5083L89.4999 80.5083L89.4999 135.336L88.6955 135.336L88.6955 80.5083Z" fill="#C2CADB"/>
<path d="M85.238 80.5083L85.9155 80.5083L85.9155 135.336L85.238 135.336L85.238 80.5083Z" fill="#C2CADB"/>
<path d="M81.6116 80.5083L82.2891 80.5083L82.2891 135.336L81.6116 135.336L81.6116 80.5083Z" fill="#C2CADB"/>
<path d="M78.0699 80.5083L78.6626 80.5083L78.6626 135.336L78.0699 135.336L78.0699 80.5083Z" fill="#C2CADB"/>
<path d="M74.5282 80.5083L75.1209 80.5083L75.1209 135.336L74.5282 135.336L74.5282 80.5083Z" fill="#C2CADB"/>
<path d="M70.9863 80.5083L71.5164 80.5083L71.5164 135.336L70.9863 135.336L70.9863 80.5083Z" fill="#C2CADB"/>
<path d="M67.4446 80.5083L67.9158 80.5083L67.9158 135.336L67.4446 135.336L67.4446 80.5083Z" fill="#C2CADB"/>
<path d="M63.8808 80.5083L64.352 80.5083L64.352 135.336L63.8808 135.336L63.8808 80.5083Z" fill="#C2CADB"/>
<path d="M60.3006 80.5083L60.7717 80.5083L60.7717 135.336L60.3006 135.336L60.3006 80.5083Z" fill="#C2CADB"/>
<path d="M56.7942 80.5083L57.1836 80.5083L57.1836 135.336L56.7942 135.336L56.7942 80.5083Z" fill="#C2CADB"/>
<path d="M53.2876 80.5083L53.595 80.5083L53.595 135.336L53.2876 135.336L53.2876 80.5083Z" fill="#C2CADB"/>
<path fill-rule="evenodd" clip-rule="evenodd" d="M58.585 86.3912C58.455 86.4572 58.4208 86.6822 58.5319 86.7402C58.5723 86.7612 58.7881 86.7887 59.0114 86.8013C59.6887 86.8392 60.1473 86.9738 60.573 87.2596C61.0635 87.5888 61.3177 87.9494 61.5178 88.6L61.6102 88.9004L61.6206 108.116C61.6308 126.967 61.6295 127.338 61.5526 127.694C61.3687 128.544 60.9738 129.065 60.2499 129.412C59.9277 129.567 59.1964 129.708 58.719 129.708C58.5796 129.708 58.5335 129.728 58.4798 129.81C58.4182 129.905 58.4182 129.92 58.4798 130.015L58.5463 130.118L59.4285 130.119C59.9138 130.12 66.8418 130.122 74.8242 130.124C88.7944 130.128 89.3397 130.125 89.3915 130.054C89.4352 129.993 89.4453 129.305 89.4453 126.381L89.4453 122.782L89.3458 122.716C89.1417 122.581 89.0252 122.71 88.918 123.19C88.8903 123.314 88.8167 123.591 88.7544 123.805C88.3966 125.036 87.6869 126.188 86.7301 127.091C85.7328 128.032 84.0693 128.911 82.5075 129.321L82.1274 129.421L75.224 129.421L68.3207 129.421L68.3481 109.612C68.3642 97.9894 68.3912 89.6074 68.4134 89.3308C68.4951 88.3146 68.8239 87.6689 69.4799 87.2367C69.8653 86.9829 70.6052 86.7893 71.1903 86.7893C71.4677 86.7893 71.5382 86.7467 71.5382 86.5791C71.5382 86.3197 72.043 86.3384 65.0486 86.339C60.019 86.3395 58.6653 86.3504 58.585 86.3912ZM96.24 86.4456C96.1776 86.5417 96.1766 86.564 96.2303 86.6608C96.2869 86.7629 96.3125 86.7703 96.6948 86.7958C98.2558 86.9 99.0558 87.5575 99.289 88.9278C99.3467 89.267 99.3531 91.1808 99.3531 108.25C99.3531 124.704 99.3452 127.242 99.2936 127.54C99.1344 128.46 98.7264 129.057 98.0334 129.385C97.6357 129.573 96.9784 129.708 96.4624 129.708C96.3137 129.708 96.2604 129.726 96.2279 129.787C96.1652 129.905 96.1768 130.015 96.2601 130.091C96.3289 130.154 97.457 130.159 111.67 130.159C126.951 130.159 127.006 130.159 127.087 130.077C127.167 129.996 127.168 129.94 127.168 126.414C127.168 122.998 127.165 122.831 127.094 122.766C126.99 122.671 126.855 122.682 126.787 122.791C126.755 122.841 126.699 123.02 126.662 123.187C126.487 123.981 126.026 125.092 125.619 125.701C125.042 126.564 124.291 127.321 123.452 127.885C122.636 128.434 121.836 128.806 120.488 129.263L120.082 129.401L113.068 129.411L106.053 129.422L106.053 119.02L106.053 108.618L109.636 108.608C111.607 108.603 113.457 108.617 113.748 108.638C114.778 108.713 116.071 109.085 117.098 109.601C117.484 109.795 117.636 109.879 118.066 110.135C118.654 110.485 119.454 111.221 119.949 111.866C120.218 112.217 120.289 112.286 120.382 112.286C120.443 112.286 120.514 112.264 120.541 112.237C120.578 112.2 120.59 111.256 120.59 108.242L120.59 104.296L120.505 104.25C120.376 104.18 120.247 104.234 120.135 104.405C120.079 104.49 119.887 104.735 119.709 104.949C119.212 105.546 118.636 106.032 117.912 106.466C116.812 107.125 115.785 107.519 114.487 107.78L113.886 107.9L109.969 107.9L106.053 107.9L106.053 97.4878L106.053 87.0754L113.047 87.0861L120.042 87.0968L120.505 87.2547C120.76 87.3416 121.201 87.5016 121.486 87.6101C123.966 88.5576 125.689 90.2697 126.438 92.5321C126.529 92.8063 126.632 93.1712 126.667 93.3431C126.701 93.5149 126.758 93.6877 126.793 93.7272C126.874 93.8203 127.016 93.8188 127.101 93.724C127.162 93.6554 127.168 93.3432 127.168 90.0757C127.168 86.557 127.167 86.5011 127.087 86.4204C127.006 86.3387 126.951 86.3384 111.658 86.3384L96.3095 86.3384L96.24 86.4456ZM133.99 86.4204C133.794 86.6182 133.942 86.7893 134.309 86.7893C134.681 86.7893 135.442 86.9385 135.912 87.1035C136.618 87.351 137.144 87.6851 137.741 88.2638C138.351 88.8552 138.79 89.4917 139.369 90.6221C139.565 91.0054 139.739 91.3374 139.755 91.3599C139.771 91.3825 140.009 91.8436 140.283 92.3847C140.558 92.9258 140.86 93.5161 140.954 93.6965C141.049 93.8768 141.387 94.5409 141.705 95.1722C142.343 96.4392 142.963 97.6517 143.181 98.0621C143.259 98.2087 143.365 98.4116 143.416 98.513C143.467 98.6145 143.666 99.0019 143.859 99.3739C144.052 99.7459 144.439 100.502 144.719 101.055C144.999 101.607 145.401 102.4 145.613 102.817C146.377 104.324 146.751 105.054 146.841 105.215C146.891 105.305 147.083 105.674 147.268 106.035C147.452 106.396 147.708 106.894 147.837 107.142C147.965 107.39 148.303 108.054 148.588 108.618C148.872 109.181 149.248 109.92 149.422 110.26L149.738 110.877L149.52 111.223C149.4 111.413 149.278 111.61 149.249 111.66C149.045 112.013 147.361 114.711 146.925 115.381C146.764 115.629 146.56 115.948 146.473 116.089C146.385 116.23 146.204 116.521 146.07 116.734C145.936 116.948 145.721 117.293 145.591 117.502C144.902 118.617 143.999 120.072 143.919 120.198C143.868 120.277 143.69 120.553 143.522 120.813C143.355 121.072 143.063 121.533 142.873 121.837C142.683 122.142 142.377 122.631 142.192 122.924C142.007 123.217 141.825 123.512 141.786 123.58C141.521 124.046 140.681 125.348 140.504 125.568C140.117 126.049 139.136 126.984 138.429 127.548C137.362 128.398 135.798 129.195 134.335 129.635C133.936 129.754 133.819 129.904 133.99 130.077C134.07 130.158 134.125 130.159 138.516 130.159L142.962 130.159L143.028 130.057C143.14 129.884 143.078 129.772 142.812 129.663C142.062 129.356 141.476 128.876 141.219 128.357C140.984 127.881 140.953 127.73 140.955 127.043C140.957 126.153 140.951 126.17 141.7 125.014C141.89 124.721 142.156 124.303 142.291 124.084C143.539 122.066 144.186 121.028 144.915 119.877C145.148 119.509 145.532 118.9 145.768 118.524C146.004 118.148 146.331 117.629 146.495 117.369C146.658 117.11 146.851 116.796 146.923 116.672C146.994 116.548 147.32 116.023 147.645 115.504C147.971 114.986 148.334 114.406 148.453 114.216C148.572 114.025 148.797 113.672 148.953 113.43C149.109 113.188 149.365 112.785 149.521 112.534C150.133 111.552 150.083 111.62 150.142 111.701C150.194 111.772 150.502 112.358 151.074 113.475C151.23 113.779 151.504 114.314 151.683 114.664C151.862 115.013 152.251 115.779 152.547 116.365C152.842 116.951 153.18 117.615 153.297 117.841C153.414 118.066 153.661 118.546 153.845 118.907C154.03 119.267 154.194 119.581 154.21 119.603C154.226 119.626 154.455 120.069 154.718 120.587C154.981 121.106 155.329 121.788 155.49 122.104C155.652 122.42 156.054 123.213 156.384 123.867C156.714 124.52 157.075 125.231 157.187 125.445C157.755 126.539 157.85 126.719 158.013 127.005C158.529 127.914 158.709 128.607 158.537 129.022C158.456 129.218 158.252 129.415 158.032 129.51C157.826 129.599 157.185 129.707 156.862 129.708C156.682 129.708 156.64 129.723 156.585 129.808C156.511 129.921 156.552 130.044 156.686 130.117C156.738 130.145 158.869 130.159 163.133 130.159C170.086 130.159 169.682 130.173 169.682 129.934C169.682 129.777 169.579 129.708 169.344 129.708C168.641 129.707 167.613 129.426 166.982 129.062C166.374 128.712 166.088 128.493 165.681 128.063C165.027 127.371 164.836 127.072 163.996 125.424C163.521 124.49 163.258 123.979 162.922 123.334C162.248 122.036 161.854 121.266 160.962 119.501C160.326 118.242 159.769 117.156 159.237 116.14C158.888 115.472 158.44 114.595 157.866 113.455C157.548 112.823 157.164 112.067 157.013 111.774C156.862 111.481 156.579 110.927 156.384 110.544C156.188 110.161 155.987 109.774 155.937 109.683C155.887 109.593 155.686 109.206 155.491 108.823C155.295 108.439 155.029 107.923 154.9 107.675C154.378 106.671 153.886 105.672 153.886 105.614C153.886 105.545 153.928 105.472 154.396 104.723C154.579 104.43 154.953 103.831 155.228 103.391C155.502 102.951 155.876 102.361 156.059 102.079C156.241 101.798 156.504 101.382 156.643 101.157C156.782 100.932 157.062 100.48 157.265 100.153C157.468 99.8258 157.869 99.1802 158.155 98.718C158.442 98.2558 158.859 97.5917 159.081 97.2423C159.304 96.8928 159.631 96.3763 159.808 96.0945C159.985 95.8127 160.281 95.3423 160.466 95.0492C160.65 94.7561 160.942 94.2857 161.115 94.0039C161.287 93.7221 161.653 93.1318 161.928 92.6922C162.202 92.2525 162.525 91.736 162.644 91.5444C162.898 91.136 163.08 90.9175 163.713 90.2594C164.229 89.7232 164.923 89.1106 165.431 88.7437C166.457 88.0021 167.846 87.3075 169.053 86.9328C169.321 86.8495 169.574 86.748 169.616 86.7071C169.718 86.6077 169.676 86.4315 169.536 86.378C169.472 86.3535 167.77 86.3384 165.058 86.3384C160.42 86.3384 160.586 86.3315 160.529 86.5274C160.49 86.6599 160.609 86.7642 160.992 86.9343C161.42 87.1239 161.764 87.366 162.051 87.6798C162.486 88.1554 162.658 88.6484 162.656 89.412C162.653 90.2067 162.615 90.3271 162.108 91.1427C161.865 91.5327 161.53 92.064 161.364 92.3232C161.198 92.5825 161.002 92.8869 160.93 92.9996C160.858 93.1123 160.496 93.6934 160.125 94.2909C159.381 95.493 159.359 95.5281 158.466 96.9553C157.92 97.827 157.549 98.4148 157.196 98.9639C157.028 99.2253 156.213 100.533 155.408 101.833C154.663 103.036 154.443 103.387 154.069 103.965C153.887 104.247 153.687 104.566 153.624 104.675C153.561 104.783 153.496 104.857 153.479 104.839C153.449 104.806 153.318 104.556 152.71 103.371C152.548 103.055 152.374 102.723 152.324 102.633C152.273 102.543 152.045 102.1 151.815 101.649C151.586 101.198 151.248 100.534 151.064 100.173C150.88 99.8125 150.519 99.1023 150.262 98.595C150.005 98.0877 149.695 97.479 149.573 97.2423C149.451 97.0056 149.263 96.6366 149.155 96.4224C149.047 96.2083 148.863 95.8578 148.748 95.6436C148.534 95.2454 148.065 94.3297 147.237 92.6922C146.218 90.6761 145.795 89.8524 145.509 89.3308C145.142 88.6605 144.994 88.2298 144.994 87.8367C144.994 87.1977 145.452 86.8886 146.536 86.7976C146.851 86.7712 146.884 86.7598 146.939 86.6608C146.993 86.564 146.992 86.5417 146.929 86.4456L146.86 86.3384L140.465 86.3384C134.125 86.3384 134.07 86.3391 133.99 86.4204Z" fill="#3256A2"/>
<g opacity="0.8">
<path d="M175.229 136.123L175.209 80.1079L177.158 80.1079L177.158 107.081L184.672 107.081L184.65 109.028L177.158 109.049L177.158 118.599L182.68 118.599V120.567L177.158 120.567L177.158 136.145L175.229 136.123Z" fill="#9EA9C1"/>
<path fill-rule="evenodd" clip-rule="evenodd" d="M185.726 89.4638C187.096 88.4332 188.557 87.828 190.152 87.6302C190.682 87.5645 191.852 87.5544 192.377 87.6109C195.09 87.9032 197.644 89.48 199.213 91.8313C199.377 92.0777 199.525 92.2801 199.542 92.2809C199.559 92.2818 199.572 91.3045 199.572 90.1091V87.9357L201.298 87.9579L201.298 109.028L199.572 109.05L199.572 106.897C199.572 105.713 199.559 104.745 199.542 104.745C199.525 104.746 199.429 104.871 199.329 105.022C198.848 105.746 198.033 106.64 197.321 107.223C195.853 108.427 194.145 109.147 192.308 109.339C191.735 109.399 190.451 109.365 189.888 109.276C187.141 108.839 184.748 107.189 183.11 104.601C182.565 103.739 182.034 102.476 181.784 101.445C180.969 98.0805 181.581 94.5216 183.426 91.8931C183.991 91.0887 185.043 89.9775 185.726 89.4638ZM191.415 107.388C195.987 107.388 199.692 103.369 199.692 98.4118C199.692 93.4544 195.987 89.4356 191.415 89.4356C186.844 89.4356 183.138 93.4544 183.138 98.4118C183.138 103.369 186.844 107.388 191.415 107.388Z" fill="#9EA9C1"/>
<path d="M201.359 87.9785C201.359 88.0012 201.672 89.1403 202.055 90.5098C202.437 91.8793 202.819 93.2489 202.903 93.5533C202.987 93.8577 203.288 94.9368 203.572 95.9513C203.856 96.9659 204.24 98.3401 204.425 99.0052C204.61 99.6703 204.912 100.749 205.095 101.403C205.278 102.057 205.507 102.878 205.605 103.227C205.702 103.577 205.99 104.61 206.246 105.523C206.501 106.436 206.97 108.115 207.287 109.253C207.605 110.392 207.879 111.349 207.896 111.381C207.921 111.427 207.932 111.423 207.951 111.361C208.002 111.188 209.371 106.273 209.399 106.158C209.416 106.091 209.513 105.74 209.615 105.379C209.788 104.767 209.984 104.063 210.429 102.469C210.529 102.108 210.712 101.453 210.835 101.014C210.958 100.574 211.08 100.125 211.108 100.015C211.139 99.888 211.168 99.836 211.187 99.8717C211.203 99.9024 211.339 100.37 211.489 100.911C211.638 101.452 211.913 102.439 212.099 103.104C212.497 104.53 212.919 106.043 213.237 107.183C213.504 108.146 213.645 108.651 214.001 109.93C214.146 110.448 214.296 110.988 214.334 111.13C214.373 111.271 214.417 111.395 214.432 111.404C214.447 111.413 214.593 110.938 214.758 110.347C215.276 108.486 215.644 107.166 215.853 106.425C215.964 106.03 216.155 105.348 216.277 104.908C216.399 104.468 216.6 103.749 216.723 103.309C217.255 101.403 217.486 100.577 217.684 99.8661C217.8 99.449 217.972 98.831 218.068 98.4928C218.302 97.6599 218.607 96.57 218.881 95.5824C219.006 95.1315 219.225 94.3475 219.367 93.8402C220.005 91.5637 220.174 90.9591 220.483 89.8435C220.763 88.8299 220.871 88.4455 220.997 88.0083C221.017 87.9403 220.961 87.9365 220.074 87.9469L219.13 87.9579L218.979 88.5113C218.896 88.8156 218.705 89.5074 218.555 90.0485C218.405 90.5896 218.268 91.0876 218.251 91.1553C218.233 91.2229 218.069 91.8224 217.886 92.4875L217.337 94.4756C217.219 94.904 216.973 95.7986 216.79 96.4637C216.43 97.7713 216.137 98.8358 215.712 100.378C215.25 102.053 214.851 103.504 214.649 104.241C214.543 104.629 214.444 104.933 214.429 104.917C214.405 104.891 214.289 104.496 214.191 104.109C214.173 104.041 213.974 103.312 213.747 102.49C213.52 101.667 213.25 100.689 213.148 100.317C213.046 99.945 212.911 99.4561 212.848 99.2307C212.513 98.0207 212.198 96.8711 212.153 96.6994C212.151 96.6911 212.149 96.6833 212.147 96.6758C212.145 96.671 212.144 96.6663 212.143 96.6618L212.143 96.6612L212.143 96.6604L212.142 96.659C212.136 96.6379 212.131 96.6192 212.127 96.6005C212.102 96.4751 212.141 96.3368 212.44 95.2698L212.525 94.9675C212.701 94.3362 213.003 93.2571 213.195 92.5695C213.388 91.8818 213.633 91.0056 213.741 90.6224C214.202 88.9838 214.475 87.9968 214.475 87.9681C214.475 87.9512 214.056 87.9374 213.543 87.9374C212.692 87.9374 212.61 87.9435 212.591 88.0091C212.579 88.0486 212.448 88.5236 212.3 89.0647C212.152 89.6058 211.914 90.4727 211.771 90.9913C211.628 91.5098 211.444 92.1831 211.362 92.4875C211.28 92.7919 211.201 93.0553 211.186 93.0729C211.171 93.0904 211.074 92.7953 210.971 92.417C210.867 92.0387 210.681 91.3602 210.556 90.9093C210.431 90.4584 210.302 89.988 210.269 89.864C210.236 89.74 210.104 89.2604 209.976 88.7982L209.743 87.9579L207.861 87.9359L207.942 88.2338C208.033 88.5642 208.493 90.207 208.891 91.6267C209.034 92.1339 209.271 92.9825 209.419 93.5123C209.567 94.0421 209.816 94.9307 209.972 95.487L210.255 96.4984L210.007 97.3931C209.639 98.7243 209.313 99.9114 209.277 100.051C209.26 100.118 209.123 100.616 208.973 101.157C208.822 101.698 208.685 102.196 208.668 102.264C208.651 102.332 208.514 102.83 208.364 103.371C208.214 103.912 208.054 104.491 208.008 104.657C207.957 104.844 207.914 104.937 207.895 104.903C207.879 104.872 207.78 104.533 207.675 104.15C207.372 103.045 207.059 101.908 206.069 98.3084C205.341 95.6633 205.111 94.8263 204.912 94.1067C204.634 93.098 203.64 89.4874 203.34 88.3985L203.214 87.9374H202.286C201.693 87.9374 201.359 87.9522 201.359 87.9785Z" fill="#9EA9C1"/>
<path d="M185.076 113.803V108.802L187.025 108.802V113.803L185.076 113.803Z" fill="#9EA9C1"/>
<path d="M194.801 114.693C194.467 114.723 193.753 114.876 193.395 114.994C192.457 115.303 191.651 115.791 190.934 116.484L190.599 116.807L190.599 115.074L188.649 115.074L188.67 136.123L190.578 136.123L190.605 126.913C190.621 121.124 190.622 120.623 190.774 120.174C190.788 120.132 190.804 120.09 190.821 120.044C190.836 120.003 190.852 119.96 190.869 119.911C191.404 118.398 192.817 117.12 194.375 116.74C194.725 116.655 195.381 116.591 195.902 116.591H196.324V114.664L195.644 114.671C195.27 114.675 194.891 114.685 194.801 114.693Z" fill="#9EA9C1"/>
<path d="M197.278 136.123L197.258 114.664L199.207 114.664V115.361C199.207 115.744 199.221 116.057 199.237 116.056C199.254 116.055 199.423 115.927 199.613 115.771C200.19 115.298 200.97 114.943 201.826 114.763C202.339 114.655 203.624 114.653 204.12 114.759C205.538 115.064 206.747 115.853 207.569 117.011C207.645 117.118 207.711 117.206 207.716 117.206C207.721 117.206 207.803 117.1 207.9 116.97C208.984 115.51 210.428 114.748 212.241 114.678C213.556 114.627 214.662 114.937 215.681 115.642C216.898 116.484 217.715 117.69 218.06 119.153L218.147 119.522L218.171 136.144L216.261 136.144L216.261 128.263C216.261 123.172 216.246 120.252 216.219 120.014C216.163 119.514 216.081 119.221 215.874 118.784C215.435 117.857 214.413 116.979 213.494 116.739C212.605 116.508 211.685 116.587 210.904 116.963C210.049 117.373 209.281 118.196 208.955 119.049C208.951 119.061 208.946 119.073 208.942 119.084C208.935 119.101 208.929 119.117 208.923 119.133L208.922 119.133L208.922 119.134C208.906 119.176 208.89 119.215 208.876 119.255C208.708 119.724 208.708 120.253 208.709 126.997L208.709 136.145L206.78 136.123L206.739 119.686L206.623 119.337C206.413 118.71 206.171 118.301 205.729 117.831C204.942 116.993 204.077 116.615 202.963 116.62C201.95 116.626 201.179 116.934 200.443 117.628C199.909 118.131 199.565 118.657 199.379 119.255C199.333 119.402 199.281 119.568 199.262 119.624C199.244 119.681 199.219 123.416 199.208 127.925L199.187 136.123H197.278Z" fill="#9EA9C1"/>
<path d="M185.096 136.123L187.025 136.145L187.025 115.074L185.076 115.074L185.096 136.123Z" fill="#9EA9C1"/>
</g>
</g>
</svg>
