<svg width="274" height="216" viewBox="0 0 274 216" fill="none" xmlns="http://www.w3.org/2000/svg">
<g style="mix-blend-mode:luminosity">
<path d="M111.536 80.6577C112.225 81.6289 112.934 83.0136 113.125 83.8022C113.336 84.658 113.278 86.1677 113.001 86.8024C112.532 87.841 109.794 89.4085 106.033 90.7738C102.673 91.9951 96.6715 93.4761 92.393 94.13L92.2446 94.1531C91.711 94.2363 91.0589 94.3377 90.7179 94.3993C90.3543 94.4569 89.9714 94.5531 89.8661 94.6205C89.7034 94.7359 89.7224 94.7646 90.0863 94.9569C90.5362 95.1781 92.3069 95.6493 93.4267 95.832C94.3743 95.9954 98.0978 95.9859 99.5717 95.832C103.582 95.3993 107.258 94.6492 111.747 93.3607C112.876 93.0337 113.087 93.178 112.427 93.8223C111.01 95.1975 107.325 97.5053 105.219 98.3418C102.472 99.4285 101.39 99.8997 101.467 99.9766C101.505 100.015 101.993 100.15 102.549 100.255C103.4 100.429 103.898 100.467 105.937 100.467C108.875 100.477 109.536 100.381 113.135 99.4188C113.307 99.3707 113.374 99.4092 113.451 99.6209C113.556 99.8997 113.594 115.853 113.489 116.382C113.432 116.651 113.317 116.728 112.168 117.257C109.785 118.343 106.865 119.199 103.448 119.805C102.003 120.065 99.9451 120.392 99.0933 120.488C98.1647 120.594 96.0877 121.017 95.9919 121.113C95.858 121.248 96.4227 121.459 97.8298 121.786C100.299 122.354 100.701 122.402 103.257 122.402C104.587 122.411 106.224 122.354 106.942 122.286C108.483 122.132 112.34 121.642 113.02 121.507C113.278 121.459 113.527 121.44 113.556 121.459C113.671 121.526 113.728 122.507 113.661 123.469L113.594 124.421L113.068 124.632C112.427 124.892 109.727 125.729 108.426 126.075C107.899 126.21 107.382 126.373 107.277 126.431C107.105 126.527 107.105 126.527 107.325 126.623C107.459 126.681 108.808 126.738 110.388 126.767C111.938 126.786 113.24 126.835 113.278 126.873C113.403 126.979 113.527 127.815 113.728 129.777C114.015 132.585 114.044 133.364 113.939 134.624C113.814 136.009 113.575 136.932 113.077 137.922C112.35 139.345 111.584 140.047 109.766 140.932C108.167 141.701 107.21 142.057 104.788 142.798C101.276 143.875 99.1889 144.201 97.8489 143.894C97.1885 143.749 95.9536 143.096 95.2644 142.528C94.6518 142.028 93.1874 140.192 92.9577 139.643C92.7951 139.259 92.9004 139.192 94.3073 138.711C96.1547 138.076 100.902 136.162 102.405 135.441C104.128 134.624 105.899 133.614 107.43 132.585C108.598 131.816 109.813 130.806 109.813 130.623C109.813 130.575 109.708 130.537 109.574 130.537C109.316 130.537 108.971 130.652 107.325 131.297C105.535 131.999 102.319 132.922 99.859 133.431C98.0978 133.797 94.4414 134.287 91.6272 134.528C90.7944 134.605 90.7659 134.585 90.1053 133.499C89.7034 132.826 81.4814 116.334 81.4814 116.189C81.4814 116.151 81.9503 116.113 82.5246 116.113C84.5826 116.113 86.7839 115.863 90.7754 115.161C93.1109 114.747 93.733 114.612 93.733 114.487C93.733 114.449 93.1204 114.314 92.3739 114.199C90.0192 113.824 87.2721 113.161 85.3673 112.506C83.8839 111.997 80.5242 110.324 79.9785 109.833C79.7297 109.612 79.6819 109.285 79.8924 109.285C79.969 109.285 80.3901 109.372 80.8305 109.468C83.5201 110.103 89.062 110.333 92.4888 109.949C93.4937 109.833 96.0684 109.227 97.4467 108.785C99.0933 108.256 102.013 106.881 103.19 106.083C103.908 105.602 103.668 105.564 101.18 105.814C98.069 106.121 95.1593 106.169 91.9145 105.977C88.3539 105.766 85.5205 105.429 83.2043 104.967C79.5573 104.237 76.2935 103.371 75.3268 102.881C74.6089 102.515 74.3697 102.16 72.8285 99.1593C71.4407 96.457 70.6366 94.5627 70.225 93.053C69.9187 91.9375 69.9282 90.6489 70.2345 90.0046C70.7898 88.8506 71.3448 88.1294 71.6799 88.1294C71.9289 88.1294 72.0054 88.293 72.0054 88.87C72.0054 89.4758 72.2447 89.9085 72.8094 90.3605C73.6422 91.024 74.2738 91.2836 76.0255 91.649C76.7146 91.8028 77.3177 91.8317 79.9499 91.8317C83.166 91.8317 83.8359 91.7837 86.8893 91.3412C94.4701 90.2451 102.644 87.5909 106.846 84.8503C107.861 84.1869 108.138 83.9656 109.076 83.0521C109.938 82.2058 110.282 81.6482 110.349 81.0039C110.455 79.8884 110.474 79.8402 110.752 79.8786C110.943 79.898 111.134 80.0903 111.536 80.6577Z" fill="#FF0900"/>
<path d="M88.7558 67.3104C89.2727 67.8104 89.531 68.5892 90.2777 71.878C91.8665 78.9364 92.3642 80.9654 92.5078 80.9943C92.5941 81.0134 93.3598 80.8885 94.2212 80.7346C98.1169 80.0229 102.261 79.4942 104.425 79.4557C106.348 79.4173 106.473 79.5998 104.989 80.3211C100.845 82.3501 96.0301 84.1388 91.8665 85.1965C88.6601 86.0043 84.9942 86.6101 81.6728 86.8698C79.5573 87.0332 75.8341 87.2062 75.767 87.1391C75.6139 86.9852 76.1881 86.6101 77.7006 85.86C80.6869 84.3983 82.8692 83.5234 85.4536 82.7443C86.3532 82.4655 87.1095 82.2154 87.1477 82.1867C87.186 82.1483 87.1382 81.8308 87.0424 81.4944C86.9371 81.1482 86.4393 79.1191 85.9321 76.9747C85.4249 74.8302 84.8218 72.3012 84.5921 71.3395C84.3624 70.3875 84.1422 69.3874 84.1039 69.1182C84.0466 68.6566 84.0561 68.6277 84.4102 68.2815C85.1568 67.57 86.8605 66.9546 87.923 67.0026C88.3729 67.0315 88.5165 67.0796 88.7558 67.3104Z" fill="#FF0900"/>
<path d="M107.746 143.269C107.918 143.625 108.234 145.24 108.33 146.221C108.435 147.221 108.33 147.586 107.823 148.115C107.306 148.644 106.406 149 105.592 149C104.501 149 104.138 148.558 102.922 145.731C102.749 145.336 102.587 144.875 102.568 144.711L102.52 144.413L104.329 143.826C107.574 142.769 107.516 142.778 107.746 143.269Z" fill="#FF0900"/>
<path fill-rule="evenodd" clip-rule="evenodd" d="M190.565 117.788C190.562 118.153 190.558 118.51 190.554 118.853L190.565 117.788Z" fill="#FF0900"/>
<path d="M149.627 92.1659C149.711 92.2503 149.739 93.1152 149.73 95.2301C149.73 96.8564 149.702 98.21 149.674 98.2382C149.646 98.2663 146.726 98.304 143.181 98.3229C136.172 98.3605 136.041 98.3699 134.993 98.8963C133.927 99.4415 132.215 100.927 132.318 101.227C132.346 101.312 134.32 101.35 141.496 101.368C149.552 101.387 150.638 101.406 150.684 101.528C150.759 101.726 150.497 103.258 150.16 104.602C149.103 108.795 147.119 112.658 144.687 115.29C143.452 116.615 140.963 118.655 139.4 119.614C138.147 120.385 135.63 121.55 133.833 122.19C132.027 122.838 127.48 124.041 126.835 124.041H126.829C126.573 124.041 126.571 124.041 126.395 122.819C126.217 121.56 126.105 120.921 125.815 119.445C125.646 118.58 125.572 117.969 125.618 117.922C125.665 117.875 126.189 117.734 126.778 117.602C129.754 116.972 133.562 115.628 135.471 114.547C138.034 113.09 140.083 111.191 141.74 108.757C142.048 108.306 142.301 107.883 142.301 107.817C142.301 107.76 142.104 107.685 141.871 107.648C141.627 107.619 137.81 107.591 133.375 107.591C128.837 107.591 125.263 107.554 125.188 107.507C125.075 107.431 125.066 107.074 125.113 105.364C125.216 101.5 125.74 99.6764 127.349 97.4862C129.679 94.3278 132.935 92.4665 136.827 92.0436C137.033 92.0247 139.971 92.0153 143.358 92.0343C147.877 92.053 149.552 92.0906 149.627 92.1659Z" fill="#FF0900"/>
<path d="M204.205 92.0719L205 92.1282L204.981 95.1738C204.972 97.0727 204.934 98.2476 204.869 98.3133C204.813 98.3699 202.361 98.3979 197.72 98.3886L190.666 98.3699L190.6 98.8117C190.525 99.4132 190.535 101.03 190.619 101.171C190.675 101.256 191.92 101.293 195.503 101.34C198.151 101.368 200.415 101.415 200.537 101.444L200.743 101.481V107.685L199.929 107.695C199.47 107.695 197.197 107.695 194.876 107.685L190.638 107.676L190.628 110.806C190.62 112.291 190.591 115.233 190.565 117.788L190.554 118.853L190.553 118.965L190.497 123.994L187.503 124.013C185.856 124.032 184.462 124.004 184.397 123.966C184.303 123.91 184.285 120.394 184.275 108.155C184.275 99.4978 184.266 92.3349 184.275 92.2503C184.275 92.1187 184.397 92.0813 185.005 92.053C186.334 91.9966 203.4 92.006 204.205 92.0719Z" fill="#FF0900"/>
<path d="M156.229 92.5135C160.196 93.9519 162.507 95.1644 165.183 97.1947C167.036 98.5954 169.918 101.397 171.639 103.455C173.071 105.175 173.183 105.298 173.258 105.175C173.295 105.119 173.286 102.628 173.248 99.6294C173.174 94.3278 173.192 92.2222 173.314 92.1093C173.342 92.0717 174.689 92.0623 176.299 92.0719C178.413 92.0906 179.246 92.1282 179.33 92.2033C179.424 92.2975 179.452 95.7755 179.452 108.099C179.461 116.775 179.433 123.9 179.405 123.938C179.321 124.013 173.997 124.079 173.707 124.004C173.501 123.957 173.482 123.872 173.323 122.707C172.575 116.916 170.965 113.024 167.298 108.108C166.1 106.51 164.865 105.194 163.143 103.681C162.432 103.051 160.963 101.951 160.842 101.951C160.814 101.951 160.767 106.867 160.757 112.883C160.729 120.479 160.692 123.844 160.617 123.929C160.542 124.022 159.915 124.041 157.614 124.022C156.014 124.004 154.648 123.957 154.591 123.919C154.498 123.853 154.47 120.554 154.47 107.902V91.959L154.76 92.0247C154.919 92.053 155.583 92.2785 156.229 92.5135Z" fill="#FF0900"/>
</g>
</svg>
