<svg width="274" height="216" viewBox="0 0 274 216" fill="none" xmlns="http://www.w3.org/2000/svg">
<g style="mix-blend-mode:luminosity">
<g clip-path="url(#clip0_627_3222)">
<path fill-rule="evenodd" clip-rule="evenodd" d="M200.909 76.3809C201.719 76.3785 202.523 76.5322 203.272 76.8331C204.013 77.131 204.685 77.5704 205.248 78.125C205.812 78.6802 206.258 79.3384 206.558 80.0613C206.858 80.7843 207.007 81.5577 206.997 82.3367C207.003 83.1109 206.853 83.8788 206.556 84.5976C206.245 85.3023 205.791 85.9393 205.221 86.471C204.642 87.0238 203.957 87.4625 203.205 87.7629C202.469 88.0601 201.679 88.2137 200.882 88.2151C200.08 88.2252 199.285 88.0755 198.545 87.7755C197.805 87.4754 197.138 87.0314 196.583 86.471C196.014 85.9286 195.56 85.2833 195.248 84.5718C194.96 83.8599 194.815 83.1013 194.82 82.3367C194.823 81.5693 194.982 80.8098 195.288 80.1017C195.598 79.3736 196.051 78.711 196.623 78.1508C197.164 77.5953 197.819 77.1552 198.545 76.8589C199.287 76.5671 200.081 76.4179 200.882 76.4196L200.909 76.3809ZM206.329 82.3367C206.333 81.6419 206.197 80.9529 205.929 80.3084C205.695 79.6692 205.327 79.084 204.847 78.5901C204.339 78.0974 203.736 77.7067 203.071 77.4403C202.406 77.1764 201.694 77.0404 200.975 77.0398C200.272 77.0375 199.574 77.1699 198.924 77.4293C198.273 77.6888 197.682 78.0701 197.184 78.5514C196.669 79.0534 196.256 79.6451 195.969 80.2955C195.667 80.9367 195.508 81.6321 195.501 82.3367C195.497 83.0162 195.638 83.6892 195.915 84.3134C196.189 84.9532 196.593 85.5331 197.104 86.0188C197.605 86.5125 198.205 86.9035 198.866 87.1686C199.518 87.4279 200.217 87.5596 200.922 87.5562C201.633 87.5593 202.337 87.4231 202.991 87.1557C203.687 86.8806 204.319 86.4718 204.847 85.9542C205.346 85.4899 205.742 84.9315 206.009 84.3134C206.241 83.6794 206.35 83.0092 206.329 82.3367ZM201.082 78.8227H198.519V85.5666H199.573V82.5951H201.216L202.684 85.5666H203.899L202.324 82.4401C202.788 82.3955 203.22 82.1888 203.539 81.8587C203.836 81.5257 203.993 81.097 203.979 80.6572C204.001 80.3828 203.947 80.1078 203.823 79.8603C203.698 79.6128 203.508 79.4018 203.272 79.249C202.602 78.8955 201.843 78.7341 201.082 78.7839V78.8227ZM200.882 79.5203H199.547V81.9104H200.882C201.416 81.9484 201.953 81.8597 202.444 81.652C202.596 81.5509 202.718 81.4129 202.797 81.252C202.877 81.091 202.912 80.9127 202.898 80.7347C202.915 80.5482 202.879 80.3607 202.794 80.1923C202.71 80.0239 202.579 79.881 202.417 79.7787C201.931 79.54 201.385 79.4371 200.842 79.4816L200.882 79.5203Z" fill="#6A102C"/>
<path fill-rule="evenodd" clip-rule="evenodd" d="M136.49 72.0005C119.921 72.0005 101.564 74.9849 86.7975 82.4911C76.891 87.5038 65.9966 96.1857 65.9966 107.994C65.9966 119.802 76.891 128.484 86.7975 133.51C101.564 141.016 119.921 144 136.49 144C153.059 144 171.47 141.016 186.156 133.51C196.089 128.484 206.983 119.802 206.983 107.994C206.983 96.1857 196.089 87.5038 186.156 82.4911C171.47 74.9849 153.059 72.0005 136.49 72.0005ZM79.3476 89.2867L81.2568 87.9301L83.2861 86.6382L85.4357 85.3463L87.7053 84.1448L90.0818 82.9949L92.5784 81.8968L95.1685 80.8503L97.8387 79.8813L100.709 78.977L103.606 78.1372L106.57 77.3621L109.628 76.6515L112.725 76.0314L115.943 75.4758L119.214 74.9978L122.578 74.5844L125.983 74.2743L129.441 74.0418L132.939 73.9126H136.49H140.055L143.566 74.0547L147.024 74.2743L150.428 74.5844L153.766 74.972L157.05 75.45L160.255 76.0055L163.459 76.6644L166.516 77.3621L169.494 78.1372L172.377 78.9899L175.181 79.8943L177.851 80.8761L180.522 81.9097L183.018 83.0078L185.395 84.1706L187.664 85.3721L189.814 86.664L191.843 87.956L193.739 89.3125L195.501 90.7078L197.13 92.1419L198.612 93.6147L199.947 95.1134L201.135 96.6508L202.177 98.214L203.071 99.7902L203.806 101.405L204.38 103.033L204.794 104.674L205.034 106.34L205.127 108.02L205.034 109.712L204.78 111.379L204.366 113.02L203.699 114.635L202.965 116.237L202.083 117.813L201.029 119.376L199.84 120.913L198.505 122.412L197.023 123.885L195.395 125.319L193.619 126.714L191.723 128.006L189.707 129.298L187.558 130.59L185.288 131.792L182.898 132.941L180.401 134.04L177.811 135.073L175.141 136.055L172.337 136.972L169.413 137.89L166.436 138.665L163.379 139.362L160.241 139.995L157.024 140.473L153.753 140.951L150.415 141.339L147.011 141.765L143.553 141.985L140.041 142.127H136.49H132.925L129.427 141.985L125.956 141.765L122.565 141.455L119.214 141.055L115.943 140.473L112.725 139.97L109.588 139.337L106.53 138.639L103.553 137.89L100.709 137.011L97.9055 136.107L95.2353 135.125L92.5651 134.091L90.0284 132.993L87.6386 131.83L85.3689 130.629L83.2194 129.337L81.19 128.045L79.3075 126.753L77.5853 125.306L75.9564 123.872L74.4745 122.386L73.1394 120.888L71.9511 119.35L70.9098 117.787L70.0019 116.224L69.2676 114.635L68.6668 112.981L68.2663 111.34L68.0126 109.674L67.9325 107.994L68.0126 106.302L68.2663 104.635L68.6668 103.007L69.2409 101.379L70.0019 99.7643L70.8964 98.1753L71.9378 96.6249L73.126 95.0875L74.4611 93.5889L75.9431 92.116L77.5719 90.682L79.3476 89.2867Z" fill="#6A102C"/>
<path fill-rule="evenodd" clip-rule="evenodd" d="M158.118 90.4633C160.193 90.6563 162.154 91.4741 163.725 92.8017C166.101 94.8171 168.358 96.9617 170.534 99.171C170.297 98.5312 170.162 97.8603 170.133 97.1814V96.9617C170.145 95.9943 170.377 95.0413 170.814 94.1711C171.252 93.3446 171.872 92.6212 172.63 92.0524C173.008 91.7647 173.421 91.5218 173.858 91.3289C174.786 90.9284 175.794 90.7342 176.809 90.7604H190.427C190.913 90.7761 191.395 90.8367 191.869 90.9413C192.329 91.0453 192.777 91.1969 193.204 91.3935C194.316 91.8881 195.261 92.677 195.93 93.6691C196.598 94.6613 196.963 95.8162 196.982 97.0005V97.1297C196.982 97.9553 196.809 98.7723 196.474 99.5316C196.139 100.291 195.649 100.977 195.033 101.548C193.8 102.697 192.165 103.352 190.454 103.383H190.16V123.447C190.164 123.845 190.128 124.243 190.053 124.635C189.824 125.874 189.23 127.022 188.344 127.943C187.442 128.868 186.267 129.504 184.98 129.764C184.541 129.857 184.093 129.901 183.645 129.893C182.68 129.91 181.72 129.752 180.814 129.428C179.855 129.071 178.998 128.495 178.318 127.749L169.519 117.349C169.102 116.818 168.575 116.378 167.971 116.057C167.301 115.832 166.596 115.727 165.888 115.747H157.877C158.345 116.315 158.812 116.871 159.306 117.426C159.617 117.796 159.89 118.194 160.12 118.615C160.344 119.026 160.523 119.459 160.654 119.907C160.984 121.069 160.971 122.297 160.617 123.452C160.263 124.607 159.582 125.643 158.652 126.444C158.34 126.711 158 126.945 157.637 127.142C157.288 127.336 156.921 127.501 156.542 127.632C155.395 128.029 154.158 128.114 152.964 127.878C152.645 129.111 151.958 130.225 150.988 131.082C149.673 132.201 147.957 132.775 146.209 132.681C144.461 132.586 142.821 131.831 141.642 130.578C139.974 128.795 138.398 126.935 136.836 125.074C136.422 125.565 136.022 126.069 135.608 126.573C134.54 127.865 133.472 129.157 132.323 130.449C131.759 131.111 131.06 131.654 130.27 132.045C129.48 132.437 128.616 132.667 127.731 132.723C126.003 132.822 124.302 132.277 122.978 131.198L122.844 131.095C122.631 130.901 122.417 130.694 122.217 130.475C122.016 130.255 121.843 130.01 121.669 129.764C121.282 129.17 120.993 128.52 120.815 127.839C119.809 128.035 118.771 128.006 117.779 127.755C116.786 127.504 115.866 127.038 115.087 126.392C114.713 126.082 114.377 125.731 114.086 125.346C113.796 124.968 113.549 124.561 113.352 124.131C112.845 123.033 112.666 121.82 112.833 120.629C113.001 119.437 113.509 118.315 114.3 117.387L115.741 115.747H108.332C107.5 115.701 106.667 115.806 105.875 116.057C105.17 116.409 104.561 116.918 104.099 117.542V117.607L94.9139 127.749L94.687 127.994C94.4711 128.205 94.239 128.399 93.9927 128.576C93.755 128.751 93.5052 128.911 93.245 129.054C92.0109 129.678 90.6317 129.985 89.2397 129.945H88.906C88.431 129.904 87.9614 129.817 87.5041 129.687C87.065 129.555 86.6402 129.382 86.2358 129.17C85.1986 128.618 84.3318 127.809 83.7242 126.826C83.1165 125.843 82.7899 124.721 82.7779 123.576V103.383H82.6043C82.2781 103.387 81.9522 103.365 81.6297 103.318C80.6981 103.195 79.8078 102.868 79.0262 102.362C78.1211 101.782 77.3796 100.993 76.8691 100.066C76.3586 99.1384 76.095 98.1027 76.1024 97.0522C76.0824 96.7553 76.0824 96.4576 76.1024 96.1607C76.3347 94.8296 77.0042 93.6064 78.0115 92.6725C79.0069 91.7136 80.2937 91.0888 81.6831 90.8896C81.9839 90.8488 82.2872 90.8273 82.5909 90.825H101.015C101.941 90.8545 102.85 91.07 103.686 91.4581C104.524 91.8467 105.265 92.4057 105.859 93.0968C106.454 93.788 106.887 94.5951 107.13 95.4631L107.384 95.2564C108.438 94.3133 109.507 93.4089 110.601 92.5045C110.9 92.259 111.217 92.0345 111.549 91.8327C111.88 91.6359 112.224 91.459 112.577 91.303C113.542 90.8802 114.578 90.6307 115.635 90.5666C115.608 90.201 115.608 89.8341 115.635 89.4685C115.663 89.1343 115.712 88.8021 115.782 88.4737C115.847 88.1436 115.941 87.8195 116.062 87.5047C116.673 85.9563 117.865 84.6877 119.4 83.9519H119.493C119.859 83.7899 120.238 83.6601 120.628 83.5643C121.007 83.4644 121.397 83.4037 121.789 83.3834C122.761 83.3265 123.735 83.4596 124.653 83.7748C125.57 84.09 126.413 84.5808 127.13 85.218C128.972 86.7166 130.81 88.2368 132.644 89.7785C134.104 91.0188 135.545 92.2806 136.97 93.5639C138.385 92.272 139.813 90.98 141.255 89.6881C143.035 88.1291 144.86 86.6003 146.729 85.1017C147.01 84.8691 147.317 84.6495 147.624 84.4428C147.936 84.2462 148.262 84.0693 148.598 83.9131C149.487 83.4897 150.462 83.2631 151.453 83.2497C152.444 83.2362 153.425 83.4364 154.326 83.8356C154.64 83.971 154.939 84.1354 155.22 84.3265C155.498 84.5105 155.761 84.7135 156.008 84.9337C157.27 86.0746 158.026 87.6444 158.118 89.3134C158.131 89.4941 158.131 89.6754 158.118 89.856V90.3857V90.4633ZM156.689 91.5356C156.862 91.1213 156.979 90.687 157.036 90.2436V89.8173V89.3651C156.943 87.9676 156.298 86.6584 155.234 85.7089C155.025 85.53 154.807 85.3619 154.58 85.205C154.346 85.0502 154.1 84.912 153.845 84.7916C153.092 84.4555 152.269 84.288 151.44 84.3014C150.61 84.3148 149.794 84.5089 149.052 84.8691C148.766 85.0023 148.49 85.1533 148.224 85.3213C147.953 85.493 147.694 85.683 147.45 85.8898C145.594 87.4014 143.765 88.9258 141.976 90.4891C140.187 92.0524 138.612 93.4476 136.97 94.9721C135.301 93.4606 133.618 91.9878 131.896 90.5279C130.174 89.068 128.211 87.5047 126.356 85.9802C125.752 85.4396 125.043 85.0207 124.271 84.7479C123.499 84.475 122.678 84.3538 121.856 84.3911C121.535 84.4058 121.217 84.4578 120.908 84.5462C120.582 84.6228 120.264 84.731 119.96 84.8691C118.655 85.4729 117.63 86.5286 117.09 87.8277C116.992 88.0804 116.911 88.3394 116.85 88.6029C116.784 88.87 116.743 89.1425 116.729 89.4168C116.679 90.1405 116.803 90.8657 117.09 91.5356C115.722 91.4016 114.341 91.6154 113.085 92.1557C112.774 92.2877 112.475 92.4433 112.19 92.6208C111.896 92.7954 111.615 92.9897 111.349 93.2022C110.268 94.0678 109.213 94.9721 108.171 95.9023L106.276 97.6594C106.276 97.401 106.276 97.1297 106.276 96.8455C106.25 95.8913 105.953 94.9625 105.415 94.1621C104.878 93.3616 104.122 92.7209 103.232 92.3107C102.883 92.1416 102.516 92.0115 102.137 91.9232C101.753 91.8299 101.358 91.7822 100.962 91.781H82.5642C82.3136 91.7833 82.0636 91.8049 81.8166 91.8456C80.6548 92.0138 79.5797 92.5392 78.7502 93.3442C77.9208 94.1492 77.3809 95.191 77.2105 96.3158C77.1901 96.5565 77.1901 96.7985 77.2105 97.0392C77.2024 97.9184 77.4217 98.7856 77.8484 99.5619C78.2751 100.338 78.8957 100.999 79.6537 101.484C79.9722 101.683 80.3125 101.847 80.6684 101.974C81.033 102.114 81.4142 102.21 81.8032 102.259C82.0743 102.278 82.3465 102.278 82.6176 102.259H83.9527V123.524C83.9695 124.476 84.2448 125.407 84.751 126.223C85.2572 127.04 85.9765 127.713 86.8366 128.175C87.175 128.359 87.5332 128.506 87.9046 128.614C88.2843 128.721 88.673 128.794 89.0662 128.834H89.3332C90.5007 128.865 91.6575 128.611 92.6977 128.098C92.9177 127.981 93.1276 127.847 93.3252 127.697C93.5246 127.552 93.7121 127.392 93.8859 127.219L94.0728 127.025L103.232 116.896C103.792 116.127 104.545 115.509 105.421 115.101C106.347 114.79 107.327 114.658 108.305 114.713H118.118L115.928 117.219L115.154 118.098C114.502 118.866 114.081 119.793 113.937 120.778C113.793 121.762 113.933 122.766 114.34 123.679C114.5 124.04 114.702 124.382 114.94 124.7C115.189 125.023 115.476 125.318 115.795 125.578C116.443 126.115 117.21 126.501 118.036 126.707C118.862 126.913 119.726 126.934 120.561 126.767C120.882 126.714 121.195 126.628 121.496 126.508L121.709 126.418C121.741 127.391 122.046 128.338 122.591 129.157C122.725 129.366 122.877 129.565 123.044 129.751C123.217 129.942 123.399 130.123 123.592 130.294C124.702 131.213 126.139 131.677 127.597 131.586C128.317 131.571 129.026 131.416 129.682 131.13C130.338 130.844 130.928 130.432 131.416 129.919C132.537 128.627 133.605 127.335 134.673 126.043C135.354 125.191 136.008 124.338 136.743 123.459C138.572 125.656 140.401 127.839 142.377 129.919C143.356 130.965 144.722 131.596 146.178 131.676C147.635 131.756 149.065 131.278 150.16 130.346C151.118 129.523 151.739 128.395 151.909 127.167C151.923 126.957 151.923 126.745 151.909 126.534C153.215 127.088 154.689 127.143 156.035 126.689C156.354 126.578 156.662 126.44 156.956 126.276C157.251 126.103 157.532 125.908 157.797 125.695C158.572 125.03 159.138 124.166 159.428 123.204C159.719 122.242 159.723 121.22 159.439 120.255C159.332 119.876 159.185 119.508 158.999 119.157C158.81 118.8 158.576 118.466 158.304 118.163C157.57 117.323 156.849 116.457 156.142 115.579L155.608 114.636H165.901C166.762 114.615 167.619 114.755 168.425 115.049C169.189 115.414 169.856 115.944 170.374 116.599L179.159 126.935C179.716 127.555 180.422 128.034 181.215 128.33C181.994 128.602 182.817 128.738 183.645 128.731C183.995 128.729 184.343 128.695 184.686 128.627C185.748 128.439 186.725 127.943 187.49 127.206C188.231 126.437 188.727 125.477 188.918 124.441C188.979 124.118 189.006 123.789 188.998 123.459V102.31H190.334C191.765 102.293 193.135 101.748 194.165 100.786C194.671 100.31 195.074 99.7417 195.351 99.1142C195.628 98.4866 195.774 97.8122 195.781 97.1297V97.0005C195.771 96.0181 195.472 95.0587 194.918 94.235C194.365 93.4112 193.58 92.7572 192.657 92.3495C192.291 92.1919 191.911 92.0665 191.522 91.9748C191.124 91.8807 190.716 91.833 190.307 91.8327H176.809C175.98 91.843 175.162 92.0189 174.406 92.3495C174.047 92.512 173.706 92.7112 173.391 92.9438C172.764 93.4146 172.253 94.0149 171.896 94.7008C171.526 95.4243 171.33 96.2192 171.322 97.0263C171.323 97.9992 171.603 98.9527 172.131 99.7807C172.659 100.609 173.414 101.279 174.312 101.716C174.671 101.886 175.047 102.02 175.434 102.117C175.832 102.208 176.239 102.26 176.649 102.272H177.984V108.861C175.768 106.341 173.551 103.861 171.308 101.445C168.715 98.6856 165.969 96.0634 163.084 93.5898C161.651 92.3704 159.847 91.6357 157.944 91.4968C157.597 91.4774 157.249 91.4774 156.903 91.4968L156.689 91.5356ZM174.045 102.788C175.033 103.861 176.008 104.933 176.969 106.031V103.383H176.702C175.778 103.373 174.868 103.17 174.032 102.788H174.045ZM92.3372 111.289L102.457 99.8428C102.859 99.4607 103.178 99.004 103.393 98.5001C103.609 97.9962 103.718 97.4554 103.712 96.9101C103.674 96.2007 103.352 95.5337 102.813 95.0511C102.274 94.5685 101.562 94.3084 100.828 94.3262H82.5642C81.8188 94.3392 81.1073 94.6298 80.5776 95.1375C80.048 95.6452 79.741 96.331 79.7205 97.0522C79.7115 97.4183 79.7786 97.7825 79.9177 98.1232C80.0568 98.4638 80.265 98.774 80.5302 99.0354C80.7953 99.2968 81.1119 99.5041 81.4613 99.645C81.8107 99.7859 82.1857 99.8575 82.5642 99.8557H86.4093V123.524C86.4218 124.257 86.7208 124.957 87.2461 125.485C87.7714 126.012 88.4838 126.327 89.2397 126.366C89.7651 126.413 90.2946 126.349 90.7923 126.18C91.2899 126.01 91.744 125.739 92.1236 125.384L101.242 115.294C102.032 114.213 103.105 113.354 104.351 112.807C105.597 112.26 106.971 112.044 108.332 112.181H123.018C125.394 109.545 127.891 106.884 130.201 104.3C127.09 101.445 123.992 98.5637 120.414 95.6181C119.418 94.7115 118.122 94.1752 116.756 94.1043C115.39 94.0334 114.042 94.4323 112.951 95.2305C109.616 97.9644 106.493 100.931 103.605 104.106C100.161 107.853 95.7016 112.775 92.3772 116.625V111.289H92.3372ZM92.3372 102.556C92.3372 103.098 93.0047 103.202 93.3519 102.827L95.488 100.553C95.755 100.269 95.6883 99.8557 94.994 99.8428H92.8712C92.7246 99.8357 92.581 99.8844 92.4712 99.9786C92.3614 100.073 92.2941 100.205 92.2838 100.347V102.556H92.3372ZM116.636 107.026H122.243C123.378 107.026 123.685 106.199 123.004 105.579L119.079 102.052C118.411 101.478 117.543 101.169 116.649 101.186C115.752 101.169 114.88 101.478 114.206 102.052L110.228 105.592C109.547 106.212 109.854 107.039 110.989 107.039L116.636 107.026ZM150.681 112.917H147.437C146.09 112.869 144.753 113.154 143.552 113.744C146.702 117.051 149.293 120.307 152.136 123.498C152.659 124.077 153.397 124.433 154.189 124.488C154.982 124.544 155.765 124.295 156.369 123.795C156.955 123.279 157.308 122.559 157.35 121.793C157.393 121.026 157.122 120.274 156.596 119.7C154.673 117.529 152.951 115.139 150.694 112.904L150.681 112.917ZM131.349 113.434C131.536 113.589 131.829 113.86 132.003 114.041C136.849 119.041 139.88 123.434 144.393 128.253C144.923 128.825 145.666 129.171 146.459 129.214C147.252 129.258 148.031 128.996 148.625 128.485C149.192 127.959 149.525 127.239 149.553 126.479C149.58 125.719 149.3 124.979 148.772 124.416C144.299 119.248 140.147 114.08 135.221 109.145C133.886 110.566 132.55 111.987 131.322 113.434H131.349ZM136.476 119.997C135.221 118.524 134.019 117.077 132.657 115.643C130.08 118.511 127.544 121.47 124.994 124.416C124.483 125.001 124.231 125.757 124.291 126.52C124.351 127.284 124.718 127.994 125.314 128.498C125.906 129.008 126.682 129.27 127.473 129.226C128.264 129.183 129.005 128.837 129.533 128.266C131.976 125.488 134.019 122.684 136.436 119.997H136.476ZM136.476 106.923C135.141 105.631 133.805 104.339 132.363 102.969C126.903 108.563 121.856 114.338 117.143 119.674C116.639 120.266 116.396 121.026 116.466 121.79C116.536 122.553 116.913 123.26 117.517 123.757C117.813 124.008 118.157 124.199 118.529 124.321C118.902 124.443 119.296 124.492 119.688 124.465C120.08 124.439 120.463 124.338 120.815 124.167C121.166 123.997 121.479 123.761 121.736 123.472C126.315 118.137 131.215 112.349 136.422 106.923H136.476ZM141.562 102C145.303 98.2453 149.319 94.7566 153.578 91.5614C156.248 89.3263 152.67 84.7399 149.119 87.7631C145.007 91.1092 141.469 94.2228 137.41 97.9953C138.79 99.2356 140.174 100.571 141.562 102ZM142.804 104.106C140.895 102.194 138.799 100.23 136.93 98.3829C132.857 94.507 128.825 91.1997 124.713 87.8535C121.162 84.8304 117.531 89.4168 120.267 91.6518C124.433 94.8688 128.665 98.6025 132.737 102.388C134.687 104.3 136.609 106.186 138.612 108.176C139.947 106.781 141.375 105.527 142.764 104.158L142.804 104.106ZM137.464 110.411C138.799 111.871 140.227 113.382 141.335 114.648C143.258 112.749 145.034 112.375 148.091 112.194H165.955C167.18 112.114 168.407 112.334 169.522 112.833C170.638 113.331 171.605 114.094 172.336 115.049L181.108 125.384C181.44 125.715 181.843 125.972 182.288 126.137C182.733 126.302 183.209 126.372 183.685 126.341C184.443 126.304 185.156 125.982 185.672 125.444C186.188 124.906 186.467 124.194 186.448 123.459V99.804H190.28C191.038 99.804 191.765 99.5127 192.3 98.9942C192.836 98.4757 193.137 97.7725 193.137 97.0392C193.137 96.306 192.836 95.6028 192.3 95.0843C191.765 94.5658 191.038 94.2745 190.28 94.2745H176.809C176.43 94.2587 176.051 94.3177 175.696 94.4478C175.341 94.5779 175.017 94.7764 174.743 95.0313C174.47 95.2862 174.253 95.5922 174.105 95.9307C173.958 96.2692 173.883 96.6331 173.885 97.0005C173.88 97.3741 173.952 97.745 174.097 98.0913C174.241 98.4376 174.456 98.7524 174.729 99.0172C175.001 99.282 175.326 99.4915 175.683 99.6332C176.04 99.775 176.423 99.8462 176.809 99.8428H180.547V115.669C174.806 109.209 169.119 102.155 161.308 95.5148C160.756 95.009 160.106 94.6138 159.395 94.3517C158.684 94.0896 157.927 93.9658 157.167 93.9874C156.406 94.009 155.658 94.1756 154.964 94.4776C154.271 94.7796 153.645 95.2111 153.124 95.7473C147.594 100.342 142.339 105.238 137.383 110.411H137.464ZM157.383 107.026H162.991C164.126 107.026 164.433 106.199 163.752 105.579L159.827 102.052C159.158 101.478 158.29 101.169 157.397 101.186C156.499 101.169 155.627 101.478 154.953 102.052L150.948 105.592C150.254 106.212 150.561 107.039 151.696 107.039L157.383 107.026ZM117.891 103.241C117.767 103.135 117.627 103.048 117.477 102.982H117.317H117.143C116.957 102.962 116.769 102.962 116.583 102.982H116.155H115.995H115.835C115.638 103.045 115.456 103.146 115.301 103.279L113.725 104.7L112.898 105.437H120.294L119.466 104.7L117.891 103.279V103.241ZM158.598 103.241C158.476 103.133 158.336 103.045 158.184 102.982H158.024H157.864C157.678 102.963 157.49 102.963 157.303 102.982C157.161 102.969 157.018 102.969 156.876 102.982H156.702H156.542C156.345 103.045 156.163 103.146 156.008 103.279L154.433 104.7L153.618 105.437H161.001L160.174 104.7L158.598 103.241Z" fill="#6A102C"/>
</g>
</g>
<defs>
<clipPath id="clip0_627_3222">
<rect width="141" height="72" fill="white" transform="translate(66 72)"/>
</clipPath>
</defs>
</svg>
