<svg width="231" height="32" viewBox="0 0 231 32" fill="none" xmlns="http://www.w3.org/2000/svg">
<g clip-path="url(#clip0_2001_7317)">
<path fill-rule="evenodd" clip-rule="evenodd" d="M0.0225934 3.39015C0.0652414 6.0639 0.0888005 6.32358 0.336956 6.85617C0.758483 7.76038 1.27606 8.33096 2.0256 8.71808L2.71788 9.0756L13.5007 9.11003L24.2835 9.14446V6.41493C24.2835 3.11661 24.1681 2.62633 23.1424 1.56775C22.0425 0.432568 22.8285 0.499777 10.6587 0.499777H-0.0234375L0.0225934 3.39015ZM218.149 3.93938C217.518 4.4613 217.884 5.58174 218.686 5.58174C219.097 5.58174 219.489 5.23947 219.59 4.79086C219.652 4.51339 219.595 4.36842 219.302 4.06033C218.872 3.60867 218.585 3.57843 218.149 3.93938ZM36.6661 4.33298C36.6323 4.42585 36.6188 9.93318 36.636 16.5715L36.6671 28.6412L41.4394 28.6787C46.5147 28.7187 48.3148 28.6137 49.7552 28.194C52.2658 27.4623 53.9403 25.7753 54.5509 23.3629C54.7703 22.4955 54.7779 20.587 54.5652 19.7471C54.0495 17.7107 52.7793 16.2926 50.7593 15.4983L50.0324 15.2125L50.8613 14.7764C51.8082 14.2783 52.3339 13.7111 52.7839 12.7023C53.0739 12.052 53.0981 11.8651 53.0981 10.2757V8.55381L52.6431 7.58595C51.8971 5.99885 50.6304 5.02425 48.6279 4.49649C47.9013 4.30503 47.0039 4.2659 42.2548 4.21889C37.7324 4.17404 36.7162 4.19488 36.6661 4.33298ZM75.9927 16.4444V28.7047H78.3486H80.7045V16.4444V4.1842H78.3486H75.9927V16.4444ZM95.5649 8.58125V12.9783L95.1609 12.3619C94.6798 11.6276 93.5124 10.7525 92.6335 10.467C91.6584 10.1504 90.0977 10.0921 89.1133 10.3357C87.7134 10.6819 86.7933 11.2246 85.7473 12.3211C84.9695 13.1362 84.719 13.5067 84.2792 14.493C83.3906 16.4855 83.083 18.7222 83.3555 21.212C83.755 24.8651 85.4409 27.4388 88.1496 28.5306C89.1313 28.9264 91.0163 29.0792 92.0475 28.8467C93.352 28.5525 94.8143 27.553 95.2972 26.6255L95.5045 26.2272L95.5649 27.4342L95.6253 28.6412L97.951 28.6757L100.277 28.7102V16.4472V4.1842H97.9208H95.5649V8.58125ZM111.15 16.4451V28.7277L116.919 28.6695C122.27 28.6155 122.766 28.5917 123.764 28.3416C126.498 27.6562 128.167 26.1472 128.981 23.6227C129.313 22.595 129.282 20.2854 128.923 19.2395C128.582 18.2444 127.969 17.2859 127.318 16.7276C126.755 16.2443 125.552 15.5639 125.013 15.4232C124.496 15.2886 124.519 15.1616 125.103 14.927C125.812 14.6423 126.8 13.6951 127.15 12.9643C127.707 11.8012 127.858 10.0765 127.522 8.71897C126.974 6.50628 125.679 5.2382 123.249 4.53473C122.387 4.28508 121.957 4.26399 116.738 4.21495L111.15 4.16248V16.4451ZM193.419 8.59916C193.413 12.7931 193.403 12.9982 193.208 12.6965C192.691 11.8952 192.008 11.2669 191.204 10.8515C190.131 10.2976 189.171 10.1061 187.929 10.1982C184.773 10.4321 182.428 12.6039 181.439 16.2079C181.199 17.084 181.165 17.4957 181.164 19.5572C181.163 22.2595 181.294 22.9904 182.098 24.7662C182.486 25.6229 182.777 26.0439 183.506 26.8033C184.984 28.3427 186.396 28.9588 188.447 28.9588C190.461 28.9588 192 28.1948 193.047 26.6756L193.426 26.1256V27.4151V28.7047H195.782H198.138V16.4444V4.1842H195.782H193.426L193.419 8.59916ZM228.1 5.51822V6.34404H227.617H227.133V7.04281V7.74158H227.617H228.1L228.1 9.48851C228.1 11.4705 228.226 11.9113 228.933 12.4081C229.26 12.6379 229.512 12.6965 230.172 12.6965H231V11.9977V11.299H230.585C229.872 11.299 229.791 11.0997 229.791 9.32754V7.75556L230.365 7.71681L230.939 7.67806L230.976 7.01105L231.012 6.34404H230.402H229.791V5.51822V4.6924H228.946H228.1V5.51822ZM223.392 6.50285C223.063 6.68047 222.779 6.95642 222.642 7.23135L222.422 7.67412V7.00901V6.34404H221.576H220.73V9.45674V12.5694H221.576H222.422V10.6062C222.422 9.48101 222.477 8.51544 222.551 8.34417C222.732 7.92529 223.086 7.72659 223.664 7.71808C224.058 7.71249 224.219 7.7816 224.439 8.05094C224.705 8.37606 224.717 8.48279 224.717 10.4803V12.5694H225.563H226.409V10.246C226.409 8.08906 226.389 7.88184 226.137 7.35561C225.823 6.70245 225.064 6.21699 224.355 6.21699C224.117 6.21699 223.684 6.34569 223.392 6.50285ZM217.831 9.45674V12.5694H218.676H219.522V9.45674V6.34404H218.676H217.831V9.45674ZM41.5602 11.3555V14.094L44.0067 14.0912C46.1187 14.0888 46.52 14.0566 46.9414 13.8552C47.9294 13.3833 48.3811 12.4546 48.3057 11.051C48.2499 10.0133 47.8662 9.30606 47.1587 8.9366C46.7549 8.72583 46.3627 8.68949 44.1275 8.6557L41.5602 8.61695V11.3555ZM115.983 11.3693V14.1078L118.62 14.0691L121.257 14.0305L121.759 13.681C122.64 13.0671 123.069 11.6543 122.75 10.4142C122.568 9.7036 121.883 8.96163 121.236 8.77258C120.96 8.69216 119.737 8.63207 118.369 8.63169L115.983 8.63092V11.3693ZM63.0124 10.3565C59.8528 11.1014 57.6825 13.2852 56.8359 16.5715C56.5665 17.6171 56.4704 20.3276 56.6593 21.5582C57.1923 25.0334 59.055 27.4662 61.981 28.5088C62.844 28.8162 63.2538 28.8826 64.5867 28.9303C65.9141 28.978 66.3317 28.9442 67.1843 28.7203C70.0755 27.9611 72.1012 25.9284 72.9651 22.9196C73.4621 21.1883 73.4923 18.2722 73.032 16.4444C72.3123 13.5858 70.4104 11.4889 67.7168 10.5842C66.4642 10.1634 64.2797 10.0577 63.0124 10.3565ZM149.514 10.2884C146.067 10.857 144.375 12.6215 144.375 15.6468C144.375 16.6404 144.381 16.6628 144.646 16.588C144.796 16.546 145.763 16.5106 146.796 16.5098L148.674 16.508L148.812 15.8177C149.081 14.4655 149.718 13.965 151.292 13.8661C153.31 13.7393 154.281 14.5575 154.281 16.3836C154.281 17.0747 154.036 17.4861 153.476 17.7322C153.249 17.8317 151.992 18.0843 150.682 18.2935C146.945 18.8905 145.677 19.3451 144.603 20.4733C143.79 21.3276 143.487 22.2066 143.477 23.7498C143.465 25.7061 143.963 26.912 145.19 27.8963C146.06 28.5944 146.916 28.8612 148.503 28.9291C149.697 28.9801 150.041 28.9488 150.738 28.7253C152.147 28.274 153.219 27.3797 153.955 26.0407L154.342 25.3379L154.376 27.0213L154.409 28.7047H156.641H158.872V21.8072C158.872 14.457 158.852 14.1527 158.264 12.9414C157.719 11.8172 156.417 10.8709 154.856 10.4642C153.947 10.2273 150.56 10.1157 149.514 10.2884ZM171.33 10.2845C169.493 10.6929 167.793 12.3038 167.404 14.004C167.221 14.8032 167.088 14.1174 167.088 12.3714V10.5367H164.731H162.375L162.405 19.5889L162.436 28.6412L164.754 28.6756L167.07 28.7102L167.113 22.9584C167.153 17.5092 167.168 17.1745 167.401 16.5925C167.993 15.1188 169.012 14.4247 170.592 14.419C171.09 14.4173 171.692 14.4875 171.931 14.5754C172.499 14.7849 173.105 15.4162 173.419 16.1268C173.662 16.6748 173.675 16.9462 173.733 22.6699L173.793 28.6412L176.124 28.6757L178.455 28.7102L178.418 21.8786C178.382 15.1577 178.377 15.0331 178.106 14.1906C177.545 12.4414 176.383 11.1413 174.833 10.5268C174.06 10.2206 172.196 10.0917 171.33 10.2845ZM206.413 10.2265C206.281 10.2587 205.873 10.3479 205.507 10.4246C204.496 10.6368 203.178 11.33 202.481 12.016C201.34 13.138 200.828 14.7613 201.058 16.5282C201.196 17.5913 201.522 18.2959 202.246 19.1013C203.143 20.0986 204.207 20.6079 206.552 21.1631C209.391 21.8351 209.734 21.9492 210.116 22.3515C210.403 22.6533 210.461 22.82 210.461 23.3491C210.461 24.5094 209.598 25.15 207.991 25.1817C206.303 25.2153 205.196 24.5554 204.884 23.3309L204.732 22.7334H202.643H200.554V23.2149C200.554 23.8782 200.852 25.0231 201.229 25.8051C201.922 27.2436 203.523 28.3582 205.493 28.7747C206.774 29.0452 209.764 28.972 210.884 28.6427C212.77 28.0879 214.158 27.0039 214.835 25.5577C215.185 24.8115 215.234 24.5741 215.272 23.4395C215.328 21.8176 215.058 20.9612 214.189 19.9942C213.17 18.8621 212.222 18.4415 209.055 17.7175C207.934 17.4614 206.785 17.1357 206.501 16.9939C205.898 16.6933 205.628 16.2272 205.628 15.4882C205.628 14.5385 206.479 13.9693 207.9 13.9678C209.407 13.966 210.426 14.6218 210.721 15.7834L210.873 16.3809H212.842C215.109 16.3809 214.947 16.5081 214.638 14.9746C214.178 12.6938 212.727 11.1274 210.455 10.4611C209.818 10.2739 206.913 10.1053 206.413 10.2265ZM139.89 10.6213C138.705 11.0371 137.65 12.1614 137.097 13.5975C136.924 14.0454 136.738 14.526 136.682 14.6658C136.622 14.8185 136.569 14.0454 136.549 12.7283L136.516 10.5367H134.163H131.81V19.6207V28.7047H134.157H136.504L136.549 23.8451C136.591 19.2548 136.609 18.9391 136.858 18.1488C137.603 15.7943 139.394 14.5986 141.95 14.7504L142.804 14.8011V12.6825C142.804 10.8678 142.776 10.5528 142.613 10.4867C142.244 10.3378 140.444 10.4269 139.89 10.6213ZM2.46464 11.9122C0.606617 12.5876 -0.329585 14.6993 0.119488 17.2019C0.375376 18.6282 1.38129 19.8218 2.63608 20.1882C2.92266 20.2721 6.81801 20.3183 13.6162 20.3187L24.1519 20.3195L23.9722 19.7837C23.3627 17.9668 21.7593 16.4775 20.055 16.1449C19.5213 16.0407 19.5181 16.037 19.8737 15.9451C21.2211 15.5973 22.1616 15.0571 22.8842 14.2159C23.288 13.7459 23.9115 12.5869 24.0947 11.966L24.179 11.6801L13.6296 11.6843C3.87565 11.6881 3.03393 11.7053 2.46464 11.9122ZM63.9998 14.4864C62.3228 14.9018 61.2691 16.3208 61.0073 18.5162C60.7587 20.601 61.2288 22.5929 62.2139 23.6288C63.5786 25.0638 66.0525 25.1673 67.4768 23.8488C68.8235 22.6021 69.3486 19.7588 68.6791 17.3372C68.0782 15.1633 66.1093 13.9638 63.9998 14.4864ZM90.7263 14.5133C89.6131 14.8449 88.7522 15.6452 88.2445 16.8198C87.4719 18.6078 87.5895 21.3318 88.5059 22.8711C89.7682 24.9916 92.5404 25.4153 94.2707 23.7523C96.6974 21.42 96.128 16.0178 93.3176 14.7105C92.6397 14.3951 91.4314 14.3032 90.7263 14.5133ZM188.388 14.577C186.444 15.3071 185.577 16.8642 185.574 19.6293C185.572 21.5878 186.034 22.8945 187.055 23.8132C188.446 25.0656 190.669 25.0694 192.055 23.8219C192.635 23.2996 193.225 22.1699 193.43 21.1904C193.649 20.1376 193.526 18.0317 193.191 17.1118C192.438 15.0427 190.238 13.8817 188.388 14.577ZM41.5602 20.8143V24.258H44.1518C47.0648 24.258 47.7213 24.1565 48.5342 23.58C49.3732 22.9851 49.7159 22.2046 49.7131 20.8946C49.7105 19.6853 49.4051 18.8888 48.7144 18.2901C47.8955 17.5801 47.4514 17.4921 44.3692 17.4284L41.5602 17.3705V20.8143ZM116.063 17.4821C116.019 17.5286 115.983 19.0767 115.983 20.9222V24.2775L118.973 24.2345C121.82 24.1936 121.991 24.1773 122.534 23.8949C123.245 23.5246 123.901 22.7749 124.069 22.1389C124.23 21.5297 124.236 20.2639 124.08 19.6944C123.775 18.5762 122.838 17.7952 121.488 17.5354C120.715 17.3866 116.196 17.3422 116.063 17.4821ZM153.798 20.6418C153.632 20.7344 152.572 20.9893 151.442 21.2082C149.298 21.6237 148.857 21.7978 148.435 22.3933C148.082 22.8913 148.082 23.973 148.435 24.471C148.905 25.1347 149.398 25.3379 150.539 25.3376C151.459 25.3375 151.655 25.2929 152.376 24.9194C153.279 24.4524 153.974 23.703 154.16 22.9957C154.3 22.4679 154.324 20.4401 154.191 20.46C154.141 20.4673 153.964 20.5492 153.798 20.6418ZM2.95951 22.9443C2.0604 23.1581 1.18303 23.7475 0.727433 24.444C0.110306 25.3872 -0.000482479 26.068 -0.000482479 28.9184V31.4998H12.1497H24.2998L24.2615 28.6094C24.2233 25.741 24.2206 25.7136 23.886 24.9971C23.5041 24.1793 22.9188 23.5826 22.115 23.1915C21.5723 22.9274 21.4453 22.9237 12.3831 22.9054C7.33304 22.8951 3.0924 22.9127 2.95951 22.9443Z" fill="#FF2B44"/>
</g>
<defs>
<clipPath id="clip0_2001_7317">
<rect width="231" height="31" fill="white" transform="translate(0 0.5)"/>
</clipPath>
</defs>
</svg>
