<svg width="40" height="40" viewBox="0 0 40 40" fill="none" xmlns="http://www.w3.org/2000/svg">
<rect opacity="0.2" x="0.5" y="0.5" width="39" height="39" rx="19.5" stroke="#FF2B44"/>
<g clip-path="url(#clip0_2635_6365)">
<path d="M25.0482 21.114L25.04 21.1828C23.0242 20.1781 22.8134 20.0443 22.553 20.4348C22.3725 20.7052 21.8463 21.3184 21.6877 21.4999C21.5273 21.6787 21.3678 21.6924 21.0955 21.5687C20.8205 21.4312 19.9378 21.1424 18.8928 20.2074C18.0788 19.4787 17.5325 18.5849 17.3711 18.3099C17.1025 17.8461 17.6645 17.7801 18.176 16.8121C18.2676 16.6196 18.2209 16.4683 18.153 16.3318C18.0843 16.1943 17.537 14.8468 17.3079 14.3096C17.0879 13.7743 16.8615 13.8421 16.6919 13.8421C16.1639 13.7963 15.778 13.8036 15.4379 14.1574C13.9584 15.7836 14.3315 17.4611 15.5974 19.2449C18.0852 22.5009 19.4107 23.1004 21.8344 23.9328C22.4889 24.1408 23.0856 24.1115 23.5577 24.0437C24.0839 23.9603 25.1775 23.3828 25.4057 22.7365C25.6395 22.0903 25.6395 21.554 25.5707 21.4303C25.5029 21.3065 25.3232 21.2378 25.0482 21.114Z" fill="#FF2B44"/>
<path d="M27.81 11.162C20.7618 4.3484 9.09717 9.29015 9.09258 18.9023C9.09258 20.8236 9.59583 22.6973 10.5547 24.3519L9 30.0004L14.8071 28.4861C22.0533 32.4002 30.9963 27.2027 31 18.9078C31 15.9965 29.8633 13.2566 27.7962 11.1977L27.81 11.162ZM29.1685 18.8776C29.163 25.8745 21.4823 30.2442 15.4075 26.6729L15.0775 26.4767L11.64 27.3705L12.5612 24.0292L12.3422 23.6855C8.56183 17.6676 12.905 9.80256 20.066 9.80256C22.4988 9.80256 24.7823 10.7513 26.5019 12.4701C28.2207 14.1741 29.1685 16.4576 29.1685 18.8776Z" fill="#FF2B44"/>
</g>
<defs>
<clipPath id="clip0_2635_6365">
<rect width="22" height="22" fill="white" transform="translate(9 8)"/>
</clipPath>
</defs>
</svg>
