<svg width="20" height="21" viewBox="0 0 20 21" fill="none" xmlns="http://www.w3.org/2000/svg">
<path d="M8.4375 10.6562V4.40625L13.125 7.53125L8.4375 10.6562Z" stroke="#A8B0BB" stroke-width="1.5" stroke-miterlimit="10" stroke-linecap="round" stroke-linejoin="round"/>
<path d="M19.2187 12.2188C19.2187 13.0817 18.5192 13.7812 17.6562 13.7812H2.34375C1.48078 13.7812 0.78125 13.0817 0.78125 12.2188V2.84375C0.78125 1.98082 1.48078 1.28125 2.34375 1.28125H17.6562C18.5192 1.28125 19.2187 1.98082 19.2187 2.84375V12.2188Z" stroke="#A8B0BB" stroke-width="1.5" stroke-miterlimit="10" stroke-linecap="round" stroke-linejoin="round"/>
<path d="M0.78125 18.1562H3.75" stroke="#A8B0BB" stroke-width="1.5" stroke-miterlimit="10" stroke-linecap="round" stroke-linejoin="round"/>
<path d="M6.875 18.1562H19.2187" stroke="#A8B0BB" stroke-width="1.5" stroke-miterlimit="10" stroke-linecap="round" stroke-linejoin="round"/>
<path d="M6.875 18.1563C6.875 19.0192 6.17547 19.7188 5.3125 19.7188C4.44953 19.7188 3.75 19.0192 3.75 18.1563C3.75 17.2933 4.44953 16.5938 5.3125 16.5938C6.17547 16.5938 6.875 17.2933 6.875 18.1563Z" stroke="#A8B0BB" stroke-width="1.5" stroke-miterlimit="10" stroke-linecap="round" stroke-linejoin="round"/>
</svg>
