<svg width="20" height="21" viewBox="0 0 20 21" fill="none" xmlns="http://www.w3.org/2000/svg">
<path d="M6.875 8.9375L5.3125 10.5L6.875 12.0625" stroke="#A8B0BB" stroke-width="1.5" stroke-miterlimit="10" stroke-linecap="round" stroke-linejoin="round"/>
<path d="M13.125 8.9375L14.6875 10.5L13.125 12.0625" stroke="#A8B0BB" stroke-width="1.5" stroke-miterlimit="10" stroke-linecap="round" stroke-linejoin="round"/>
<path d="M6.875 1.28125V2.84375" stroke="#A8B0BB" stroke-width="1.5" stroke-miterlimit="10" stroke-linecap="round" stroke-linejoin="round"/>
<path d="M10 2.84375V1.28125" stroke="#A8B0BB" stroke-width="1.5" stroke-miterlimit="10" stroke-linecap="round" stroke-linejoin="round"/>
<path d="M13.125 1.28125V2.84375H14.5312C16.2571 2.84375 17.6562 4.24285 17.6562 5.96875V15.0312C17.6562 16.7571 16.2571 18.1562 14.5312 18.1562H5.46875C3.74285 18.1562 2.34375 16.7571 2.34375 15.0312V5.96875C2.34375 4.24285 3.74285 2.84375 5.46875 2.84375H6.875" stroke="#A8B0BB" stroke-width="1.5" stroke-miterlimit="10" stroke-linecap="round" stroke-linejoin="round"/>
<path d="M6.875 18.1562V19.7188" stroke="#A8B0BB" stroke-width="1.5" stroke-miterlimit="10" stroke-linecap="round" stroke-linejoin="round"/>
<path d="M10 18.1562V19.7188" stroke="#A8B0BB" stroke-width="1.5" stroke-miterlimit="10" stroke-linecap="round" stroke-linejoin="round"/>
<path d="M13.125 18.1562V19.7188" stroke="#A8B0BB" stroke-width="1.5" stroke-miterlimit="10" stroke-linecap="round" stroke-linejoin="round"/>
<path d="M0.78125 13.625H2.34375" stroke="#A8B0BB" stroke-width="1.5" stroke-miterlimit="10" stroke-linecap="round" stroke-linejoin="round"/>
<path d="M0.78125 10.5H2.34375" stroke="#A8B0BB" stroke-width="1.5" stroke-miterlimit="10" stroke-linecap="round" stroke-linejoin="round"/>
<path d="M0.78125 7.375H2.34375" stroke="#A8B0BB" stroke-width="1.5" stroke-miterlimit="10" stroke-linecap="round" stroke-linejoin="round"/>
<path d="M17.6562 13.625H19.2188" stroke="#A8B0BB" stroke-width="1.5" stroke-miterlimit="10" stroke-linecap="round" stroke-linejoin="round"/>
<path d="M17.6562 10.5H19.2188" stroke="#A8B0BB" stroke-width="1.5" stroke-miterlimit="10" stroke-linecap="round" stroke-linejoin="round"/>
<path d="M17.6562 7.375H19.2188" stroke="#A8B0BB" stroke-width="1.5" stroke-miterlimit="10" stroke-linecap="round" stroke-linejoin="round"/>
<path d="M10.7812 7.375L9.21875 13.625" stroke="#A8B0BB" stroke-width="1.5" stroke-miterlimit="10" stroke-linecap="round" stroke-linejoin="round"/>
</svg>
