<svg width="22" height="21" viewBox="0 0 22 21" fill="none" xmlns="http://www.w3.org/2000/svg">
<path d="M19.1991 13.248C20.8172 11.63 20.8172 9.0067 19.1991 7.3887C17.5811 5.77069 14.9578 5.77069 13.3398 7.3887C11.7218 9.0067 11.7218 11.63 13.3398 13.248C14.9578 14.866 17.5811 14.866 19.1991 13.248Z" stroke="#A8B0BB" stroke-width="1.5" stroke-miterlimit="10" stroke-linecap="round" stroke-linejoin="round"/>
<path d="M17.6044 10.3193C17.6044 11.0553 17.0079 11.6518 16.2719 11.6518C15.536 11.6518 14.9395 11.0553 14.9395 10.3193" stroke="#A8B0BB" stroke-width="1.5" stroke-miterlimit="10" stroke-linecap="round" stroke-linejoin="round"/>
<path d="M6.29567 8.8342L2.45684 5.56671C0.638201 4.03699 1.8876 1.14162 4.1816 1.09578C5.02925 1.07278 5.7904 1.44056 6.29567 2.02967C6.80087 1.44064 7.56187 1.07285 8.40939 1.09574C10.7066 1.14173 11.9528 4.04156 10.1335 5.57128L6.29567 8.8342Z" stroke="#A8B0BB" stroke-width="1.5" stroke-miterlimit="10" stroke-linecap="round" stroke-linejoin="round"/>
<path d="M4.17229 15.3066H1.59766V19.9028H4.17229V15.3066Z" stroke="#A8B0BB" stroke-width="1.5" stroke-miterlimit="10" stroke-linecap="round" stroke-linejoin="round"/>
<path d="M4.17188 19.9052H9.08608C9.8755 19.9052 10.5943 19.4503 10.9323 18.7369L11.9423 16.6048C12.4057 15.6266 11.694 14.4988 10.6116 14.4962L8.69775 14.4904L9.05336 12.9579C9.22727 12.2084 8.75066 11.4625 7.99743 11.3054H7.57127L6.76256 13.0127C6.51937 13.526 6.14366 13.9652 5.67411 14.2849L4.17191 15.3078" stroke="#A8B0BB" stroke-width="1.5" stroke-miterlimit="10" stroke-linecap="round" stroke-linejoin="round"/>
</svg>
