<svg width="22" height="21" viewBox="0 0 22 21" fill="none" xmlns="http://www.w3.org/2000/svg">
<path d="M2.79688 1.90625V14.1719" stroke="#A8B0BB" stroke-width="1.5" stroke-miterlimit="22.926" stroke-linecap="round" stroke-linejoin="round"/>
<path d="M1.58594 2.33594L2.79687 1.20313L4.00781 2.33594" stroke="#A8B0BB" stroke-width="1.5" stroke-miterlimit="22.926" stroke-linecap="round" stroke-linejoin="round"/>
<path d="M1.58594 13.7813L2.79687 14.9141L4.00781 13.7813" stroke="#A8B0BB" stroke-width="1.5" stroke-miterlimit="22.926" stroke-linecap="round" stroke-linejoin="round"/>
<path d="M13.2652 3.625L14.8857 6.20988L17.8448 6.95227L15.8872 9.29227L16.0955 12.3359L13.2652 11.1973L10.4348 12.3359L10.6431 9.29227L8.68555 6.95227L11.6446 6.20988L13.2652 3.625Z" stroke="#A8B0BB" stroke-width="1.5" stroke-miterlimit="22.926" stroke-linecap="round" stroke-linejoin="round"/>
<path d="M6.11719 14.9141H20.4141V1.08594H6.11719V14.9141Z" stroke="#A8B0BB" stroke-width="1.5" stroke-miterlimit="22.926" stroke-linecap="round" stroke-linejoin="round"/>
<path d="M19.7109 18.7031H6.3125" stroke="#A8B0BB" stroke-width="1.5" stroke-miterlimit="22.926" stroke-linecap="round" stroke-linejoin="round"/>
<path d="M19.2812 17.4922L20.4141 18.7031L19.2812 19.9141" stroke="#A8B0BB" stroke-width="1.5" stroke-miterlimit="22.926" stroke-linecap="round" stroke-linejoin="round"/>
<path d="M7.07422 17.4922L5.94141 18.7031L7.07422 19.9141" stroke="#A8B0BB" stroke-width="1.5" stroke-miterlimit="22.926" stroke-linecap="round" stroke-linejoin="round"/>
</svg>
