<svg width="118" height="118" viewBox="0 0 118 118" fill="none" xmlns="http://www.w3.org/2000/svg">
<rect x="0.5" y="0.5" width="117" height="117" rx="23.5" stroke="#D1D7E2"/>
<mask id="mask0_2043_11609" style="mask-type:luminance" maskUnits="userSpaceOnUse" x="19" y="18" width="80" height="81">
<path d="M19 18.5H99V98.5H19V18.5Z" fill="white"/>
</mask>
<g mask="url(#mask0_2043_11609)">
<path d="M87.125 58.5C87.125 54.75 84.8752 51.4687 81.6406 49.9687C82.1562 49.0311 82.4375 47.9062 82.4375 46.7812C82.4375 42.8906 79.2969 39.75 75.4062 39.75H72.5798C72.8645 39.0116 73.0625 38.2325 73.0625 37.4062C73.0625 33.5156 69.9219 30.375 66.0312 30.375C62.1406 30.375 59 33.5156 59 37.4062C59 33.5156 55.8594 30.375 51.9688 30.375C48.0781 30.375 44.9375 33.5156 44.9375 37.4062C44.9375 38.2325 45.1355 39.0116 45.4202 39.75H42.5938C38.7031 39.75 35.5625 42.8906 35.5625 46.7812C35.5625 47.9062 35.8438 49.0311 36.3594 49.9687C33.1248 51.4687 30.875 54.75 30.875 58.5C30.875 62.25 33.1248 65.5312 36.3594 67.0312C35.8438 67.9686 35.5625 69.0938 35.5625 70.2188C35.5625 74.1092 38.7031 77.25 42.5938 77.25H45.4198C45.1352 77.9884 44.9375 78.7678 44.9375 79.5938C44.9375 83.4842 48.0781 86.625 51.9688 86.625C55.8594 86.625 59 83.4842 59 79.5938C59 83.4842 62.1406 86.625 66.0312 86.625C69.9219 86.625 73.0625 83.4842 73.0625 79.5938C73.0625 78.7678 72.8648 77.9884 72.5802 77.25H75.4062C79.2969 77.25 82.4375 74.1092 82.4375 70.2188C82.4375 69.0938 82.1562 67.9686 81.6406 67.0312C84.8752 65.5312 87.125 62.25 87.125 58.5Z" stroke="#FF2B44" stroke-miterlimit="10"/>
<path d="M49.625 46.7812C49.625 50.6645 46.477 53.8125 42.5938 53.8125C38.7105 53.8125 35.5625 50.6645 35.5625 46.7812" stroke="#FF2B44" stroke-miterlimit="10"/>
<path d="M68.375 46.7812C68.375 50.6645 71.523 53.8125 75.4062 53.8125C79.2895 53.8125 82.4375 50.6645 82.4375 46.7812" stroke="#FF2B44" stroke-miterlimit="10"/>
<path d="M49.625 70.2188C49.625 66.3355 46.477 63.1875 42.5938 63.1875C38.7105 63.1875 35.5625 66.3355 35.5625 70.2188" stroke="#FF2B44" stroke-miterlimit="10"/>
<path d="M68.375 70.2188C68.375 66.3355 71.523 63.1875 75.4062 63.1875C79.2895 63.1875 82.4375 66.3355 82.4375 70.2188" stroke="#FF2B44" stroke-miterlimit="10"/>
<path d="M59 37.4062V44.4375" stroke="#FF2B44" stroke-miterlimit="10"/>
<path d="M59 72.5625V79.5938" stroke="#FF2B44" stroke-miterlimit="10"/>
<path d="M21.5 34.2582L31.4437 37.5728" stroke="#FF2B44" stroke-miterlimit="10"/>
<path d="M38.0731 30.9434L34.2061 19.2173" stroke="#FF2B44" stroke-miterlimit="10"/>
<path d="M31.4437 79.4272L21.5 82.7417" stroke="#FF2B44" stroke-miterlimit="10"/>
<path d="M38.0725 86.0561L34.2275 97.7471" stroke="#FF2B44" stroke-miterlimit="10"/>
<path d="M79.9277 30.9434L83.7582 19.3271" stroke="#FF2B44" stroke-miterlimit="10"/>
<path d="M86.5566 37.5728L96.5004 34.2582" stroke="#FF2B44" stroke-miterlimit="10"/>
<path d="M79.9277 86.0562L83.7876 97.792" stroke="#FF2B44" stroke-miterlimit="10"/>
<path d="M86.5566 79.4272L96.5004 82.7417" stroke="#FF2B44" stroke-miterlimit="10"/>
<path d="M59 49.125V67.875" stroke="#FF2B44" stroke-miterlimit="10"/>
</g>
</svg>
