<svg width="80" height="80" viewBox="0 0 80 80" fill="none" xmlns="http://www.w3.org/2000/svg">
<rect x="0.5" y="0.5" width="79" height="79" rx="23.5" stroke="#D1D7E2"/>
<g clip-path="url(#clip0_3489_25314)">
<mask id="mask0_3489_25314" style="mask-type:luminance" maskUnits="userSpaceOnUse" x="12" y="12" width="56" height="55">
<path d="M12.8809 12.5425H67.1181V66.7798H12.8809V12.5425Z" fill="white"/>
</mask>
<g mask="url(#mask0_3489_25314)">
<path d="M59.0672 39.6612C59.0672 37.1188 57.5419 34.8943 55.349 33.8773C55.6986 33.2416 55.8893 32.479 55.8893 31.7163C55.8893 29.0786 53.76 26.9493 51.1223 26.9493H49.2061C49.3991 26.4487 49.5333 25.9205 49.5333 25.3604C49.5333 22.7226 47.4041 20.5934 44.7664 20.5934C42.1287 20.5934 39.9994 22.7226 39.9994 25.3604C39.9994 22.7226 37.8702 20.5934 35.2325 20.5934C32.5948 20.5934 30.4655 22.7226 30.4655 25.3604C30.4655 25.9205 30.5998 26.4487 30.7928 26.9493H28.8766C26.2388 26.9493 24.1096 29.0786 24.1096 31.7163C24.1096 32.479 24.3003 33.2416 24.6499 33.8773C22.457 34.8943 20.9316 37.1188 20.9316 39.6612C20.9316 42.2036 22.457 44.4282 24.6499 45.4451C24.3003 46.0806 24.1096 46.8434 24.1096 47.6061C24.1096 50.2437 26.2388 52.3731 28.8766 52.3731H30.7926C30.5995 52.8737 30.4655 53.4021 30.4655 53.9621C30.4655 56.5997 32.5948 58.729 35.2325 58.729C37.8702 58.729 39.9994 56.5997 39.9994 53.9621C39.9994 56.5997 42.1287 58.729 44.7664 58.729C47.4041 58.729 49.5333 56.5997 49.5333 53.9621C49.5333 53.4021 49.3993 52.8737 49.2063 52.3731H51.1223C53.76 52.3731 55.8893 50.2437 55.8893 47.6061C55.8893 46.8434 55.6986 46.0806 55.349 45.4451C57.5419 44.4282 59.0672 42.2036 59.0672 39.6612Z" stroke="#FF2B44" stroke-miterlimit="10"/>
<path d="M33.6433 31.716C33.6433 34.3487 31.5091 36.4829 28.8763 36.4829C26.2436 36.4829 24.1094 34.3487 24.1094 31.716" stroke="#FF2B44" stroke-miterlimit="10"/>
<path d="M46.3555 31.716C46.3555 34.3487 48.4897 36.4829 51.1224 36.4829C53.7552 36.4829 55.8894 34.3487 55.8894 31.716" stroke="#FF2B44" stroke-miterlimit="10"/>
<path d="M33.6433 47.606C33.6433 44.9732 31.5091 42.839 28.8763 42.839C26.2436 42.839 24.1094 44.9732 24.1094 47.606" stroke="#FF2B44" stroke-miterlimit="10"/>
<path d="M46.3555 47.606C46.3555 44.9732 48.4897 42.839 51.1224 42.839C53.7552 42.839 55.8894 44.9732 55.8894 47.606" stroke="#FF2B44" stroke-miterlimit="10"/>
<path d="M40 25.36V30.127" stroke="#FF2B44" stroke-miterlimit="10"/>
<path d="M40 49.195V53.9619" stroke="#FF2B44" stroke-miterlimit="10"/>
<path d="M14.5762 23.226L21.3177 25.4731" stroke="#FF2B44" stroke-miterlimit="10"/>
<path d="M25.8112 20.979L23.1895 13.0291" stroke="#FF2B44" stroke-miterlimit="10"/>
<path d="M21.3177 53.8491L14.5762 56.0962" stroke="#FF2B44" stroke-miterlimit="10"/>
<path d="M25.8119 58.3435L23.2051 66.2695" stroke="#FF2B44" stroke-miterlimit="10"/>
<path d="M54.1875 20.979L56.7844 13.1036" stroke="#FF2B44" stroke-miterlimit="10"/>
<path d="M58.6816 25.4731L65.4232 23.226" stroke="#FF2B44" stroke-miterlimit="10"/>
<path d="M54.1875 58.3433L56.8043 66.2998" stroke="#FF2B44" stroke-miterlimit="10"/>
<path d="M58.6816 53.8491L65.4232 56.0962" stroke="#FF2B44" stroke-miterlimit="10"/>
<path d="M40 33.3052V46.0171" stroke="#FF2B44" stroke-miterlimit="10"/>
</g>
</g>
<defs>
<clipPath id="clip0_3489_25314">
<rect width="54.2373" height="54.2373" fill="white" transform="translate(12.8809 12.5425)"/>
</clipPath>
</defs>
</svg>
