<svg width="192" height="26" viewBox="0 0 192 26" fill="none" xmlns="http://www.w3.org/2000/svg">
<g clip-path="url(#clip0_2174_7202)">
<path fill-rule="evenodd" clip-rule="evenodd" d="M0.0187282 2.42384C0.0541759 4.66634 0.0737575 4.88414 0.280017 5.33083C0.630377 6.0892 1.06057 6.56774 1.68357 6.89243L2.25896 7.19228L11.2213 7.22116L20.1836 7.25003V4.96075C20.1836 2.19442 20.0877 1.78321 19.2352 0.895377C18.321 -0.0567136 18.9743 -0.000344705 8.85916 -0.000344705H-0.0195312L0.0187282 2.42384ZM181.319 2.88448C180.794 3.32222 181.098 4.26195 181.765 4.26195C182.107 4.26195 182.432 3.97488 182.516 3.59863C182.568 3.36591 182.52 3.24433 182.277 2.98593C181.92 2.60711 181.681 2.58175 181.319 2.88448ZM30.4756 3.2146C30.4476 3.29249 30.4364 7.91154 30.4506 13.4792L30.4765 23.6021L34.4431 23.6335C38.6615 23.6671 40.1577 23.5791 41.355 23.227C43.4417 22.6134 44.8335 21.1985 45.341 19.1752C45.5233 18.4477 45.5297 16.847 45.3528 16.1426C44.9242 14.4347 43.8684 13.2453 42.1895 12.5791L41.5853 12.3393L42.2743 11.9736C43.0613 11.5558 43.4983 11.0801 43.8722 10.2341C44.1134 9.6886 44.1334 9.53185 44.1334 8.19882V6.75465L43.7553 5.94289C43.1352 4.61178 42.0824 3.79438 40.418 3.35174C39.814 3.19116 39.0681 3.15834 35.1208 3.11891C31.3619 3.08129 30.5173 3.09877 30.4756 3.2146ZM63.1627 13.3726V23.6554H65.1209H67.079V13.3726V3.08982H65.1209H63.1627V13.3726ZM79.4305 6.77766V10.4655L79.0947 9.94849C78.6948 9.3327 77.7245 8.59873 76.9941 8.35929C76.1836 8.09375 74.8864 8.04484 74.0682 8.24911C72.9046 8.53948 72.1398 8.9947 71.2704 9.91429C70.6239 10.598 70.4157 10.9087 70.0502 11.7359C69.3117 13.407 69.056 15.283 69.2824 17.3712C69.6145 20.4351 71.0157 22.5937 73.2671 23.5094C74.0831 23.8413 75.6499 23.9695 76.5069 23.7745C77.5912 23.5277 78.8066 22.6895 79.208 21.9116L79.3803 21.5775L79.4305 22.5898L79.4807 23.6021L81.4138 23.6311L83.3468 23.66V13.3749V3.08982H81.3887H79.4305V6.77766ZM92.3845 13.3731V23.6747L97.1795 23.6259C101.627 23.5806 102.039 23.5607 102.869 23.3509C105.142 22.776 106.528 21.5104 107.205 19.3931C107.481 18.5312 107.455 16.594 107.157 15.7169C106.873 14.8822 106.364 14.0783 105.823 13.6101C105.355 13.2048 104.355 12.6341 103.907 12.5161C103.477 12.4031 103.496 12.2967 103.982 12.0999C104.571 11.8611 105.392 11.0667 105.683 10.4538C106.146 9.47825 106.271 8.03174 105.992 6.89317C105.536 5.03737 104.46 3.97382 102.441 3.38381C101.724 3.17443 101.367 3.15674 97.0288 3.11561L92.3845 3.0716V13.3731ZM160.764 6.79269C160.759 10.3101 160.75 10.4822 160.588 10.2292C160.158 9.55711 159.591 9.03018 158.923 8.68174C158.031 8.21715 157.233 8.05656 156.2 8.13382C153.577 8.32999 151.628 10.1515 150.807 13.1742C150.607 13.909 150.579 14.2543 150.578 15.9833C150.577 18.2497 150.686 18.8628 151.354 20.3521C151.676 21.0706 151.918 21.4238 152.524 22.0607C153.753 23.3518 154.927 23.8685 156.631 23.8685C158.305 23.8685 159.585 23.2278 160.454 21.9536L160.769 21.4923V22.5738V23.6554H162.728H164.686V13.3726V3.08982H162.728H160.769L160.764 6.79269ZM189.59 4.20867V4.90129H189.188H188.786V5.48736V6.07343H189.188H189.59L189.59 7.53859C189.59 9.20088 189.694 9.57064 190.282 9.98728C190.554 10.18 190.763 10.2292 191.311 10.2292H192V9.6431V9.05703H191.655C191.062 9.05703 190.995 8.88995 190.995 7.40358V6.08515L191.472 6.05265L191.949 6.02015L191.98 5.46072L192.01 4.90129H191.503H190.995V4.20867V3.51605H190.292H189.59V4.20867ZM185.677 5.03449C185.403 5.18346 185.167 5.4149 185.053 5.64549L184.87 6.01684V5.45902V4.90129H184.167H183.464V7.51195V10.1226H184.167H184.87V8.47597C184.87 7.5323 184.916 6.72247 184.977 6.57883C185.128 6.22751 185.422 6.06085 185.903 6.05371C186.23 6.04902 186.363 6.10699 186.547 6.33289C186.768 6.60557 186.778 6.69508 186.778 8.37038V10.1226H187.481H188.184V8.17388C188.184 6.36486 188.167 6.19107 187.958 5.7497C187.697 5.20189 187.066 4.79474 186.477 4.79474C186.279 4.79474 185.919 4.90268 185.677 5.03449ZM181.054 7.51195V10.1226H181.757H182.46V7.51195V4.90129H181.757H181.054V7.51195ZM34.5435 9.10445V11.4013L36.577 11.3989C38.3324 11.3969 38.666 11.3699 39.0162 11.201C39.8373 10.8052 40.2128 10.0263 40.1501 8.84903C40.1038 7.97878 39.7848 7.38557 39.1968 7.0757C38.8612 6.89893 38.5352 6.86845 36.6774 6.84011L34.5435 6.80761V9.10445ZM96.4012 9.11606V11.4128L98.5929 11.3804L100.785 11.348L101.202 11.0549C101.934 10.54 102.291 9.35507 102.026 8.31497C101.874 7.71899 101.305 7.0967 100.767 6.93814C100.538 6.87069 99.5215 6.82029 98.3845 6.81997L96.4012 6.81933V9.11606ZM52.3739 8.26659C49.7477 8.89134 47.9438 10.7229 47.2402 13.4792C47.0163 14.3561 46.9364 16.6294 47.0934 17.6615C47.5364 20.5762 49.0847 22.6167 51.5166 23.4911C52.2339 23.7489 52.5745 23.8046 53.6824 23.8446C54.7857 23.8846 55.1328 23.8563 55.8414 23.6685C58.2445 23.0317 59.9283 21.3269 60.6462 18.8034C61.0594 17.3514 61.0845 14.9055 60.7019 13.3726C60.1037 10.9751 58.5229 9.21634 56.2841 8.45754C55.2429 8.10462 53.4273 8.01597 52.3739 8.26659ZM124.271 8.20947C121.406 8.68632 120 10.1663 120 12.7036C120 13.5369 120.005 13.5558 120.225 13.493C120.35 13.4577 121.154 13.4281 122.012 13.4274L123.573 13.4259L123.688 12.847C123.912 11.7129 124.441 11.293 125.749 11.2101C127.426 11.1038 128.234 11.79 128.234 13.3216C128.234 13.9012 128.03 14.2463 127.564 14.4527C127.376 14.5361 126.331 14.7479 125.242 14.9234C122.136 15.4242 121.082 15.8054 120.189 16.7516C119.513 17.4681 119.262 18.2054 119.254 19.4997C119.243 21.1404 119.657 22.1519 120.677 22.9774C121.4 23.5629 122.112 23.7867 123.431 23.8436C124.423 23.8864 124.709 23.8601 125.289 23.6727C126.46 23.2942 127.351 22.5441 127.963 21.4211L128.284 20.8316L128.312 22.2435L128.34 23.6554H130.195H132.05V17.8704C132.05 11.7057 132.032 11.4505 131.544 10.4346C131.091 9.49168 130.009 8.69804 128.712 8.35695C127.956 8.15822 125.141 8.06466 124.271 8.20947ZM142.404 8.20617C140.878 8.54875 139.464 9.89979 139.141 11.3257C138.988 11.9961 138.878 11.4209 138.878 9.95648V8.41769H136.919H134.961L134.986 16.0099L135.012 23.6021L136.938 23.631L138.864 23.66L138.899 18.8359C138.932 14.2657 138.945 13.9849 139.139 13.4967C139.63 12.2608 140.477 11.6787 141.79 11.6739C142.205 11.6724 142.705 11.7313 142.903 11.805C143.376 11.9808 143.879 12.5102 144.141 13.1062C144.342 13.5658 144.353 13.7934 144.401 18.5939L144.451 23.6021L146.389 23.6311L148.326 23.66L148.295 17.9303C148.266 12.2934 148.261 12.1889 148.036 11.4823C147.57 10.0152 146.604 8.92479 145.315 8.40938C144.673 8.15257 143.124 8.04452 142.404 8.20617ZM171.564 8.15758C171.454 8.18454 171.115 8.25934 170.811 8.3237C169.971 8.50165 168.875 9.08303 168.296 9.65844C167.348 10.5995 166.922 11.9609 167.113 13.4428C167.228 14.3345 167.498 14.9255 168.1 15.6009C168.846 16.4374 169.73 16.8645 171.68 17.3301C174.04 17.8938 174.324 17.9895 174.642 18.3269C174.881 18.5801 174.928 18.7199 174.928 19.1636C174.928 20.1368 174.211 20.674 172.876 20.7007C171.473 20.7288 170.552 20.1753 170.293 19.1483L170.167 18.6472H168.431H166.694V19.051C166.694 19.6074 166.942 20.5676 167.255 21.2234C167.832 22.43 169.162 23.3648 170.8 23.7141C171.864 23.941 174.349 23.8796 175.28 23.6034C176.848 23.1381 178.002 22.2289 178.564 21.016C178.855 20.3902 178.895 20.191 178.927 19.2394C178.973 17.8791 178.75 17.1608 178.027 16.3498C177.181 15.4003 176.392 15.0476 173.76 14.4403C172.829 14.2255 171.873 13.9524 171.637 13.8335C171.136 13.5814 170.912 13.1904 170.912 12.5705C170.912 11.774 171.619 11.2967 172.8 11.2954C174.053 11.2939 174.899 11.8439 175.145 12.8182L175.271 13.3193H176.907C178.792 13.3193 178.657 13.426 178.4 12.1398C178.018 10.2269 176.812 8.91318 174.924 8.35429C174.394 8.19733 171.98 8.05593 171.564 8.15758ZM116.272 8.48866C115.288 8.83742 114.411 9.78034 113.95 10.9849C113.807 11.3605 113.652 11.7636 113.606 11.8808C113.556 12.0089 113.512 11.3605 113.495 10.2558L113.468 8.41769H111.512H109.556V16.0365V23.6554H111.507H113.458L113.495 19.5796C113.53 15.7297 113.545 15.4649 113.752 14.8021C114.371 12.8274 115.86 11.8244 117.984 11.9518L118.694 11.9943V10.2174C118.694 8.69538 118.671 8.43122 118.535 8.37581C118.229 8.25093 116.732 8.32562 116.272 8.48866ZM2.04849 9.57138C0.504151 10.1378 -0.273992 11.9089 0.0992637 14.0079C0.31195 15.2041 1.14803 16.2052 2.19098 16.5125C2.42917 16.5829 5.66686 16.6216 11.3173 16.622L20.0743 16.6226L19.9249 16.1733C19.4183 14.6494 18.0856 13.4003 16.669 13.1213C16.2255 13.034 16.2227 13.0309 16.5184 12.9538C17.6382 12.6621 18.42 12.209 19.0206 11.5035C19.3562 11.1093 19.8745 10.1372 20.0267 9.61646L20.0968 9.3767L11.3285 9.38022C3.22127 9.38342 2.52166 9.3978 2.04849 9.57138ZM53.1946 11.7303C51.8007 12.0788 50.9249 13.2689 50.7073 15.1102C50.5007 16.8587 50.8914 18.5293 51.7102 19.3982C52.8445 20.6018 54.9007 20.6885 56.0845 19.5827C57.2039 18.5371 57.6403 16.1524 57.0839 14.1214C56.5844 12.2981 54.9479 11.2921 53.1946 11.7303ZM75.4089 11.7529C74.4836 12.031 73.768 12.7023 73.3461 13.6874C72.7039 15.1871 72.8016 17.4717 73.5633 18.7627C74.6124 20.5411 76.9166 20.8965 78.3548 19.5018C80.3718 17.5456 79.8986 13.0148 77.5626 11.9183C76.9992 11.6538 75.9949 11.5767 75.4089 11.7529ZM156.582 11.8063C154.967 12.4187 154.246 13.7247 154.243 16.0438C154.242 17.6864 154.626 18.7823 155.474 19.5528C156.631 20.6033 158.478 20.6065 159.63 19.5602C160.112 19.1221 160.603 18.1746 160.773 17.3531C160.955 16.4701 160.853 14.7038 160.575 13.9324C159.948 12.197 158.12 11.2232 156.582 11.8063ZM34.5435 17.0376V19.9259H36.6976C39.1187 19.9259 39.6644 19.8407 40.34 19.3573C41.0374 18.8583 41.3222 18.2037 41.3199 17.105C41.3178 16.0908 41.064 15.4227 40.4899 14.9206C39.8092 14.3251 39.4401 14.2513 36.8782 14.1979L34.5435 14.1493V17.0376ZM96.4682 14.2429C96.4314 14.2819 96.4012 15.5803 96.4012 17.1281V19.9423L98.8866 19.9062C101.253 19.8719 101.395 19.8582 101.846 19.6213C102.438 19.3108 102.982 18.682 103.122 18.1486C103.256 17.6377 103.261 16.576 103.132 16.0983C102.878 15.1605 102.099 14.5055 100.977 14.2876C100.335 14.1628 96.5787 14.1255 96.4682 14.2429ZM127.832 16.8929C127.694 16.9706 126.813 17.1844 125.874 17.368C124.092 17.7165 123.725 17.8625 123.374 18.3619C123.081 18.7796 123.081 19.6869 123.374 20.1046C123.765 20.6612 124.175 20.8316 125.123 20.8314C125.888 20.8313 126.051 20.7939 126.65 20.4806C127.4 20.0889 127.978 19.4604 128.133 18.8672C128.249 18.4245 128.269 16.7238 128.159 16.7405C128.117 16.7466 127.97 16.8153 127.832 16.8929ZM2.4598 18.8241C1.71249 19.0034 0.983247 19.4977 0.604569 20.0819C0.091632 20.873 -0.000451751 21.444 -0.000451751 23.8346V25.9997H10.0984H20.1972L20.1654 23.5755C20.1336 21.1697 20.1313 21.1467 19.8533 20.5458C19.5359 19.8599 19.0493 19.3594 18.3812 19.0314C17.9302 18.8099 17.8246 18.8068 10.2924 18.7915C6.09495 18.7828 2.57026 18.7976 2.4598 18.8241Z" fill="#FF2B44"/>
</g>
<defs>
<clipPath id="clip0_2174_7202">
<rect width="192" height="26" fill="white"/>
</clipPath>
</defs>
</svg>
