<svg width="24" height="24" viewBox="0 0 24 24" fill="none" xmlns="http://www.w3.org/2000/svg">
<g clip-path="url(#clip0_446_1901)">
<rect width="24" height="24" rx="8" fill="url(#paint0_radial_446_1901)"/>
<path d="M12 6.26506C13.8554 6.26506 14.1084 6.26506 14.8675 6.26506C15.5422 6.26506 15.8795 6.43374 16.1325 6.51807C16.4699 6.68675 16.7229 6.77109 16.9759 7.0241C17.2289 7.27711 17.3976 7.53012 17.4819 7.86747C17.5663 8.12048 17.6506 8.45783 17.7349 9.13253C17.7349 9.89157 17.7349 10.0602 17.7349 12C17.7349 13.9398 17.7349 14.1084 17.7349 14.8675C17.7349 15.5422 17.5663 15.8795 17.4819 16.1325C17.3133 16.4699 17.2289 16.7229 16.9759 16.9759C16.7229 17.2289 16.4699 17.3976 16.1325 17.4819C15.8795 17.5663 15.5422 17.6506 14.8675 17.7349C14.1084 17.7349 13.9398 17.7349 12 17.7349C10.0602 17.7349 9.89157 17.7349 9.13253 17.7349C8.45783 17.7349 8.12048 17.5663 7.86747 17.4819C7.53012 17.3133 7.27711 17.2289 7.0241 16.9759C6.77109 16.7229 6.60241 16.4699 6.51807 16.1325C6.43374 15.8795 6.3494 15.5422 6.26506 14.8675C6.26506 14.1084 6.26506 13.9398 6.26506 12C6.26506 10.0602 6.26506 9.89157 6.26506 9.13253C6.26506 8.45783 6.43374 8.12048 6.51807 7.86747C6.68675 7.53012 6.77109 7.27711 7.0241 7.0241C7.27711 6.77109 7.53012 6.60241 7.86747 6.51807C8.12048 6.43374 8.45783 6.3494 9.13253 6.26506C9.89157 6.26506 10.1446 6.26506 12 6.26506ZM12 5C10.0602 5 9.89157 5 9.13253 5C8.37349 5 7.86747 5.16868 7.44578 5.33735C7.0241 5.50602 6.60241 5.75904 6.18072 6.18072C5.75904 6.60241 5.59036 6.93976 5.33735 7.44578C5.16868 7.86747 5.08434 8.37349 5 9.13253C5 9.89157 5 10.1446 5 12C5 13.9398 5 14.1084 5 14.8675C5 15.6265 5.16868 16.1325 5.33735 16.5542C5.50602 16.9759 5.75904 17.3976 6.18072 17.8193C6.60241 18.241 6.93976 18.4096 7.44578 18.6627C7.86747 18.8313 8.37349 18.9157 9.13253 19C9.89157 19 10.1446 19 12 19C13.8554 19 14.1084 19 14.8675 19C15.6265 19 16.1325 18.8313 16.5542 18.6627C16.9759 18.494 17.3976 18.241 17.8193 17.8193C18.241 17.3976 18.4096 17.0602 18.6627 16.5542C18.8313 16.1325 18.9157 15.6265 19 14.8675C19 14.1084 19 13.8554 19 12C19 10.1446 19 9.89157 19 9.13253C19 8.37349 18.8313 7.86747 18.6627 7.44578C18.494 7.0241 18.241 6.60241 17.8193 6.18072C17.3976 5.75904 17.0602 5.59036 16.5542 5.33735C16.1325 5.16868 15.6265 5.08434 14.8675 5C14.1084 5 13.9398 5 12 5Z" fill="white"/>
<path d="M12 8.37349C9.9759 8.37349 8.37349 9.9759 8.37349 12C8.37349 14.0241 9.9759 15.6265 12 15.6265C14.0241 15.6265 15.6265 14.0241 15.6265 12C15.6265 9.9759 14.0241 8.37349 12 8.37349ZM12 14.3614C10.7349 14.3614 9.63855 13.3494 9.63855 12C9.63855 10.7349 10.6506 9.63855 12 9.63855C13.2651 9.63855 14.3614 10.6506 14.3614 12C14.3614 13.2651 13.2651 14.3614 12 14.3614Z" fill="white"/>
<path d="M15.7108 9.13253C16.1766 9.13253 16.5542 8.75494 16.5542 8.28916C16.5542 7.82338 16.1766 7.44578 15.7108 7.44578C15.2451 7.44578 14.8675 7.82338 14.8675 8.28916C14.8675 8.75494 15.2451 9.13253 15.7108 9.13253Z" fill="white"/>
</g>
<defs>
<radialGradient id="paint0_radial_446_1901" cx="0" cy="0" r="1" gradientUnits="userSpaceOnUse" gradientTransform="translate(9 24.6) rotate(-71.3421) scale(24.3813)">
<stop stop-color="#F9CE34"/>
<stop offset="0.515" stop-color="#EE2A7B"/>
<stop offset="1" stop-color="#6228D7"/>
</radialGradient>
<clipPath id="clip0_446_1901">
<rect width="24" height="24" rx="8" fill="white"/>
</clipPath>
</defs>
</svg>
