<svg width="25" height="24" viewBox="0 0 25 24" fill="none" xmlns="http://www.w3.org/2000/svg">
<rect x="0.5" width="24" height="24" rx="8" fill="#080808"/>
<path d="M19.2497 8.78328C18.7826 8.78329 18.3201 8.6913 17.8886 8.51256C17.4571 8.33382 17.065 8.07183 16.7347 7.74156C16.4044 7.41129 16.1424 7.0192 15.9637 6.58767C15.7849 6.15615 15.6929 5.69364 15.6929 5.22656H13.1519V15.177C13.1514 15.6306 13.0081 16.0726 12.7424 16.4403C12.4767 16.808 12.102 17.0828 11.6714 17.2256C11.2408 17.3684 10.7762 17.3721 10.3434 17.2362C9.91059 17.1002 9.53156 16.8315 9.26002 16.4681C8.98847 16.1046 8.8382 15.665 8.83049 15.2114C8.82278 14.7578 8.95803 14.3133 9.21707 13.9408C9.47611 13.5684 9.84579 13.2869 10.2737 13.1363C10.7017 12.9857 11.1661 12.9737 11.6013 13.1018V10.6317C10.6765 10.507 9.73557 10.6674 8.90428 11.0915C8.07299 11.5156 7.39087 12.1832 6.949 13.0052C6.50713 13.8272 6.32655 14.7645 6.43137 15.6918C6.53618 16.6191 6.92141 17.4924 7.53561 18.195C8.14981 18.8976 8.96374 19.3961 9.86873 19.624C10.7737 19.8519 11.7267 19.7982 12.6004 19.4702C13.4741 19.1422 14.2269 18.5555 14.7583 17.7883C15.2898 17.0212 15.5745 16.1102 15.5746 15.177L15.6483 10.1473C16.6924 10.9138 17.9542 11.3262 19.2494 11.3243L19.2497 8.78328Z" fill="#FE335A"/>
<path d="M18.5777 8.09095C17.6344 8.09092 16.7298 7.71618 16.0628 7.04916C15.3958 6.38213 15.0211 5.47747 15.0211 4.53418H12.48V14.4846C12.4795 14.9382 12.3363 15.3802 12.0706 15.7479C11.8049 16.1156 11.4302 16.3904 10.9996 16.5332C10.569 16.6761 10.1044 16.6798 9.67155 16.5438C9.23874 16.4079 8.85971 16.1391 8.58816 15.7757C8.31661 15.4123 8.16633 14.9726 8.15862 14.5191C8.15091 14.0655 8.28615 13.6209 8.54519 13.2485C8.80423 12.8761 9.17391 12.5946 9.60185 12.444C10.0298 12.2934 10.4943 12.2813 10.9295 12.4094V9.9393C10.0046 9.81459 9.0637 9.975 8.23241 10.3991C7.40112 10.8232 6.71899 11.4908 6.27712 12.3128C5.83526 13.1348 5.65467 14.0721 5.75949 14.9994C5.86431 15.9267 6.24954 16.8 6.86374 17.5026C7.47794 18.2052 8.29187 18.7038 9.19686 18.9316C10.1018 19.1595 11.0548 19.1058 11.9285 18.7778C12.8022 18.4498 13.555 17.8631 14.0865 17.0959C14.6179 16.3288 14.9027 15.4178 14.9027 14.4846L14.9768 9.45497C16.0209 10.2214 17.2828 10.6338 18.578 10.6319L18.5777 8.09095Z" fill="#2CF4EF"/>
<path d="M18.5773 8.71968C17.6981 8.55051 16.915 8.05598 16.3844 7.33482C15.7138 6.80997 15.2538 6.06187 15.0881 5.22656H13.1513V15.177C13.1513 15.6492 12.9967 16.1085 12.7112 16.4846C12.4257 16.8608 12.025 17.1332 11.5701 17.2603C11.1153 17.3874 10.6314 17.3622 10.1923 17.1885C9.75311 17.0148 9.38287 16.7022 9.13804 16.2983C8.70267 16.0149 8.38379 15.5844 8.23969 15.0853C8.09558 14.5862 8.13586 14.0519 8.35317 13.5801C8.57049 13.1082 8.95032 12.7303 9.42326 12.5154C9.8962 12.3005 10.4307 12.263 10.929 12.4096V10.5919C10.0742 10.6029 9.23954 10.8526 8.51916 11.3129C7.79877 11.7731 7.22137 12.4256 6.85214 13.1966C6.48291 13.9676 6.33655 14.8265 6.42958 15.6762C6.52261 16.526 6.85132 17.3329 7.37861 18.0058C8.04802 18.5643 8.8628 18.9205 9.72742 19.0325C10.592 19.1445 11.4707 19.0077 12.2603 18.6382C13.05 18.2686 13.7179 17.6816 14.1859 16.946C14.6538 16.2104 14.9023 15.3566 14.9023 14.4847L14.9764 9.45512C16.0205 10.2216 17.2823 10.634 18.5775 10.632L18.5773 8.71968Z" fill="white"/>
</svg>
