<svg width="140" height="141" viewBox="0 0 140 141" fill="none" xmlns="http://www.w3.org/2000/svg">
<path d="M54.3555 116.297H86.0171" stroke="black" stroke-miterlimit="10" stroke-linecap="round" stroke-linejoin="round"/>
<mask id="mask0_2115_5916" style="mask-type:luminance" maskUnits="userSpaceOnUse" x="0" y="0" width="140" height="141">
<path d="M0 0.500015H140V140.5H0V0.500015Z" fill="white"/>
</mask>
<g mask="url(#mask0_2115_5916)">
<path d="M30.8989 32.0341H15.2834C12.6384 32.0341 10.4941 34.1784 10.4941 36.8234V81.5361" stroke="black" stroke-miterlimit="10" stroke-linecap="round" stroke-linejoin="round"/>
<path d="M129.506 81.3389V36.823C129.506 34.178 127.362 32.0337 124.717 32.0337H108.861" stroke="black" stroke-miterlimit="10" stroke-linecap="round" stroke-linejoin="round"/>
<path d="M69.9997 88.6367L49.2888 66.4694C47.3957 64.4432 44.1829 64.4432 42.2898 66.4694L28.3965 81.3395" stroke="black" stroke-miterlimit="10" stroke-linecap="round" stroke-linejoin="round"/>
<path d="M120.278 90.6228L97.7106 66.469C95.8173 64.4425 92.6044 64.4425 90.7116 66.469L53.9824 105.78" stroke="black" stroke-miterlimit="10" stroke-linecap="round" stroke-linejoin="round"/>
<path d="M81.913 32.0337C81.913 38.6129 76.5796 43.9463 70.0005 43.9463C63.4213 43.9463 58.0879 38.6129 58.0879 32.0337C58.0879 25.4545 63.4213 20.1211 70.0005 20.1211C76.5796 20.1211 81.913 25.4545 81.913 32.0337Z" stroke="#FF2B44" stroke-miterlimit="10" stroke-linecap="round" stroke-linejoin="round"/>
<path d="M99.4838 33.9182V30.1505C99.4838 29.6706 99.1866 29.2407 98.7376 29.0709L91.9137 26.4946C91.5711 26.3653 91.3149 26.0798 91.211 25.729C90.7699 24.2431 90.1779 22.8223 89.4514 21.4852C89.2802 21.17 89.2597 20.7948 89.4074 20.468L92.416 13.8093C92.6137 13.3721 92.5199 12.858 92.1806 12.5187L89.5162 9.85457C89.1769 9.51496 88.6628 9.42117 88.2256 9.61887L81.5668 12.6275C81.2401 12.7752 80.8649 12.7549 80.5496 12.5837C79.2125 11.857 77.7918 11.265 76.3059 10.8242C75.9551 10.72 75.6696 10.4638 75.5403 10.1214L72.9639 3.29727C72.7944 2.84828 72.3646 2.55106 71.8844 2.55106H68.1167C67.6368 2.55106 67.207 2.84828 67.0375 3.29727L64.4611 10.1214C64.3318 10.4638 64.0461 10.72 63.6952 10.8242C62.2094 11.265 60.7889 11.857 59.4515 12.5837C59.1365 12.7549 58.7611 12.7752 58.4343 12.6275L51.7758 9.61887C51.3383 9.42117 50.8243 9.51496 50.4849 9.85457L47.8208 12.5187C47.4815 12.858 47.3877 13.3721 47.5851 13.8093L50.594 20.468C50.7417 20.7948 50.7212 21.17 50.55 21.4852C49.8235 22.8223 49.2312 24.2431 48.7904 25.729C48.6862 26.0798 48.4303 26.3653 48.0877 26.4946L41.2638 29.0709C40.8145 29.2407 40.5176 29.6706 40.5176 30.1505V33.9182C40.5176 34.398 40.8145 34.8279 41.2638 34.9974L48.0877 37.574C48.4303 37.7034 48.6862 37.9888 48.7904 38.3396C49.2312 39.8255 49.8235 41.2463 50.55 42.5834C50.7212 42.8984 50.7417 43.2738 50.594 43.6006L47.5851 50.2591C47.3877 50.6966 47.4815 51.2106 47.8208 51.55L50.4849 54.2143C50.8243 54.5537 51.3383 54.6475 51.7758 54.4498L58.4343 51.4409C58.7611 51.2932 59.1365 51.3137 59.4515 51.4849C60.7889 52.2114 62.2094 52.8037 63.6952 53.2445C64.0461 53.3486 64.3318 53.6048 64.4611 53.9475L67.0375 60.7714C67.207 61.2204 67.6368 61.5176 68.1167 61.5176H71.8844C72.3646 61.5176 72.7944 61.2204 72.9639 60.7714L75.5403 53.9475C75.6696 53.6048 75.9551 53.3486 76.3059 53.2445C77.7918 52.8037 79.2125 52.2114 80.5496 51.4849C80.8649 51.3137 81.2401 51.2932 81.5668 51.4409L88.2256 54.4498C88.6628 54.6475 89.1769 54.5537 89.5162 54.2143L92.1806 51.55C92.5199 51.2106 92.6137 50.6966 92.416 50.2591L89.4074 43.6006C89.2597 43.2738 89.2802 42.8984 89.4514 42.5834C90.1779 41.2463 90.7699 39.8255 91.211 38.3396C91.3149 37.9888 91.5711 37.7034 91.9137 37.574L98.7376 34.9974C99.1866 34.8279 99.4838 34.398 99.4838 33.9182Z" stroke="#FF2B44" stroke-miterlimit="10" stroke-linecap="round" stroke-linejoin="round"/>
<path d="M137.949 101.814V96.0916C137.949 93.0715 135.5 90.6228 132.48 90.6228H91.4863C88.4659 90.6228 86.0176 93.0715 86.0176 96.0916V132.98C86.0176 136.001 88.4659 138.449 91.4863 138.449H132.48C135.5 138.449 137.949 136.001 137.949 132.98V112.675" stroke="black" stroke-miterlimit="10" stroke-linecap="round" stroke-linejoin="round"/>
<path d="M7.51953 138.449H48.5133C51.5337 138.449 53.982 136.001 53.982 132.98V96.0916C53.982 93.0714 51.5337 90.6228 48.5133 90.6228H7.51953C4.49914 90.6228 2.05078 93.0714 2.05078 96.0916V132.98C2.05078 136.001 4.49914 138.449 7.51953 138.449Z" stroke="black" stroke-miterlimit="10" stroke-linecap="round" stroke-linejoin="round"/>
<path d="M104.257 125.531L121.798 115.73C122.731 115.208 122.731 113.865 121.798 113.343L104.257 103.542C103.345 103.032 102.223 103.691 102.223 104.735V124.338C102.223 125.382 103.345 126.041 104.257 125.531Z" stroke="black" stroke-miterlimit="10" stroke-linecap="round" stroke-linejoin="round"/>
<path d="M13.7344 104.669H42.2977" stroke="black" stroke-miterlimit="10" stroke-linecap="round" stroke-linejoin="round"/>
<path d="M13.7344 114.536H42.2977" stroke="black" stroke-miterlimit="10" stroke-linecap="round" stroke-linejoin="round"/>
<path d="M13.7344 124.403H42.2977" stroke="black" stroke-miterlimit="10" stroke-linecap="round" stroke-linejoin="round"/>
</g>
</svg>
