<svg width="138" height="137" viewBox="0 0 138 137" fill="none" xmlns="http://www.w3.org/2000/svg">
<path d="M38.0124 105.258H8.59738C4.42965 105.258 1.05078 101.879 1.05078 97.7109V37.5388C1.05078 33.3711 4.42937 29.9922 8.59738 29.9922H28" stroke="black" stroke-miterlimit="10" stroke-linecap="round" stroke-linejoin="round"/>
<path d="M132.34 30.585C135.048 31.7307 136.949 34.4125 136.949 37.5385V97.7109C136.949 101.879 133.57 105.257 129.402 105.257H100.385" stroke="black" stroke-miterlimit="10" stroke-linecap="round" stroke-linejoin="round"/>
<path d="M100.385 29.9922H112.262" stroke="black" stroke-miterlimit="10" stroke-linecap="round" stroke-linejoin="round"/>
<path d="M15.9676 29.9922H8.59738C4.42965 29.9922 1.05078 33.3708 1.05078 37.5388V97.7112C1.05078 101.879 4.42937 105.258 8.59738 105.258H15.9676V29.9922Z" stroke="black" stroke-miterlimit="10" stroke-linecap="round" stroke-linejoin="round"/>
<path d="M127.287 62.6885V80.0947" stroke="black" stroke-miterlimit="10" stroke-linecap="round" stroke-linejoin="round"/>
<path d="M127.287 55.1543V55.1553" stroke="black" stroke-miterlimit="10" stroke-linecap="round" stroke-linejoin="round"/>
<path d="M97.1839 37.8715H40.8159C39.6759 37.8715 38.752 36.9475 38.752 35.8076V28.3441C38.752 25.4126 41.1284 23.0361 44.0599 23.0361H93.9401C96.8716 23.0361 99.2481 25.4126 99.2481 28.3441V35.8076C99.2478 36.9475 98.3239 37.8715 97.1839 37.8715Z" stroke="black" stroke-miterlimit="10" stroke-linecap="round" stroke-linejoin="round"/>
<path d="M79.0346 23.0366H58.9648V17.5154C58.9648 11.9733 63.4577 7.48047 68.9997 7.48047C74.5418 7.48047 79.0346 11.9733 79.0346 17.5154V23.0366Z" stroke="black" stroke-miterlimit="10" stroke-linecap="round" stroke-linejoin="round"/>
<path d="M97.1839 97.3779H40.8159C39.6759 97.3779 38.752 98.3019 38.752 99.4418V106.905C38.752 109.837 41.1284 112.213 44.0599 112.213H93.9401C96.8716 112.213 99.2481 109.837 99.2481 106.905V99.4418C99.2478 98.3019 98.3239 97.3779 97.1839 97.3779Z" stroke="black" stroke-miterlimit="10" stroke-linecap="round" stroke-linejoin="round"/>
<path d="M58.9648 112.213V134.307C58.9648 135.068 59.5817 135.685 60.3427 135.685H77.6568C78.4177 135.685 79.0346 135.068 79.0346 134.307V121.057" stroke="black" stroke-miterlimit="10" stroke-linecap="round" stroke-linejoin="round"/>
<path d="M124.061 16.196L127.463 21.3624C127.619 21.5989 127.822 21.8012 128.058 21.9571L133.224 25.3592C134.476 26.1831 134.476 28.0184 133.224 28.8423L128.058 32.2444C127.822 32.4002 127.619 32.6026 127.463 32.8391L124.061 38.0054C123.237 39.2567 121.402 39.2567 120.578 38.0054L117.176 32.8391C117.02 32.6026 116.818 32.4002 116.581 32.2444L111.415 28.8423C110.164 28.0184 110.164 26.1831 111.415 25.3592L116.581 21.9571C116.818 21.8012 117.02 21.5989 117.176 21.3624L120.578 16.196C121.402 14.9451 123.237 14.9451 124.061 16.196Z" stroke="#FF2B44" stroke-miterlimit="10" stroke-linecap="round" stroke-linejoin="round"/>
<path d="M111.224 45.3982L113.939 49.5205C114.063 49.7092 114.225 49.8708 114.413 49.9949L118.536 52.7096C119.534 53.3669 119.534 54.8312 118.536 55.4888L114.413 58.2035C114.225 58.3279 114.063 58.4892 113.939 58.6779L111.224 62.8003C110.567 63.7986 109.103 63.7986 108.445 62.8003L105.73 58.6779C105.606 58.4892 105.445 58.3276 105.256 58.2035L101.134 55.4888C100.135 54.8315 100.135 53.3672 101.134 52.7096L105.256 49.9949C105.445 49.8705 105.606 49.7092 105.73 49.5205L108.445 45.3982C109.102 44.3998 110.567 44.3998 111.224 45.3982Z" stroke="#FF2B44" stroke-miterlimit="10" stroke-linecap="round" stroke-linejoin="round"/>
<path d="M100.357 1.91344L102.525 5.20535C102.624 5.35602 102.754 5.48508 102.904 5.58434L106.196 7.75215C106.993 8.27715 106.993 9.44664 106.196 9.97164L102.904 12.1395C102.754 12.2387 102.624 12.3678 102.525 12.5184L100.357 15.8104C99.8324 16.6077 98.6629 16.6077 98.1379 15.8104L95.9701 12.5184C95.8708 12.3678 95.7417 12.2387 95.5911 12.1395L92.2992 9.97164C91.5018 9.44664 91.5018 8.27715 92.2992 7.75215L95.5911 5.58434C95.7417 5.48508 95.8708 5.35602 95.9701 5.20535L98.1379 1.91344C98.6632 1.11609 99.8324 1.11609 100.357 1.91344Z" stroke="#FF2B44" stroke-miterlimit="10" stroke-linecap="round" stroke-linejoin="round"/>
<path d="M84.6668 55.7068L82.9649 51.3253C82.5064 50.1448 81.3702 49.3672 80.1039 49.3672H57.8959C56.6296 49.3672 55.4932 50.1448 55.0349 51.3253L53.333 55.7068C52.8745 56.8873 51.7384 57.6649 50.4721 57.6649H48.6865C46.9915 57.6649 45.6172 59.0389 45.6172 60.7343V82.7993C45.6172 84.4943 46.9912 85.8686 48.6865 85.8686H89.3133C91.0084 85.8686 92.3827 84.4946 92.3827 82.7993V60.7343C92.3827 59.0392 91.0086 57.6649 89.3133 57.6649H87.5278C86.2615 57.6649 85.1254 56.8873 84.6668 55.7068Z" stroke="#FF2B44" stroke-miterlimit="10" stroke-linecap="round" stroke-linejoin="round"/>
<path d="M69.7055 78.666C74.8576 78.666 79.0341 74.4894 79.0341 69.3374C79.0341 64.1853 74.8576 60.0088 69.7055 60.0088C64.5535 60.0088 60.377 64.1853 60.377 69.3374C60.377 74.4894 64.5535 78.666 69.7055 78.666Z" stroke="#FF2B44" stroke-miterlimit="10" stroke-linecap="round" stroke-linejoin="round"/>
</svg>
