<svg width="140" height="141" viewBox="0 0 140 141" fill="none" xmlns="http://www.w3.org/2000/svg">
<path d="M20.5078 82.8047C20.5078 87.3353 16.835 91.0078 12.3047 91.0078C7.77437 91.0078 4.10156 87.3353 4.10156 82.8047C4.10156 78.2741 7.77437 74.6016 12.3047 74.6016C16.835 74.6016 20.5078 78.2741 20.5078 82.8047Z" stroke="#FF2B44" stroke-miterlimit="10"/>
<path d="M20.5078 17.1797C20.5078 21.71 16.835 25.3828 12.3047 25.3828C7.77437 25.3828 4.10156 21.71 4.10156 17.1797C4.10156 12.6491 7.77437 8.97656 12.3047 8.97656C16.835 8.97656 20.5078 12.6491 20.5078 17.1797Z" stroke="#FF2B44" stroke-miterlimit="10"/>
<path d="M135.898 82.8047C135.898 87.3353 132.226 91.0078 127.695 91.0078C123.165 91.0078 119.492 87.3353 119.492 82.8047C119.492 78.2741 123.165 74.6016 127.695 74.6016C132.226 74.6016 135.898 78.2741 135.898 82.8047Z" stroke="#FF2B44" stroke-miterlimit="10"/>
<path d="M135.898 17.1797C135.898 21.71 132.226 25.3828 127.695 25.3828C123.165 25.3828 119.492 21.71 119.492 17.1797C119.492 12.6491 123.165 8.97656 127.695 8.97656C132.226 8.97656 135.898 12.6491 135.898 17.1797Z" stroke="#FF2B44" stroke-miterlimit="10"/>
<path d="M127.695 74.6016C127.695 45.6735 106.031 21.7414 78.2031 17.7613" stroke="black" stroke-miterlimit="10"/>
<path d="M61.7969 17.7613C33.9694 21.7417 12.3047 45.6735 12.3047 74.6016" stroke="black" stroke-miterlimit="10"/>
<path d="M78.2031 25.3828H61.7969V8.97656H78.2031V25.3828Z" stroke="#FF2B44" stroke-miterlimit="10"/>
<path d="M20.5078 17.1797H61.7969" stroke="black" stroke-miterlimit="10"/>
<path d="M78.2031 17.1797H119.492" stroke="black" stroke-miterlimit="10"/>
<path d="M78.2031 115.617L94.6094 82.8047L70 41.7891L45.3906 82.8047L61.7969 115.617" stroke="black" stroke-miterlimit="10"/>
<path d="M94.6094 132.023H45.3906V115.617H94.6094V132.023Z" stroke="black" stroke-miterlimit="10"/>
<path d="M70 41.7891V86.9062" stroke="black" stroke-miterlimit="10"/>
</svg>
