<svg width="140" height="141" viewBox="0 0 140 141" fill="none" xmlns="http://www.w3.org/2000/svg">
<g clip-path="url(#clip0_2115_6093)">
<path d="M36.4018 136.677C36.9629 127.897 44.2617 120.949 53.1834 120.949C62.0876 120.949 69.3752 127.869 69.9617 136.625M70.0514 136.439C70.7276 127.772 77.9751 120.949 86.8161 120.949C95.749 120.949 103.055 127.914 103.6 136.709M103.676 136.542C104.303 127.826 111.573 120.949 120.449 120.949C129.737 120.949 137.265 128.478 137.266 137.766H2.73438C2.73438 128.478 10.2632 120.949 19.5507 120.949C28.4776 120.949 35.7688 127.901 36.3321 136.672" stroke="black" stroke-miterlimit="22.9256" stroke-linecap="round" stroke-linejoin="round"/>
<path fill-rule="evenodd" clip-rule="evenodd" d="M19.5508 99.9971C24.1754 99.9971 27.959 103.781 27.959 108.405V111.14C27.959 115.764 24.1752 119.548 19.5508 119.548C14.9261 119.548 11.1426 115.764 11.1426 111.14V108.405C11.1426 103.781 14.9264 99.9971 19.5508 99.9971Z" stroke="black" stroke-miterlimit="22.9256" stroke-linecap="round" stroke-linejoin="round"/>
<path fill-rule="evenodd" clip-rule="evenodd" d="M53.1836 99.9971C57.8082 99.9971 61.5918 103.781 61.5918 108.405V111.14C61.5918 115.764 57.808 119.548 53.1836 119.548C48.5589 119.548 44.7754 115.764 44.7754 111.14V108.405C44.7754 103.781 48.5589 99.9971 53.1836 99.9971Z" stroke="black" stroke-miterlimit="22.9256" stroke-linecap="round" stroke-linejoin="round"/>
<path fill-rule="evenodd" clip-rule="evenodd" d="M86.8164 99.9971C91.4411 99.9971 95.2246 103.781 95.2246 108.405V111.14C95.2246 115.764 91.4408 119.548 86.8164 119.548C82.1918 119.548 78.4082 115.764 78.4082 111.14V108.405C78.4082 103.781 82.192 99.9971 86.8164 99.9971Z" stroke="black" stroke-miterlimit="22.9256" stroke-linecap="round" stroke-linejoin="round"/>
<path fill-rule="evenodd" clip-rule="evenodd" d="M120.449 99.9971C125.074 99.9971 128.857 103.781 128.857 108.405V111.14C128.857 115.764 125.074 119.548 120.449 119.548C115.825 119.548 112.041 115.764 112.041 111.14V108.405C112.041 103.781 115.825 99.9971 120.449 99.9971Z" stroke="black" stroke-miterlimit="22.9256" stroke-linecap="round" stroke-linejoin="round"/>
<path d="M97.067 77.2736C112.017 62.3241 112.017 38.0861 97.067 23.1365C82.1175 8.18696 57.8794 8.18696 42.9299 23.1365C27.9803 38.0861 27.9803 62.3241 42.9299 77.2736C57.8794 92.2232 82.1175 92.2232 97.067 77.2736Z" stroke="black" stroke-miterlimit="22.9256" stroke-linecap="round" stroke-linejoin="round"/>
<path d="M62.1436 25.439C64.6223 24.6534 67.2613 24.2285 70 24.2285C84.3467 24.2285 95.9766 35.8586 95.9766 50.2051C95.9766 64.5515 84.3464 76.1816 70 76.1816C55.6536 76.1816 44.0234 64.5515 44.0234 50.2051C44.0234 47.4671 44.4481 44.8285 45.2334 42.3506" stroke="black" stroke-miterlimit="22.9256" stroke-linecap="round" stroke-linejoin="round"/>
<path d="M73.1418 63.5043C80.4902 61.7691 85.0406 54.4054 83.3055 47.057C81.5703 39.7086 74.2066 35.1582 66.8582 36.8934C59.5098 38.6285 54.9594 45.9922 56.6945 53.3406C58.4297 60.689 65.7934 65.2395 73.1418 63.5043Z" stroke="#FF2B44" stroke-miterlimit="22.9256" stroke-linecap="round" stroke-linejoin="round"/>
<path fill-rule="evenodd" clip-rule="evenodd" d="M105.369 3.23438L108.269 11.9352L116.969 14.8352L105.769 26.0358L97.0683 23.1357L94.168 14.4349L105.369 3.23438Z" stroke="#FF2B44" stroke-miterlimit="22.9256" stroke-linecap="round" stroke-linejoin="round"/>
<path d="M97.0689 23.1357L70 50.2047" stroke="#FF2B44" stroke-miterlimit="22.9256" stroke-linecap="round" stroke-linejoin="round"/>
<path d="M51.6309 31.8387L51.6326 31.8369" stroke="black" stroke-miterlimit="2.6131" stroke-linecap="round" stroke-linejoin="round"/>
</g>
<defs>
<clipPath id="clip0_2115_6093">
<rect width="140" height="140" fill="white" transform="translate(0 0.5)"/>
</clipPath>
</defs>
</svg>
